<?xml version="1.0" encoding="UTF-8"?>
<svg version="1.1" xmlns="http://www.w3.org/2000/svg" width="823" height="524">
<path d="M0 0 C271.59 0 543.18 0 823 0 C823 172.92 823 345.84 823 524 C551.41 524 279.82 524 0 524 C0 351.08 0 178.16 0 0 Z " fill="#BFD6F1" transform="translate(0,0)"/>
<path d="M0 0 C271.59 0 543.18 0 823 0 C823 172.92 823 345.84 823 524 C551.41 524 279.82 524 0 524 C0 351.08 0 178.16 0 0 Z M536.29345703 69.38525391 C468.55263218 117.07929431 411.35705864 144.32454049 327.67971802 146.38623047 C282.253498 147.51971009 236.11183869 150.42721779 192 162 C190.87319824 162.29100586 189.74639648 162.58201172 188.58544922 162.88183594 C149.73181683 173.0484378 112.29950361 188.92187938 80 213 C79.03707031 213.71542969 78.07414062 214.43085938 77.08203125 215.16796875 C51.87917433 234.88033944 31.86126552 261.77495043 27 294 C26.72339925 297.422811 26.66507076 300.81704429 26.6875 304.25 C26.69313965 305.16604004 26.6987793 306.08208008 26.70458984 307.02587891 C27.23423602 336.8696055 44.32920801 362.28073829 65.13671875 382.42578125 C70.52005042 387.26563878 76.21624827 391.65328217 82 396 C82.58765137 396.44843262 83.17530273 396.89686523 83.78076172 397.35888672 C98.31771452 408.44625775 113.80362999 418.14000542 129.87304688 426.84619141 C131.33577181 427.63967603 132.79524379 428.43917735 134.25195312 429.24365234 C158.43764628 442.57383658 184.00023033 452.80576384 210 462 C211.20293701 462.4338501 211.20293701 462.4338501 212.43017578 462.87646484 C252.45593531 477.28502718 294.84792575 485.0678712 337.375 485.25 C338.509375 485.270625 339.64375 485.29125 340.8125 485.3125 C366.97258087 485.42264771 392.51051613 481.41736094 417.99853516 475.94256592 C443.56733663 470.45997249 468.70605371 465.41258224 494.98583984 465.66381836 C497.66143159 465.68782691 500.33604325 465.6842817 503.01171875 465.67773438 C512.87789468 465.69391799 522.26516279 466.30030523 532 468 C533.49803662 468.21813248 534.99666009 468.43231231 536.49609375 468.640625 C546.04736756 470.11733334 555.25879858 472.28430846 564.58911133 474.79882812 C571.96118182 476.77246303 579.31602494 478.43647838 586.8527832 479.65185547 C588.52303419 479.92266592 590.19031301 480.21183278 591.85620117 480.50830078 C619.1146694 485.12530312 648.9530401 483.36310436 672.4375 467.5625 C673.97525194 466.39699185 675.49690419 465.20987325 677 464 C678.11568359 463.14535156 678.11568359 463.14535156 679.25390625 462.2734375 C697.76284206 447.14439432 706.34421249 423.09229383 708.82443237 400.01771164 C709.27388803 394.85234073 709.2149587 389.67488993 709.15032959 384.49496651 C709.1240948 382.36801823 709.11159767 380.24132798 709.10205078 378.11424255 C709.0757354 372.83701016 709.02728822 367.56003016 708.97924805 362.28295898 C708.939296 357.79870314 708.90823219 353.3145425 708.88812256 348.83015251 C708.87546783 346.76765418 708.85047304 344.70557285 708.82470703 342.64320374 C708.67325911 313.03040276 716.71603148 286.39058676 735 263 C746.58883265 248.14242952 756.85178835 233.95875803 763 216 C763.62068359 214.31197266 763.62068359 214.31197266 764.25390625 212.58984375 C773.29874782 183.62744165 765.55298857 153.1440248 752.0234375 127.1171875 C741.48336079 108.07564975 727.9895908 90.71974279 713 75 C712.16210938 74.09765625 711.32421875 73.1953125 710.4609375 72.265625 C690.37971097 51.2743731 662.55192151 33.64115289 632.8125 32.796875 C595.83983971 32.29527099 565.86398559 48.55968904 536.29345703 69.38525391 Z " fill="#FEFEFE" transform="translate(0,0)"/>
<path d="M0 0 C0.78503906 0.07089844 1.57007813 0.14179688 2.37890625 0.21484375 C3.16136719 0.26769531 3.94382812 0.32054687 4.75 0.375 C7.82707128 1.46651013 8.29760473 3.39092036 9.94140625 6.15234375 C14.73980665 9.32321653 20.21423474 12.23236216 26.00390625 12.83984375 C28.94140625 13.15234375 28.94140625 13.15234375 30.75390625 14.27734375 C31.94140625 16.15234375 31.94140625 16.15234375 32.62890625 19.08984375 C34.29663316 25.69008498 38.94088975 33.26800241 44.703125 36.88671875 C45.44175781 37.304375 46.18039062 37.72203125 46.94140625 38.15234375 C46.94140625 38.81234375 46.94140625 39.47234375 46.94140625 40.15234375 C47.73836914 39.70842285 48.53533203 39.26450195 49.35644531 38.80712891 C52.32302254 37.15523564 55.29002799 35.50411674 58.25732422 33.85351562 C59.53972251 33.13995697 60.82195103 32.42609312 62.10400391 31.71191406 C63.95039677 30.68343456 65.79740415 29.65606635 67.64453125 28.62890625 C69.30983887 27.70198975 69.30983887 27.70198975 71.00878906 26.75634766 C73.29989684 25.50321928 75.59444232 24.29586447 77.94140625 23.15234375 C80.53114566 29.68947383 82.4661954 36.3100393 84.31640625 43.08984375 C86.82271501 52.25370627 86.82271501 52.25370627 89.54296875 61.35546875 C89.78096191 62.1225415 90.01895508 62.88961426 90.26416016 63.67993164 C90.70100947 65.07315656 91.14788552 66.46329602 91.60693359 67.84936523 C92.90134313 72.0067232 93.23346573 74.97412543 91.94140625 79.15234375 C90.0078125 82.08984375 90.0078125 82.08984375 87.50390625 85.15234375 C86.59547609 86.28601686 85.68929997 87.42149912 84.78515625 88.55859375 C84.08326172 89.43644531 84.08326172 89.43644531 83.3671875 90.33203125 C80.98614676 93.37193532 78.74228627 96.50664804 76.50390625 99.65234375 C75.8852771 100.51472656 75.8852771 100.51472656 75.25415039 101.39453125 C70.05251582 108.70621227 67.80758773 113.08179558 68.94140625 122.15234375 C70.4826414 127.34795408 73.8314096 130.34994231 78.36914062 133.09570312 C83.64169447 135.26157376 89.31874407 134.93812571 94.94140625 134.96484375 C96.19308594 134.98998047 97.44476563 135.01511719 98.734375 135.04101562 C101.80370199 135.09959057 104.87161224 135.13608965 107.94140625 135.15234375 C108.57400949 136.79526965 109.19701174 138.44189266 109.81640625 140.08984375 C110.33847656 141.46462891 110.33847656 141.46462891 110.87109375 142.8671875 C112.17866046 146.8805583 113.02574189 151.03185414 113.94140625 155.15234375 C90.84140625 155.15234375 67.74140625 155.15234375 43.94140625 155.15234375 C45.92140625 150.86234375 47.90140625 146.57234375 49.94140625 142.15234375 C49.94140625 140.50234375 49.94140625 138.85234375 49.94140625 137.15234375 C48.04562114 137.13593171 48.04562114 137.13593171 45.94140625 138.15234375 C44.48587132 140.41256465 43.32838666 142.49175008 42.19140625 144.90234375 C41.87558594 145.52367187 41.55976563 146.145 41.234375 146.78515625 C39.4467065 150.45335914 38.82046552 153.11861474 38.94140625 157.15234375 C36.70769311 159.8966199 34.98114966 161.77600565 31.62109375 162.9921875 C28.21168818 164.46827125 25.9840306 166.5169702 23.25390625 169.02734375 C21.82498047 170.32285156 21.82498047 170.32285156 20.3671875 171.64453125 C18.22291776 173.86131253 17.228381 175.43735592 15.94140625 178.15234375 C12.67998522 180.32662444 12.02872179 180.34090581 8.31640625 180.15234375 C3.34606976 180.05031338 -1.34061074 180.50511692 -6.05859375 182.15234375 C-6.71859375 182.81234375 -7.37859375 183.47234375 -8.05859375 184.15234375 C-10.71396747 184.71754378 -13.35004088 184.89022573 -16.05859375 185.15234375 C-16.71859375 184.16234375 -17.37859375 183.17234375 -18.05859375 182.15234375 C-22.35056561 180.29533164 -26.56712837 179.6992226 -31.05859375 181.15234375 C-31.71859375 181.48234375 -32.37859375 181.81234375 -33.05859375 182.15234375 C-39.71114563 179.06365895 -39.71114563 179.06365895 -40.98046875 175.734375 C-42.96690731 170.9769986 -47.74452015 168.69159816 -52.05859375 166.15234375 C-53.15171875 165.80171875 -54.24484375 165.45109375 -55.37109375 165.08984375 C-59.37559114 163.69292606 -60.73046592 161.67981017 -63.05859375 158.15234375 C-62.76082031 157.28416016 -62.76082031 157.28416016 -62.45703125 156.3984375 C-61.80886642 152.74456716 -63.92728474 150.12539501 -65.74609375 147.08984375 C-66.09865234 146.46529297 -66.45121094 145.84074219 -66.81445312 145.19726562 C-68.85945719 141.69421479 -70.79587208 139.49191955 -74.05859375 137.15234375 C-75.30859375 133.46484375 -75.30859375 133.46484375 -76.05859375 130.15234375 C-75.72859375 129.82234375 -75.39859375 129.49234375 -75.05859375 129.15234375 C-74.66475301 123.11345245 -75.32970112 116.95846445 -77.05859375 111.15234375 C-78.04206816 110.13608686 -79.04125282 109.13469676 -80.05859375 108.15234375 C-80.86727971 105.41149536 -80.92061262 103.04994739 -81.05859375 100.15234375 C-80.06859375 99.16234375 -80.06859375 99.16234375 -79.05859375 98.15234375 C-78.76508979 96.03701166 -78.76508979 96.03701166 -78.828125 93.6171875 C-78.83005859 92.72580078 -78.83199219 91.83441406 -78.83398438 90.91601562 C-78.84623047 89.98337891 -78.85847656 89.05074219 -78.87109375 88.08984375 C-78.87206055 86.68508789 -78.87206055 86.68508789 -78.87304688 85.25195312 C-78.50089908 80.86797843 -78.50089908 80.86797843 -80.05859375 77.15234375 C-80.5260037 71.35646039 -80.5260037 71.35646039 -80.05859375 69.15234375 C-79.42824219 68.69214844 -78.79789062 68.23195313 -78.1484375 67.7578125 C-75.3210881 65.58577399 -75.08657092 63.77590959 -74.30859375 60.33984375 C-74.06625 59.32277344 -73.82390625 58.30570312 -73.57421875 57.2578125 C-72.85078824 52.90078781 -72.65530411 49.36221267 -74.05859375 45.15234375 C-71.87493178 39.52079445 -71.87493178 39.52079445 -69.171875 38.30078125 C-66.24355271 36.70941941 -65.1667189 34.66094393 -63.43359375 31.83984375 C-62.54800781 30.42251953 -62.54800781 30.42251953 -61.64453125 28.9765625 C-60.20162076 26.40704456 -59.08468555 23.90907886 -58.05859375 21.15234375 C-56.77233807 18.23683088 -55.61863356 16.09444292 -53.05859375 14.15234375 C-51.47745817 13.71500838 -49.89479171 13.28241657 -48.3046875 12.87890625 C-43.33342366 11.27081047 -38.49434929 8.90195247 -34.05859375 6.15234375 C-33.72859375 5.16234375 -33.39859375 4.17234375 -33.05859375 3.15234375 C-31.28125 2.38671875 -31.28125 2.38671875 -29.12109375 1.90234375 C-28.41082031 1.7321875 -27.70054687 1.56203125 -26.96875 1.38671875 C-25.05859375 1.15234375 -25.05859375 1.15234375 -23.05859375 2.15234375 C-19.89739577 2.38911525 -16.72769637 2.33752376 -13.55859375 2.33984375 C-12.23794922 2.35821289 -12.23794922 2.35821289 -10.890625 2.37695312 C-10.04886719 2.37888672 -9.20710938 2.38082031 -8.33984375 2.3828125 C-7.56705078 2.38692139 -6.79425781 2.39103027 -5.99804688 2.39526367 C-3.23397665 2.04905901 -2.8207483 0.20874608 0 0 Z " fill="#FDFDFE" transform="translate(380.05859375,246.84765625)"/>
<path d="M0 0 C3.01245835 10.29009593 5.95793037 20.58241714 8.5 31 C10.1455382 37.73462744 11.93737685 44.40608266 13.875 51.0625 C18.28709904 66.25049538 22.18134998 81.58141828 25.9621582 96.9375 C27.78997341 104.35877166 29.74314631 111.72245557 31.875 119.0625 C34.37814236 127.68452305 36.66618101 136.3477102 38.88867188 145.04589844 C40.96255028 153.11073228 43.11484544 161.15229259 45.30078125 169.1875 C45.7392614 170.79995857 45.7392614 170.79995857 46.18659973 172.44499207 C47.66823081 177.8894339 49.15430168 183.33263088 50.64477539 188.7746582 C51.19815159 190.80417954 51.7514586 192.83371975 52.3046875 194.86328125 C52.56167923 195.79660278 52.81867096 196.72992432 53.08345032 197.69152832 C53.32129745 198.56587524 53.55914459 199.44022217 53.80419922 200.34106445 C54.01180878 201.0990181 54.21941833 201.85697174 54.43331909 202.63789368 C55.09488597 205.39551493 55.53378622 208.20271732 56 211 C28.28 211 0.56 211 -28 211 C-28 204.4 -28 197.8 -28 191 C-26.35 190.9175 -24.7 190.835 -23 190.75 C-15.93146793 190.07680647 -11.21420664 188.54633764 -6.5 183.125 C-3.80096618 177.53327972 -4.19534654 171.00666748 -5 165 C-6.67534916 160.52993122 -9.08513428 158.54891943 -13.125 156.125 C-16.28990324 154.9759476 -19.39724661 154.7030482 -22.7421875 154.4296875 C-23.72815918 154.34702637 -24.71413086 154.26436523 -25.72998047 154.17919922 C-26.47908691 154.12006348 -27.22819336 154.06092773 -28 154 C-28.00142502 152.8504332 -28.00285004 151.70086639 -28.00431824 150.51646423 C-28.02100168 139.67265257 -28.06381672 128.82921552 -28.13209057 117.98560238 C-28.16635309 112.41100136 -28.19146946 106.83667419 -28.19555664 101.26196289 C-28.19984108 95.88006087 -28.2283166 90.49877654 -28.27343178 85.11706734 C-28.286402 83.06585859 -28.29071616 81.0145759 -28.28615379 78.96333122 C-28.28124453 76.08547489 -28.30735502 73.20942155 -28.34057617 70.33178711 C-28.32763771 69.06510948 -28.32763771 69.06510948 -28.31443787 67.77284241 C-28.42752404 61.91314601 -29.93661821 58.26480652 -34 54 C-41.06823052 48.82812401 -49.59655205 49.14807565 -58 50 C-68.53877088 53.27523728 -73.9240879 59.55736903 -79.984375 68.29296875 C-80.52126953 69.06406982 -81.05816406 69.8351709 -81.61132812 70.62963867 C-82.69555128 72.19798232 -83.76742823 73.77494015 -84.82617188 75.3605957 C-85.32181641 76.08722412 -85.81746094 76.81385254 -86.328125 77.5625 C-86.7705957 78.22378906 -87.21306641 78.88507813 -87.66894531 79.56640625 C-88.32781738 80.27603516 -88.32781738 80.27603516 -89 81 C-89.99 81 -90.98 81 -92 81 C-93.17101244 77.04293896 -94.33607272 73.08415032 -95.5 69.125 C-95.83386719 67.99707031 -96.16773438 66.86914062 -96.51171875 65.70703125 C-96.82753906 64.63066406 -97.14335937 63.55429688 -97.46875 62.4453125 C-97.76201172 61.45031738 -98.05527344 60.45532227 -98.35742188 59.43017578 C-99 57 -99 57 -99 55 C-97.1953125 53.96875 -97.1953125 53.96875 -95.390625 52.9375 C-94.58786133 52.47875488 -93.78509766 52.02000977 -92.95800781 51.54736328 C-91.11368646 50.49351287 -89.26928211 49.4398077 -87.42480469 48.38623047 C-82.03128278 45.30509953 -76.63943449 42.22108811 -71.25 39.1328125 C-58.91100696 32.06495767 -46.55296318 25.03541719 -34.13354492 18.109375 C-28.87483991 15.17578064 -23.62769201 12.22411627 -18.3984375 9.23828125 C-17.33471924 8.63201904 -16.27100098 8.02575684 -15.17504883 7.40112305 C-13.14160608 6.24077353 -11.11010196 5.07701826 -9.08081055 3.90942383 C-8.17886963 3.39532959 -7.27692871 2.88123535 -6.34765625 2.3515625 C-5.55367432 1.89604004 -4.75969238 1.44051758 -3.94165039 0.97119141 C-2 0 -2 0 0 0 Z " fill="#FDFDFE" transform="translate(599,191)"/>
<path d="M0 0 C2.57487407 1.89727563 3.82459683 2.94782863 5.375 5.75 C5.81194836 8.89955323 5.7535409 12.02530174 5.71557617 15.20019531 C5.71623329 16.63484634 5.71623329 16.63484634 5.71690369 18.09848022 C5.71481433 21.25856975 5.69147597 24.41812819 5.66796875 27.578125 C5.66237333 29.76958934 5.65810298 31.96105743 5.65510559 34.15252686 C5.64365263 39.91970179 5.61418135 45.68664998 5.58099365 51.45373535 C5.55030262 57.33891736 5.53660231 63.22413602 5.52148438 69.109375 C5.48931227 80.65634961 5.43811028 92.20315595 5.375 103.75 C7.12876953 103.69779297 7.12876953 103.69779297 8.91796875 103.64453125 C10.46613141 103.61638284 12.01430968 103.58908381 13.5625 103.5625 C14.33142578 103.53736328 15.10035156 103.51222656 15.89257812 103.48632812 C20.58964665 103.42585085 23.52798866 103.75534781 27.375 106.75 C30.27759491 109.76717103 30.82849824 111.9747183 30.875 116.125 C30.77814489 119.93803267 30.47446113 122.37280065 28.0625 125.375 C23.7893947 129.15123259 19.64296359 129.02185958 14.1875 129.3125 C13.43791016 129.35568359 12.68832031 129.39886719 11.91601562 129.44335938 C10.06921625 129.54922685 8.22213166 129.6500976 6.375 129.75 C6.36041748 130.90000488 6.34583496 132.05000977 6.33081055 133.23486328 C6.27266238 137.51788805 6.19543076 141.80039616 6.11254883 146.08300781 C6.07937704 147.93350819 6.05132113 149.78410786 6.02856445 151.63476562 C5.9948755 154.30121003 5.9425534 156.9667509 5.88671875 159.6328125 C5.88032883 160.45492218 5.8739389 161.27703186 5.86735535 162.12405396 C5.72215185 167.8484921 4.6258993 172.03016335 0.875 176.5625 C-2.60392803 179.31665136 -6.80380345 179.19898535 -11.046875 179.16796875 C-15.32852792 178.47382199 -17.95411891 176.05825045 -20.625 172.75 C-22.26778836 169.9164836 -22.87272881 167.89115207 -22.85205078 164.62402344 C-22.85189972 163.82349548 -22.85174866 163.02296753 -22.85159302 162.19818115 C-22.84127045 161.34387512 -22.83094788 160.48956909 -22.8203125 159.609375 C-22.8174826 158.72719299 -22.81465271 157.84501099 -22.81173706 156.93609619 C-22.80055961 154.12392501 -22.77545951 151.3120746 -22.75 148.5 C-22.73996705 146.59115044 -22.73084175 144.68229588 -22.72265625 142.7734375 C-22.70062824 138.09883511 -22.66611511 133.42447191 -22.625 128.75 C-23.55350266 128.75666183 -24.48200531 128.76332367 -25.43864441 128.77018738 C-34.19316514 128.83032336 -42.94761639 128.87598711 -51.70229626 128.90543652 C-56.20306911 128.92108579 -60.70367115 128.94231054 -65.2043457 128.97631836 C-69.54856862 129.00893821 -73.89262733 129.02685857 -78.23696327 129.03463173 C-79.89355364 129.04017053 -81.55013512 129.05098652 -83.2066555 129.06719017 C-85.52883632 129.0889997 -87.8503405 129.09196551 -90.17260742 129.09057617 C-90.85593643 129.101362 -91.53926544 129.11214783 -92.24330139 129.1232605 C-96.54819097 129.09543111 -99.18008841 128.33512174 -102.625 125.75 C-105.633056 122.22331365 -106.40406531 118.77678476 -106.2109375 114.23828125 C-105.10264637 109.53173826 -101.96667956 106.17587718 -98.98193359 102.47558594 C-96.28802623 99.04979658 -93.78774942 95.47952028 -91.25 91.9375 C-90.11754824 90.36822919 -88.98473789 88.7992171 -87.8515625 87.23046875 C-85.09854365 83.41132193 -82.35772776 79.58368283 -79.625 75.75 C-75.87292133 70.48638057 -72.09834079 65.23938832 -68.3125 60 C-67.76537354 59.24275635 -67.21824707 58.4855127 -66.65454102 57.70532227 C-63.88129293 53.86834037 -61.105812 50.03298829 -58.328125 46.19921875 C-53.48345526 39.5078936 -48.65179327 32.80988718 -43.90332031 26.04980469 C-41.93896125 23.25451546 -39.96504132 20.4660751 -37.98876953 17.67919922 C-37.10281253 16.4259174 -36.22074449 15.1698741 -35.34326172 13.91064453 C-26.55724745 1.32660092 -15.84047466 -5.46223264 0 0 Z " fill="#FDFDFD" transform="translate(248.625,247.25)"/>
<path d="M0 0 C3.2673972 2.42960305 6.04264473 4.61129691 6.79694366 8.81629372 C6.93014839 11.3143797 6.93206359 13.78304592 6.89160156 16.28442383 C6.89218567 17.23125031 6.89276978 18.17807678 6.89337158 19.15359497 C6.89059002 22.27594966 6.85949399 25.39734381 6.828125 28.51953125 C6.82066289 30.68714374 6.81496981 32.85476299 6.81097412 35.02238464 C6.79571559 40.72222583 6.75643143 46.42165807 6.7121582 52.12133789 C6.67121051 57.93955961 6.65296415 63.75784753 6.6328125 69.57617188 C6.58993776 80.98846073 6.52168341 92.40044634 6.4375 103.8125 C8.19126953 103.76029297 8.19126953 103.76029297 9.98046875 103.70703125 C11.52863141 103.67888284 13.07680968 103.65158381 14.625 103.625 C15.39392578 103.59986328 16.16285156 103.57472656 16.95507812 103.54882812 C21.62562274 103.48869236 24.65707455 103.75825797 28.4375 106.8125 C31.55069473 111.48229209 31.16560766 116.34808808 30.4375 121.8125 C28.810275 125.04275335 26.71572678 127.17338661 23.4375 128.8125 C20.55379667 128.88444869 17.69510336 128.90541708 14.8125 128.875 C13.60980469 128.86823242 13.60980469 128.86823242 12.3828125 128.86132812 C10.40100994 128.84953168 8.41924567 128.83159605 6.4375 128.8125 C6.45321045 129.99279785 6.4689209 131.1730957 6.48510742 132.38916016 C6.53955894 136.78362152 6.57390538 141.17805326 6.60229492 145.57275391 C6.61734691 147.47189353 6.63779316 149.37099859 6.66381836 151.27001953 C6.70035992 154.00562081 6.71726238 156.740761 6.73046875 159.4765625 C6.75369453 160.74253769 6.75369453 160.74253769 6.77738953 162.03408813 C6.778811 167.05506554 6.21735958 170.45936172 3.4375 174.8125 C-0.23590751 178.30223714 -3.19478226 179.11343333 -8.125 179.3125 C-11.74149339 179.1700023 -13.40130969 178.90131915 -16.625 177.125 C-21.00024843 171.90292929 -20.83492651 166.86234918 -20.7578125 160.35546875 C-20.7549826 159.45250565 -20.75215271 158.54954254 -20.74923706 157.61921692 C-20.73807607 154.74600766 -20.71297897 151.87311445 -20.6875 149 C-20.67746493 147.04753056 -20.66834 145.09505621 -20.66015625 143.14257812 C-20.63815008 138.36576434 -20.60364831 133.58918569 -20.5625 128.8125 C-21.9740461 128.82249275 -21.9740461 128.82249275 -23.41410828 128.83268738 C-32.28634842 128.89352632 -41.1585462 128.93848599 -50.03094769 128.96793652 C-54.5922535 128.98358639 -59.15339078 129.00481226 -63.71459961 129.03881836 C-68.11717699 129.07143603 -72.51959237 129.08935812 -76.92228127 129.09713173 C-78.60119998 129.10267092 -80.28010991 129.11348765 -81.95895958 129.12969017 C-84.31227085 129.15149677 -86.66491435 129.15446562 -89.01831055 129.15307617 C-89.7109903 129.163862 -90.40367004 129.17464783 -91.11734009 129.1857605 C-95.4459681 129.15814194 -98.09999729 128.41778273 -101.5625 125.8125 C-104.53477126 122.32776818 -105.3959652 118.86792944 -105.21875 114.37109375 C-103.91303204 109.28034812 -100.22851183 105.56636081 -96.95703125 101.57128906 C-94.42856222 98.3823726 -92.13615072 95.02691258 -89.8125 91.6875 C-84.02293103 83.43507265 -78.13127723 75.25936985 -72.21679688 67.09619141 C-64.3637813 56.255414 -56.53304315 45.39928752 -48.76416016 34.49804688 C-47.5351067 32.77407591 -46.30487709 31.05095064 -45.07421875 29.328125 C-44.65986572 28.74764404 -44.2455127 28.16716309 -43.81860352 27.5690918 C-42.98630594 26.40516934 -42.15217948 25.24255234 -41.31616211 24.08129883 C-39.16104852 21.08238415 -37.04866153 18.06365452 -34.9921875 14.99609375 C-26.43728095 2.36804235 -15.97356053 -5.32452018 0 0 Z " fill="#FDFDFD" transform="translate(558.5625,247.1875)"/>
<path d="M0 0 C2.40161133 1.15771484 2.40161133 1.15771484 4.01538086 4.49072266 C4.50556107 6.03776145 4.96500253 7.59471183 5.40161133 9.15771484 C5.65166931 10.02601929 5.90172729 10.89432373 6.15936279 11.78894043 C6.99853377 14.7947845 7.79415313 17.80971471 8.58129883 20.82958984 C8.87594025 21.94722717 9.17058167 23.0648645 9.47415161 24.21636963 C10.09628144 26.57928299 10.71643054 28.94271864 11.3347168 31.30664062 C12.26302194 34.85575958 13.19696052 38.40335472 14.13208008 41.95068359 C17.07794385 53.14818201 19.99599241 64.35082652 22.74484253 75.59857178 C24.07297804 80.99545642 25.57654903 86.32799494 27.15161133 91.65771484 C30.00604571 101.42592192 32.46389016 111.27938745 34.90161133 121.15771484 C37.521682 131.77480308 40.21219456 142.34178417 43.30395508 152.83349609 C45.17745605 159.23462441 46.81294814 165.68046265 48.40161133 172.15771484 C50.29904526 179.89082878 52.31385954 187.57113583 54.52661133 195.22021484 C54.77419189 196.07800537 55.02177246 196.9357959 55.27685547 197.81958008 C56.20557294 201.03174399 57.13627646 204.24333007 58.06811523 207.45458984 C58.66862323 209.54041899 59.25583998 211.62951111 59.83911133 213.72021484 C60.33217773 215.45464844 60.33217773 215.45464844 60.83520508 217.22412109 C61.38106024 220.05127436 61.45235974 221.5153002 60.40161133 224.15771484 C58.5792247 225.98010147 56.0540505 225.27769181 53.62913513 225.28213501 C52.80051468 225.27853973 51.97189423 225.27494446 51.11816406 225.27124023 C49.81584335 225.27145927 49.81584335 225.27145927 48.48721313 225.27168274 C45.60318547 225.2709833 42.71922153 225.26318947 39.83520508 225.25537109 C37.84123266 225.25350702 35.84725978 225.25208307 33.85328674 225.25108337 C28.59415431 225.24725732 23.3350493 225.2374263 18.07592773 225.22637939 C12.71378958 225.21616715 7.35164702 225.21158616 1.98950195 225.20654297 C-8.539807 225.19580411 -19.06909556 225.17872664 -29.59838867 225.15771484 C-29.5899292 226.26236084 -29.58146973 227.36700684 -29.57275391 228.50512695 C-29.61090593 233.94124574 -30.55259399 238.78358275 -34.18041992 242.99365234 C-40.24916246 248.41453348 -45.66564417 249.62235125 -53.71948242 249.47412109 C-58.8899444 248.90586137 -61.44464482 246.40760401 -64.84838867 242.72021484 C-69.21203218 236.330594 -68.59838867 233.829319 -68.59838867 225.15771484 C-106.21838867 225.15771484 -143.83838867 225.15771484 -182.59838867 225.15771484 C-182.59838867 223.83771484 -182.59838867 222.51771484 -182.59838867 221.15771484 C-182.7144043 220.03623047 -182.7144043 220.03623047 -182.83276367 218.89208984 C-182.48946942 214.88699026 -180.74728841 211.90249841 -178.84838867 208.40771484 C-178.5003418 207.72322266 -178.15229492 207.03873047 -177.79370117 206.33349609 C-175.1313832 201.35397544 -175.1313832 201.35397544 -172.52709961 200.39501953 C-171.890625 200.31670898 -171.25415039 200.23839844 -170.59838867 200.15771484 C-170.26838867 200.48771484 -169.93838867 200.81771484 -169.59838867 201.15771484 C-169.89770494 208.19164711 -172.13303823 211.22701397 -175.59838867 218.15771484 C-153.15838867 218.15771484 -130.71838867 218.15771484 -107.59838867 218.15771484 C-109.24838867 212.54771484 -110.89838867 206.93771484 -112.59838867 201.15771484 C-112.59838867 200.49771484 -112.59838867 199.83771484 -112.59838867 199.15771484 C-113.3744043 199.18389893 -114.15041992 199.21008301 -114.94995117 199.23706055 C-118.49922067 199.34162211 -122.04816519 199.40623038 -125.59838867 199.47021484 C-127.42950195 199.53305664 -127.42950195 199.53305664 -129.29760742 199.59716797 C-136.72860993 199.69758692 -141.93501031 199.22767246 -147.59838867 194.15771484 C-151.4830132 189.97427305 -152.7700753 186.6872902 -153.03588867 181.03271484 C-153.09647461 180.14326172 -153.15706055 179.25380859 -153.21948242 178.33740234 C-152.26984455 173.47573427 -149.48612783 170.10875776 -146.59838867 166.15771484 C-146.05996338 165.40055176 -145.52153809 164.64338867 -144.96679688 163.86328125 C-143.33662212 161.57637544 -141.68900874 159.30307762 -140.03588867 157.03271484 C-138.39765804 154.77559709 -136.75977719 152.51872302 -135.13696289 150.25048828 C-134.14551194 148.90191361 -133.11765124 147.57901297 -132.0480957 146.29150391 C-129.7701976 143.47184819 -128.60692365 141.72315726 -128.55151367 138.05224609 C-128.86151086 136.74421804 -129.2181437 135.44707492 -129.59838867 134.15771484 C-129.85297852 133.20558105 -130.10756836 132.25344727 -130.36987305 131.27246094 C-131.32424122 127.78466967 -132.3312446 124.31519814 -133.34838867 120.84521484 C-134.07286897 118.34406389 -134.79682658 115.84276148 -135.52026367 113.34130859 C-135.87411133 112.12169434 -136.22795898 110.90208008 -136.5925293 109.64550781 C-137.95878547 104.90804771 -139.28590262 100.16031147 -140.59838867 95.40771484 C-140.80560547 94.6583667 -141.01282227 93.90901855 -141.22631836 93.13696289 C-141.68463151 91.47747737 -142.14168833 89.81764494 -142.59838867 88.15771484 C-150.89241878 92.52543938 -159.134177 96.94603018 -167.2043457 101.71826172 C-171.38503826 104.15771484 -171.38503826 104.15771484 -173.59838867 104.15771484 C-173.92838867 103.49771484 -174.25838867 102.83771484 -174.59838867 102.15771484 C-175.7353418 101.53703125 -175.7353418 101.53703125 -176.89526367 100.90380859 C-180.19690167 98.77110312 -181.71849679 96.50854029 -183.84838867 93.22021484 C-184.53416992 92.17994141 -185.21995117 91.13966797 -185.92651367 90.06787109 C-187.31963966 87.64292049 -188.15204278 85.88173754 -188.59838867 83.15771484 C-186.12338867 82.66271484 -186.12338867 82.66271484 -183.59838867 82.15771484 C-182.6985693 83.1750364 -181.80381402 84.19683692 -180.91088867 85.22021484 C-180.41202148 85.78869141 -179.9131543 86.35716797 -179.39916992 86.94287109 C-176.98242883 89.91530537 -174.80512843 93.02617444 -172.59838867 96.15771484 C-162.97726712 91.21643231 -153.54459055 86.02001716 -144.22338867 80.53271484 C-134.38534403 74.74201196 -124.45221424 69.14729249 -114.46069336 63.6262207 C-106.75211384 59.36367979 -99.08754631 55.03243005 -91.44921875 50.64550781 C-84.69155246 46.76935864 -77.90001474 42.95612636 -71.09838867 39.15771484 C-62.56247465 34.39017073 -54.05552701 29.57645387 -45.57568359 24.70996094 C-37.51851874 20.09378884 -29.41389172 15.56355594 -21.29760742 11.05224609 C-19.81647461 10.22660156 -19.81647461 10.22660156 -18.30541992 9.38427734 C-17.34974121 8.85350586 -16.3940625 8.32273438 -15.40942383 7.77587891 C-11.80361339 5.7002048 -8.32102227 3.44627752 -4.85888672 1.13964844 C-2.59838867 0.15771484 -2.59838867 0.15771484 0 0 Z M-9.39916992 11.23583984 C-9.98265198 11.55816589 -10.56613403 11.88049194 -11.16729736 12.21258545 C-13.08427312 13.27328377 -14.99765316 14.34028685 -16.91088867 15.40771484 C-18.24338201 16.14749198 -19.57598376 16.88707387 -20.90869141 17.62646484 C-30.90551334 23.18083674 -40.85054766 28.82298644 -50.76196289 34.52832031 C-53.98662926 36.38074098 -57.21583999 38.22513359 -60.44604492 40.06787109 C-73.85659362 47.71908033 -87.24992881 55.39851157 -100.59838867 63.15771484 C-98.46440969 71.88861364 -96.31820423 80.5861749 -93.59838867 89.15771484 C-92.60838867 89.15771484 -91.61838867 89.15771484 -90.59838867 89.15771484 C-89.06223396 87.58696031 -89.06223396 87.58696031 -87.67260742 85.46630859 C-87.12282227 84.68578125 -86.57303711 83.90525391 -86.0065918 83.10107422 C-85.43875977 82.27414062 -84.87092773 81.44720703 -84.28588867 80.59521484 C-71.29523156 61.9145596 -71.29523156 61.9145596 -59.59838867 58.15771484 C-51.94025248 57.21398493 -44.27389194 56.94924539 -37.59838867 61.15771484 C-33.48081706 64.8177785 -30.72411286 67.40083477 -30.31991577 73.04911804 C-30.29633003 74.7110993 -30.28372174 76.37325705 -30.27954102 78.03540039 C-30.26949539 78.94292053 -30.25944977 79.85044067 -30.24909973 80.78546143 C-30.21818165 83.78844564 -30.20120861 86.79134035 -30.18432617 89.79443359 C-30.16562147 91.87523676 -30.14604858 93.95603229 -30.12564087 96.03681946 C-30.07424002 101.51615909 -30.03465686 106.99552333 -29.99749756 112.47497559 C-29.95750774 118.06524789 -29.90639252 123.6554171 -29.85620117 129.24560547 C-29.75934772 140.21623626 -29.67497309 151.18692515 -29.59838867 162.15771484 C-28.85580811 162.21032471 -28.11322754 162.26293457 -27.34814453 162.31713867 C-26.36724854 162.39472412 -25.38635254 162.47230957 -24.37573242 162.55224609 C-23.40627686 162.62548096 -22.43682129 162.69871582 -21.43798828 162.77416992 C-15.8873793 163.52389107 -12.11358729 165.71827616 -8.09838867 169.53271484 C-5.50193522 175.80747735 -5.45740909 182.91469701 -7.22338867 189.48193359 C-9.19950707 193.54885584 -12.22836473 195.67787438 -16.22729492 197.44677734 C-20.63617744 198.76871576 -25.01421048 198.92850593 -29.59838867 199.15771484 C-29.59838867 205.75771484 -29.59838867 212.35771484 -29.59838867 219.15771484 C-1.87838867 219.15771484 25.84161133 219.15771484 54.40161133 219.15771484 C50.59116353 202.98192999 50.59116353 202.98192999 46.46411133 186.89599609 C46.21669189 185.96957809 45.96927246 185.0431601 45.71435547 184.08866882 C45.20160945 182.17081628 44.68754633 180.25331535 44.17211914 178.33618164 C43.39932629 175.46171547 42.63058408 172.58618986 41.86254883 169.71044922 C39.53856309 161.02339342 37.1863919 152.34545978 34.76489258 143.68505859 C32.6036198 135.95149473 30.57173596 128.18912828 28.58911133 120.40771484 C25.55276357 108.5511139 22.43728854 96.71813949 19.26831055 84.89624023 C17.21268126 77.22192478 15.1991515 69.5380527 13.21411133 61.84521484 C11.38487159 54.76587476 9.42577159 47.74676708 7.30419922 40.75 C5.06187794 33.23582864 3.22212882 25.61941439 1.3684082 18.00170898 C1.12670898 17.01291748 0.88500977 16.02412598 0.63598633 15.00537109 C0.42167969 14.11857666 0.20737305 13.23178223 -0.01342773 12.31811523 C-0.52896451 10.13164017 -0.52896451 10.13164017 -1.59838867 8.15771484 C-4.6838373 8.15771484 -6.71624772 9.7477274 -9.39916992 11.23583984 Z M-71.59838867 72.15771484 C-73.58945445 74.60389144 -75.47467509 77.12095274 -77.34838867 79.65771484 C-78.13826172 80.71937866 -78.13826172 80.71937866 -78.9440918 81.80249023 C-83.22546916 87.58664146 -87.33259342 93.47513833 -91.3972168 99.41357422 C-100.45984355 112.57280299 -109.8683155 125.49159013 -119.24389648 138.42822266 C-120.88371821 140.69162484 -122.52263809 142.95567523 -124.16088867 145.22021484 C-124.69311035 145.95578613 -125.22533203 146.69135742 -125.77368164 147.44921875 C-130.11401392 153.46022925 -134.39532896 159.51179376 -138.64160156 165.58959961 C-139.33370728 166.57657837 -139.33370728 166.57657837 -140.03979492 167.58349609 C-140.69057007 168.51186279 -140.69057007 168.51186279 -141.35449219 169.45898438 C-142.46833122 170.98010154 -143.68427941 172.4251988 -144.91088867 173.85693359 C-147.59293714 177.51370802 -147.24737476 180.80475939 -146.59838867 185.15771484 C-144.83536921 189.42607776 -142.70686887 191.16189409 -138.59838867 193.15771484 C-135.99838569 193.42674659 -133.64761903 193.53867357 -131.05419922 193.49829102 C-130.31219772 193.4987291 -129.57019623 193.49916718 -128.80570984 193.49961853 C-126.36523674 193.49753675 -123.92545977 193.47423535 -121.48510742 193.45068359 C-119.78831864 193.44508545 -118.09152499 193.44081638 -116.39472961 193.43782043 C-111.93780024 193.42638884 -107.48116609 193.39693628 -103.02435303 193.3637085 C-98.47290032 193.3329712 -93.92139972 193.31930729 -89.36987305 193.30419922 C-80.44591551 193.27206487 -71.52217668 193.22088898 -62.59838867 193.15771484 C-62.61409912 194.36830566 -62.62980957 195.57889648 -62.64599609 196.82617188 C-62.70043836 201.33245142 -62.73479075 205.83870208 -62.76318359 210.34521484 C-62.77823767 212.29285578 -62.79868547 214.240463 -62.82470703 216.18798828 C-62.8612392 218.99308612 -62.878149 221.79773438 -62.89135742 224.60302734 C-62.90684128 225.46888458 -62.92232513 226.33474182 -62.9382782 227.22683716 C-62.93968118 232.30643172 -62.39790124 235.74430018 -59.59838867 240.15771484 C-56.6205574 243.12926377 -54.37743642 243.58939685 -50.22338867 243.59521484 C-45.24638785 243.44258682 -42.31029813 242.68402883 -38.59838867 239.15771484 C-35.29828353 233.98989481 -35.19676659 229.74417899 -35.30541992 223.82177734 C-35.30966476 222.94242523 -35.31390961 222.06307312 -35.31828308 221.15707397 C-35.33499406 218.36530142 -35.37263175 215.57426697 -35.41088867 212.78271484 C-35.42594533 210.88298573 -35.43963202 208.98324523 -35.4519043 207.08349609 C-35.48487269 202.44128726 -35.53660214 197.79962594 -35.59838867 193.15771484 C-34.44081055 193.21572266 -33.28323242 193.27373047 -32.09057617 193.33349609 C-30.55155419 193.3804175 -29.01248834 193.4259151 -27.47338867 193.47021484 C-26.7128418 193.51210938 -25.95229492 193.55400391 -25.16870117 193.59716797 C-21.00244918 193.68695788 -18.40349643 193.44654731 -15.10620117 190.76318359 C-10.91246629 186.40614127 -11.21080611 182.96867947 -11.23901367 177.08740234 C-11.38512549 173.89461955 -11.38512549 173.89461955 -13.97338867 170.97021484 C-18.46306228 167.87020212 -21.90327078 168.03907724 -27.22338867 168.09521484 C-28.02518555 168.09972656 -28.82698242 168.10423828 -29.65307617 168.10888672 C-31.63487873 168.12068316 -33.61664301 168.13861879 -35.59838867 168.15771484 C-35.58728561 166.95581512 -35.57618256 165.75391541 -35.56474304 164.51559448 C-35.46336305 153.18611566 -35.38842111 141.85672893 -35.33932781 130.52689934 C-35.31323979 124.70214806 -35.27785533 118.87776311 -35.22119141 113.05322266 C-35.16684467 107.43165616 -35.13696215 101.8104419 -35.12400246 96.18863297 C-35.11476747 94.0443988 -35.09673353 91.90018381 -35.06973839 89.7560997 C-35.03341349 86.75136484 -35.02844487 83.74808335 -35.03076172 80.74316406 C-35.01278534 79.85771408 -34.99480896 78.9722641 -34.97628784 78.0599823 C-35.0117698 73.80409723 -35.26141147 71.02370125 -37.98274231 67.64309692 C-43.26775258 62.62129045 -48.3430157 62.72224242 -55.36791992 62.84130859 C-62.63117266 63.55270336 -66.71803476 66.93804638 -71.59838867 72.15771484 Z " fill="#425E91" transform="translate(600.598388671875,182.84228515625)"/>
<path d="M0 0 C0.73283203 -0.01224609 1.46566406 -0.02449219 2.22070312 -0.03710938 C4.12776507 -0.04236299 6.03434886 0.06531728 7.9375 0.1875 C9.9375 2.1875 9.9375 2.1875 9.9375 5.1875 C10.72125 5.496875 11.505 5.80625 12.3125 6.125 C14.9375 7.1875 14.9375 7.1875 16.9375 8.1875 C16.9375 8.8475 16.9375 9.5075 16.9375 10.1875 C18.5875 9.8575 20.2375 9.5275 21.9375 9.1875 C23.0629191 10.79137267 24.18781972 12.39560916 25.3125 14 C25.93898438 14.89332031 26.56546875 15.78664063 27.2109375 16.70703125 C31.48077499 22.84130005 31.48077499 22.84130005 30.9375 27.1875 C29.4375 29 29.4375 29 27.9375 30.1875 C28.9275 31.6725 28.9275 31.6725 29.9375 33.1875 C29.9375 34.5075 29.9375 35.8275 29.9375 37.1875 C31.5875 37.5175 33.2375 37.8475 34.9375 38.1875 C35.61775637 40.18291868 36.28240497 42.18367991 36.9375 44.1875 C37.246875 45.115625 37.246875 45.115625 37.5625 46.0625 C38.17603139 49.5391779 38.16227698 52.64726262 37.9375 56.1875 C36.9581121 57.20769573 35.95854551 58.20899805 34.9375 59.1875 C34.4375 62.6875 34.4375 62.6875 34.9375 66.1875 C35.4428125 66.60257812 35.948125 67.01765625 36.46875 67.4453125 C38.86181567 70.28389572 38.08752701 72.97304491 37.8125 76.5625 C37.72742188 77.86960937 37.64234375 79.17671875 37.5546875 80.5234375 C36.94196873 84.16097043 36.18639016 86.28967636 33.9375 89.1875 C33.2775 89.1875 32.6175 89.1875 31.9375 89.1875 C31.57197197 90.60127782 31.22054505 92.01870576 30.875 93.4375 C30.67777344 94.22640625 30.48054688 95.0153125 30.27734375 95.828125 C29.75947712 98.15670191 29.75947712 98.15670191 30.61328125 100.16796875 C30.9375 102.1875 30.9375 102.1875 29.390625 104.66015625 C28.66359375 105.51480469 27.9365625 106.36945313 27.1875 107.25 C26.47078125 108.10722656 25.7540625 108.96445312 25.015625 109.84765625 C24.32984375 110.61980469 23.6440625 111.39195312 22.9375 112.1875 C22.40253906 112.79335938 21.86757813 113.39921875 21.31640625 114.0234375 C20.86136719 114.40757812 20.40632813 114.79171875 19.9375 115.1875 C18.26745171 114.87154492 16.60112417 114.53570041 14.9375 114.1875 C11.69029778 114.74163092 11.69029778 114.74163092 8.9375 116.1875 C8.12303891 118.19322641 8.12303891 118.19322641 7.9375 120.1875 C4.25027856 122.03111072 -0.0373074 121.67837715 -4.0625 121.1875 C-6.375 119.3125 -6.375 119.3125 -8.0625 117.1875 C-10.44369246 115.78492124 -10.44369246 115.78492124 -13.0625 115.1875 C-13.83207031 115.43371094 -14.60164063 115.67992187 -15.39453125 115.93359375 C-18.0625 116.1875 -18.0625 116.1875 -20.703125 114.2734375 C-21.56421875 113.37882812 -22.4253125 112.48421875 -23.3125 111.5625 C-24.18390625 110.68335938 -25.0553125 109.80421875 -25.953125 108.8984375 C-28.09528857 106.14536062 -28.85088476 104.6321258 -29.0625 101.1875 C-28.5675 100.1975 -28.5675 100.1975 -28.0625 99.1875 C-28.7225 98.1975 -29.3825 97.2075 -30.0625 96.1875 C-30.1875 93.5 -30.1875 93.5 -30.0625 91.1875 C-30.84625 91.125625 -31.63 91.06375 -32.4375 91 C-35.0625 90.1875 -35.0625 90.1875 -36.3125 88 C-37.82970973 82.31046351 -38.35582945 77.05408896 -38.0625 71.1875 C-37.0725 70.1975 -37.0725 70.1975 -36.0625 69.1875 C-35.60438325 67.21514667 -35.60438325 67.21514667 -35.4375 65.0625 C-35.31375 63.78375 -35.19 62.505 -35.0625 61.1875 C-36.0525 60.8575 -37.0425 60.5275 -38.0625 60.1875 C-39.64727083 57.01795833 -38.97152946 53.70039714 -38.75 50.25 C-38.71455078 49.52103516 -38.67910156 48.79207031 -38.64257812 48.04101562 C-38.41361939 44.31274734 -38.17421227 42.35506841 -36.0625 39.1875 C-35.0725 39.1875 -34.0825 39.1875 -33.0625 39.1875 C-32.86837819 37.70918779 -32.68237869 36.22980684 -32.5 34.75 C-32.39558594 33.92628906 -32.29117187 33.10257812 -32.18359375 32.25390625 C-32.14363281 31.57199219 -32.10367187 30.89007813 -32.0625 30.1875 C-32.3925 29.8575 -32.7225 29.5275 -33.0625 29.1875 C-33.0625 22.10170741 -29.58806443 16.48551699 -25.0625 11.1875 C-21.02042463 8.47693181 -16.74909957 7.30889854 -12.0625 6.1875 C-11.7325 4.5375 -11.4025 2.8875 -11.0625 1.1875 C-7.34504693 -0.05165102 -3.87126619 0.00342287 0 0 Z " fill="#E7F0FC" transform="translate(368.0625,277.8125)"/>
<path d="M0 0 C1.41484771 2.6522839 2.39010351 5.1039418 3.078125 8.02734375 C3.35970459 9.19656372 3.35970459 9.19656372 3.64697266 10.3894043 C3.84597168 11.23027588 4.0449707 12.07114746 4.25 12.9375 C5.90406461 19.73259275 7.66259057 26.47512824 9.625 33.1875 C12.56565926 43.29746834 15.31941466 53.456747 18.05511475 63.62368774 C18.55768318 65.49081312 19.06129485 67.35765803 19.565979 69.22421265 C20.28269788 71.87653408 20.99544236 74.52989198 21.70703125 77.18359375 C21.92344772 77.98283264 22.1398642 78.78207153 22.36283875 79.60552979 C22.56383682 80.35888611 22.7648349 81.11224243 22.97192383 81.88842773 C23.23456779 82.86597267 23.23456779 82.86597267 23.5025177 83.86326599 C24.1278721 86.5492229 24.54662131 89.27972788 25 92 C-2.72 92 -30.44 92 -59 92 C-59 85.4 -59 78.8 -59 72 C-57.35 71.9175 -55.7 71.835 -54 71.75 C-46.93146793 71.07680647 -42.21420664 69.54633764 -37.5 64.125 C-34.80096618 58.53327972 -35.19534654 52.00666748 -36 46 C-37.43060591 42.18294086 -39.3586051 39.93600205 -42.890625 37.921875 C-44.99083563 36.94486865 -44.99083563 36.94486865 -48 36 C-48 35.67 -48 35.34 -48 35 C-51.3 34.67 -54.6 34.34 -58 34 C-58 27.07 -58 20.14 -58 13 C-7.29494382 2 -7.29494382 2 0 2 C0 1.34 0 0.68 0 0 Z " fill="#D1E2F5" transform="translate(630,310)"/>
<path d="M0 0 C2 1 2 1 2.75854492 3.13525391 C3.11589722 4.54170166 3.11589722 4.54170166 3.48046875 5.9765625 C3.75439453 7.0294043 4.02832031 8.08224609 4.31054688 9.16699219 C4.59994141 10.30813477 4.88933594 11.44927734 5.1875 12.625 C7.80513757 22.7284084 10.65313168 32.70879434 13.95385742 42.61181641 C16.69713404 51.19030838 16.69713404 51.19030838 15 56 C13.06640625 58.9375 13.06640625 58.9375 10.5625 62 C9.65406984 63.13367311 8.74789372 64.26915537 7.84375 65.40625 C7.37582031 65.99148438 6.90789062 66.57671875 6.42578125 67.1796875 C4.04474051 70.21959157 1.80088002 73.35430429 -0.4375 76.5 C-0.84991943 77.07492187 -1.26233887 77.64984375 -1.68725586 78.2421875 C-6.88889043 85.55386852 -9.13381852 89.92945183 -8 99 C-6.45876485 104.19561033 -3.10999665 107.19759856 1.42773438 109.94335938 C6.70028822 112.10923001 12.37733782 111.78578196 18 111.8125 C19.87751953 111.85020508 19.87751953 111.85020508 21.79296875 111.88867188 C24.86229574 111.94724682 27.93020599 111.9837459 31 112 C31.63260324 113.6429259 32.25560549 115.28954891 32.875 116.9375 C33.22304688 117.85402344 33.57109375 118.77054687 33.9296875 119.71484375 C35.23725421 123.72821455 36.08433564 127.87951039 37 132 C13.9 132 -9.2 132 -33 132 C-31.02 127.71 -29.04 123.42 -27 119 C-26.73647686 114.26352314 -26.73647686 114.26352314 -28 111 C-27.0625 107.8125 -27.0625 107.8125 -26 105 C-26.33 104.67 -26.66 104.34 -27 104 C-27.54796224 96.87649092 -26.40214048 89.73192455 -24 83 C-22.515 82.505 -22.515 82.505 -21 82 C-20.7496423 78.62535976 -20.7496423 78.62535976 -21 75 C-21.73597412 74.27103516 -21.73597412 74.27103516 -22.48681641 73.52734375 C-24.4256396 71.57037733 -24.38567115 70.58876103 -24.3984375 67.875 C-24.40230469 67.08609375 -24.40617187 66.2971875 -24.41015625 65.484375 C-24.39855469 64.66453125 -24.38695312 63.8446875 -24.375 63 C-24.38660156 62.18015625 -24.39820313 61.3603125 -24.41015625 60.515625 C-24.40628906 59.72671875 -24.40242188 58.9378125 -24.3984375 58.125 C-24.39505371 57.40570313 -24.39166992 56.68640625 -24.38818359 55.9453125 C-23.8967588 53.48262525 -22.76911919 52.71451312 -21 51 C-20.93051435 47.99706929 -20.93051435 47.99706929 -22 45 C-22.63164062 44.42121094 -23.26328125 43.84242188 -23.9140625 43.24609375 C-26.60199044 40.35178932 -27.27211701 37.79197507 -28.3125 34 C-28.65925781 32.783125 -29.00601562 31.56625 -29.36328125 30.3125 C-29.96010649 27.20754416 -29.99925834 25.88817895 -29 23 C-28.84188612 19.94729537 -28.84188612 19.94729537 -30 17 C-29.19780029 16.5560791 -28.39560059 16.1121582 -27.5690918 15.65478516 C-24.58853943 14.00460902 -21.60863125 12.35328132 -18.62915039 10.70117188 C-17.34034381 9.98684276 -16.05128338 9.27297143 -14.76196289 8.55957031 C-12.9070423 7.53310944 -11.05304567 6.50499696 -9.19921875 5.4765625 C-7.52605591 4.549646 -7.52605591 4.549646 -5.8190918 3.60400391 C-3.83603204 2.47568464 -1.89839352 1.26559568 0 0 Z " fill="#E7EFFB" transform="translate(457,270)"/>
<path d="M0 0 C4.03529868 3.61720054 7.33830239 6.95894778 7.84178162 12.53063965 C7.86180593 14.19941662 7.84405703 15.86894295 7.79467773 17.53710938 C7.79569992 18.45511322 7.79672211 19.37311707 7.79777527 20.31893921 C7.79293025 23.32842198 7.73863696 26.33480289 7.68359375 29.34375 C7.67052654 31.43980248 7.66056768 33.53587644 7.65357971 35.63195801 C7.62694278 41.12996176 7.55825712 46.62665646 7.48065186 52.12414551 C7.40884883 57.74143773 7.37703175 63.35894295 7.34179688 68.9765625 C7.26688267 79.98494793 7.14752097 90.99236481 7 102 C8.12474731 101.98151001 8.12474731 101.98151001 9.2722168 101.96264648 C10.25875244 101.95305908 11.24528809 101.94347168 12.26171875 101.93359375 C13.72677856 101.91510376 13.72677856 101.91510376 15.22143555 101.89624023 C19.92767983 102.07198523 23.31190872 103.3808104 26.72265625 106.65234375 C31.25330788 111.7185334 32.35429796 115.59727118 32.28515625 122.36328125 C31.72446087 127.54779328 29.30077153 131.35235606 26.125 135.375 C21.71958553 138.74384636 17.68522148 139.09476915 12.28515625 139.046875 C11.29523682 139.04010742 10.30531738 139.03333984 9.28540039 139.02636719 C8.1541272 139.01331543 8.1541272 139.01331543 7 139 C7.01571045 140.02359619 7.0314209 141.04719238 7.04760742 142.10180664 C7.10218684 145.92415399 7.13645119 149.74646734 7.16479492 153.5690918 C7.17981806 155.21889044 7.2002426 156.86864958 7.22631836 158.51831055 C7.26298899 160.89902536 7.27979103 163.27920908 7.29296875 165.66015625 C7.30845261 166.38960953 7.32393646 167.11906281 7.33988953 167.87062073 C7.34176587 173.66874354 6.06848605 178.14351927 2.60546875 182.92578125 C-2.31832558 187.7410622 -6.55231187 189.07400817 -13.4375 189.375 C-19.99080336 189.24144083 -23.57160394 187.42839606 -28.25 182.75 C-33.90760783 173.85947341 -33.35887089 165.14213891 -33.1875 155 C-33.17242973 153.44662752 -33.15874546 151.89324094 -33.14648438 150.33984375 C-33.11365497 146.55954385 -33.06200254 142.77992937 -33 139 C-33.85920044 139.01110306 -34.71840088 139.02220612 -35.6036377 139.03364563 C-43.72436955 139.13407835 -51.84489103 139.21008166 -59.9661026 139.25906086 C-64.1407585 139.28508888 -68.31489867 139.32036077 -72.48925781 139.37719727 C-76.52230352 139.43176232 -80.55485506 139.46147159 -84.58824158 139.47438622 C-86.12238844 139.48358248 -87.65651006 139.50154075 -89.19044495 139.52865028 C-104.81810014 139.79370722 -104.81810014 139.79370722 -111 134 C-115.7382798 128.89723714 -116.71778062 124.28224235 -116.66015625 117.44140625 C-115.45597818 111.1640046 -111.31655062 106.62939369 -107.39794922 101.76464844 C-105.21320039 99.0068132 -103.20880419 96.12847617 -101.1875 93.25 C-100.35938772 92.08760386 -99.52992196 90.92617096 -98.69921875 89.765625 C-98.26786621 89.16298828 -97.83651367 88.56035156 -97.39208984 87.93945312 C-94.21197923 83.50893774 -91.0128837 79.09209451 -87.81713867 74.67285156 C-84.53027377 70.12545006 -81.25628804 65.56933968 -78 61 C-73.15298242 54.20014897 -68.26469781 47.43043878 -63.37109375 40.6640625 C-60.54633796 36.75816652 -57.72954796 32.84659461 -54.91430664 28.93383789 C-52.76746898 25.95560058 -50.61023921 22.98495854 -48.453125 20.01416016 C-47.12156636 18.16850176 -45.80833668 16.3113684 -44.5 14.44921875 C-39.1457653 6.98489502 -33.05260639 -1.04438594 -23.4375 -2.7890625 C-6.40690766 -4.26286376 -6.40690766 -4.26286376 0 0 Z M-34 10 C-35.97618069 12.44600076 -37.73509489 15.02397813 -39.5 17.625 C-40.56281503 19.16083977 -41.62665109 20.69597338 -42.69140625 22.23046875 C-43.23684082 23.0198584 -43.78227539 23.80924805 -44.34423828 24.62255859 C-46.99480804 28.4284047 -49.71462713 32.18320469 -52.4375 35.9375 C-52.97479736 36.67983887 -53.51209473 37.42217773 -54.06567383 38.18701172 C-55.1586686 39.69702954 -56.25201262 41.20679462 -57.34570312 42.71630859 C-60.12918202 46.55879112 -62.90874599 50.4040997 -65.6875 54.25 C-66.23140381 55.00273193 -66.77530762 55.75546387 -67.33569336 56.53100586 C-70.97146627 61.56629553 -74.58776084 66.61505986 -78.19213867 71.67285156 C-81.6086326 76.46267574 -85.05240438 81.23252783 -88.5 86 C-94.02903765 93.64617941 -99.52376845 101.31592158 -105 109 C-105.45310547 109.58910156 -105.90621094 110.17820312 -106.37304688 110.78515625 C-109.58134971 115.02648709 -110.69372653 117.54631897 -110.35546875 122.921875 C-109.66154535 126.97865797 -108.1019809 129.17305431 -104.85249329 131.61152649 C-101.34530835 133.3186763 -98.3599981 133.40075185 -94.54760742 133.34057617 C-93.8153595 133.34101425 -93.08311157 133.34145233 -92.32867432 133.34190369 C-89.92066305 133.33982217 -87.51335761 133.3165221 -85.10546875 133.29296875 C-83.43110026 133.28737051 -81.75672685 133.28310149 -80.08235168 133.28010559 C-75.6846042 133.26867474 -71.28715597 133.23922285 -66.88952637 133.20599365 C-62.3983973 133.17525473 -57.90721967 133.1615921 -53.41601562 133.14648438 C-44.61054006 133.11435133 -35.8053073 133.06317645 -27 133 C-27.02094727 134.18029785 -27.04189453 135.3605957 -27.06347656 136.57666016 C-27.13607769 140.97106717 -27.18187271 145.36542154 -27.21972656 149.76025391 C-27.23979629 151.65943325 -27.26705851 153.55855115 -27.30175781 155.45751953 C-27.35048109 158.19318839 -27.37301507 160.92803771 -27.390625 163.6640625 C-27.41127014 164.50804596 -27.43191528 165.35202942 -27.45318604 166.22158813 C-27.45571503 172.92131013 -25.35376103 176.36932591 -20.875 181.375 C-16.6269864 183.77605117 -12.7712877 183.65241661 -8 183 C-4.23707527 181.39875543 -2.15902618 179.45444189 0 176 C1.30920503 172.0723849 1.23462868 168.27429369 1.31640625 164.17578125 C1.3475779 162.88367989 1.3475779 162.88367989 1.37937927 161.56547546 C1.44474909 158.81456456 1.50370132 156.06355844 1.5625 153.3125 C1.60569717 151.44725579 1.64931185 149.5820212 1.69335938 147.71679688 C1.80041763 143.14462876 1.90172054 138.5723649 2 134 C3.09699219 133.96261719 4.19398438 133.92523438 5.32421875 133.88671875 C6.77867857 133.82103347 8.23310416 133.75458701 9.6875 133.6875 C10.40873047 133.66494141 11.12996094 133.64238281 11.87304688 133.61914062 C17.3336761 133.34486244 20.87910722 132.20461223 24.78125 128.1484375 C27.11014541 124.04301289 26.71748959 119.55507151 26 115 C24.14364286 111.32996061 21.95720623 109.31906874 18 108 C16.66474283 107.92026524 15.32587917 107.89228662 13.98828125 107.90234375 C13.23095703 107.90556641 12.47363281 107.90878906 11.69335938 107.91210938 C10.90767578 107.92048828 10.12199219 107.92886719 9.3125 107.9375 C8.51521484 107.94201172 7.71792969 107.94652344 6.89648438 107.95117188 C4.93095743 107.9629415 2.96546915 107.98087652 1 108 C1.01332367 106.17502739 1.01332367 106.17502739 1.0269165 104.31318665 C1.10798131 92.85091921 1.16795543 81.38870989 1.20724869 69.92622089 C1.22812885 64.0331306 1.25645484 58.14027162 1.30175781 52.24731445 C1.34519948 46.56092745 1.36913388 40.87476302 1.37950897 35.18822289 C1.3869033 33.01806318 1.40134257 30.84791575 1.42292023 28.67785072 C1.45193131 25.639539 1.45595689 22.60214851 1.45410156 19.5637207 C1.46848267 18.66532471 1.48286377 17.76692871 1.49768066 16.84130859 C1.47036869 12.71142252 1.34974034 10.56089687 -0.88116455 6.983078 C-5.88045772 2.30409818 -11.23978715 2.63542012 -17.76953125 2.74609375 C-24.34857983 3.26318947 -29.08933191 5.57162967 -34 10 Z " fill="#415D90" transform="translate(253,243)"/>
<path d="M0 0 C0.73283203 -0.01224609 1.46566406 -0.02449219 2.22070312 -0.03710938 C4.12776507 -0.04236299 6.03434886 0.06531728 7.9375 0.1875 C9.9375 2.1875 9.9375 2.1875 9.9375 5.1875 C10.72125 5.496875 11.505 5.80625 12.3125 6.125 C14.9375 7.1875 14.9375 7.1875 16.9375 8.1875 C16.9375 8.8475 16.9375 9.5075 16.9375 10.1875 C18.5875 9.8575 20.2375 9.5275 21.9375 9.1875 C23.0629191 10.79137267 24.18781972 12.39560916 25.3125 14 C25.93898438 14.89332031 26.56546875 15.78664063 27.2109375 16.70703125 C29.90353476 20.57535537 31.1937369 22.44711743 30.9375 27.1875 C30.43573242 27.39503906 29.93396484 27.60257812 29.41699219 27.81640625 C22.41123033 30.81305427 15.82548707 34.45801183 9.1875 38.1875 C7.99719465 38.85284293 6.80676327 39.51796044 5.61621094 40.18286133 C-3.53227451 45.29927258 -12.64494745 50.47866266 -21.734375 55.69921875 C-22.46962402 56.11913086 -23.20487305 56.53904297 -23.96240234 56.97167969 C-25.34742499 57.77351796 -26.72316555 58.59163815 -28.08837891 59.42675781 C-32.76343356 62.25251444 -32.76343356 62.25251444 -35.9375 61.5625 C-38.0625 60.1875 -38.0625 60.1875 -39.0625 58.1875 C-39.02480225 55.52255915 -38.92055428 52.90644125 -38.75 50.25 C-38.71455078 49.52103516 -38.67910156 48.79207031 -38.64257812 48.04101562 C-38.41361939 44.31274734 -38.17421227 42.35506841 -36.0625 39.1875 C-35.0725 39.1875 -34.0825 39.1875 -33.0625 39.1875 C-32.86837819 37.70918779 -32.68237869 36.22980684 -32.5 34.75 C-32.39558594 33.92628906 -32.29117187 33.10257812 -32.18359375 32.25390625 C-32.14363281 31.57199219 -32.10367187 30.89007813 -32.0625 30.1875 C-32.3925 29.8575 -32.7225 29.5275 -33.0625 29.1875 C-33.0625 22.10170741 -29.58806443 16.48551699 -25.0625 11.1875 C-21.02042463 8.47693181 -16.74909957 7.30889854 -12.0625 6.1875 C-11.7325 4.5375 -11.4025 2.8875 -11.0625 1.1875 C-7.34504693 -0.05165102 -3.87126619 0.00342287 0 0 Z " fill="#BFD7F1" transform="translate(368.0625,277.8125)"/>
<path d="M0 0 C0.33 0.66 0.66 1.32 1 2 C0.69835937 2.59167969 0.39671875 3.18335938 0.0859375 3.79296875 C-2.16886479 8.37557052 -1.80521174 14.26329935 -0.3828125 19.09765625 C2.0512591 23.99811014 6.00587771 26.94850406 11 29 C15.66868447 29.72509341 20.28145874 29.79007821 25 29.8125 C26.25167969 29.83763672 27.50335938 29.86277344 28.79296875 29.88867188 C31.86229574 29.94724682 34.93020599 29.9837459 38 30 C38.63260324 31.6429259 39.25560549 33.28954891 39.875 34.9375 C40.22304688 35.85402344 40.57109375 36.77054687 40.9296875 37.71484375 C42.23725421 41.72821455 43.08433564 45.87951039 44 50 C20.9 50 -2.2 50 -26 50 C-24.02 45.71 -22.04 41.42 -20 37 C-19.73647686 32.26352314 -19.73647686 32.26352314 -21 29 C-19.42274025 25.13571362 -18.515562 23.343708 -15 21 C-13.13333069 14.51157728 -12.74166885 7.71661 -13 1 C-8.62426048 0.40667939 -4.42471556 -0.13827236 0 0 Z " fill="#D2E3F5" transform="translate(450,352)"/>
<path d="M0 0 C2.475 0.495 2.475 0.495 5 1 C4.91254425 3.39749384 4.80562925 5.79148221 4.6875 8.1875 C4.66494141 8.86103516 4.64238281 9.53457031 4.61914062 10.22851562 C4.38580073 14.57712278 3.71226011 17.55107665 1 21 C0.34 21 -0.32 21 -1 21 C-1.36552803 22.41377782 -1.71695495 23.83120576 -2.0625 25.25 C-2.25972656 26.03890625 -2.45695312 26.8278125 -2.66015625 27.640625 C-3.17802288 29.96920191 -3.17802288 29.96920191 -2.32421875 31.98046875 C-2 34 -2 34 -3.546875 36.47265625 C-4.63742187 37.75462891 -4.63742187 37.75462891 -5.75 39.0625 C-6.46671875 39.91972656 -7.1834375 40.77695312 -7.921875 41.66015625 C-8.60765625 42.43230469 -9.2934375 43.20445312 -10 44 C-10.53496094 44.60585938 -11.06992187 45.21171875 -11.62109375 45.8359375 C-12.07613281 46.22007812 -12.53117187 46.60421875 -13 47 C-14.67004829 46.68404492 -16.33637583 46.34820041 -18 46 C-21.24720222 46.55413092 -21.24720222 46.55413092 -24 48 C-24.81446109 50.00572641 -24.81446109 50.00572641 -25 52 C-28.68722144 53.84361072 -32.9748074 53.49087715 -37 53 C-39.3125 51.125 -39.3125 51.125 -41 49 C-43.38119246 47.59742124 -43.38119246 47.59742124 -46 47 C-46.76957031 47.24621094 -47.53914063 47.49242187 -48.33203125 47.74609375 C-51 48 -51 48 -53.640625 46.0859375 C-54.93226563 44.74402344 -54.93226563 44.74402344 -56.25 43.375 C-57.12140625 42.49585938 -57.9928125 41.61671875 -58.890625 40.7109375 C-61.03278857 37.95786062 -61.78838476 36.4446258 -62 33 C-61.67 32.34 -61.34 31.68 -61 31 C-61.39938767 28.90178785 -61.39938767 28.90178785 -62 27 C-57.77887953 25.07906041 -53.54525872 24.28811081 -49 23.5625 C-43.78859632 22.69022406 -38.63972507 21.7395044 -33.5 20.5 C-23.44967974 18.09501153 -13.2330911 16.41606744 -3 15 C-2.95101562 14.16855469 -2.90203125 13.33710938 -2.8515625 12.48046875 C-2.77679688 11.39378906 -2.70203125 10.30710937 -2.625 9.1875 C-2.55539062 8.10855469 -2.48578125 7.02960938 -2.4140625 5.91796875 C-2 3 -2 3 0 0 Z " fill="#D1E2F5" transform="translate(401,346)"/>
<path d="M0 0 C0.66 0 1.32 0 2 0 C2.02312737 8.06652174 2.04091709 16.13302972 2.05181217 24.19957638 C2.05704014 27.94483037 2.06413622 31.69006176 2.07543945 35.43530273 C2.08627141 39.04681687 2.09227749 42.65830921 2.09487724 46.26983833 C2.09673094 47.65060329 2.10035049 49.031367 2.10573006 50.41212273 C2.11294447 52.33975952 2.11340809 54.26741807 2.11352539 56.19506836 C2.115746 57.29427109 2.11796661 58.39347382 2.12025452 59.52598572 C2 62 2 62 1 63 C-0.35094982 63.09268999 -1.70667091 63.11747326 -3.06079102 63.11352539 C-3.92160782 63.11344986 -4.78242462 63.11337433 -5.66932678 63.11329651 C-6.60473801 63.10813522 -7.54014923 63.10297394 -8.50390625 63.09765625 C-9.45692123 63.0962413 -10.40993622 63.09482635 -11.39183044 63.09336853 C-14.44875165 63.08775152 -17.50560077 63.07519616 -20.5625 63.0625 C-22.62955624 63.05748719 -24.69661362 63.05292391 -26.76367188 63.04882812 C-31.84247588 63.03777656 -36.9212257 63.02050055 -42 63 C-41.50222808 58.85116155 -40.81182954 56.17057209 -38.26171875 52.85546875 C-37.69509521 52.10515381 -37.12847168 51.35483887 -36.54467773 50.58178711 C-35.62537476 49.39661499 -35.62537476 49.39661499 -34.6875 48.1875 C-33.39954495 46.48550658 -32.11311345 44.78235928 -30.828125 43.078125 C-30.18166016 42.22541016 -29.53519531 41.37269531 -28.86914062 40.49414062 C-26.14742614 36.86234398 -23.53629751 33.15777757 -20.9375 29.4375 C-16.08330663 22.51196529 -11.15352164 15.64417152 -6.18725586 8.79858398 C-5.6691333 8.08387939 -5.15101074 7.3691748 -4.6171875 6.6328125 C-4.15940918 6.00262207 -3.70163086 5.37243164 -3.22998047 4.72314453 C-2.12187193 3.17073682 -1.05799145 1.58698718 0 0 Z " fill="#405C90" transform="translate(536,288)"/>
<path d="M0 0 C0.95911222 3.18726615 1.91714725 6.37485514 2.875 9.5625 C3.14441406 10.45775391 3.41382813 11.35300781 3.69140625 12.27539062 C4.22158424 14.04049538 4.74736609 15.80692708 5.26855469 17.57470703 C5.8897727 19.63451336 6.56783097 21.67704115 7.2578125 23.71484375 C8.13771643 27.60957642 8.00540941 30.1371112 7 34 C5.171875 36.859375 5.171875 36.859375 2.75 39.75 C-2.50809865 46.18471559 -7.13582645 52.96793028 -11.70800781 59.90332031 C-12.23749023 60.69448242 -12.76697266 61.48564453 -13.3125 62.30078125 C-13.78300781 63.01403564 -14.25351562 63.72729004 -14.73828125 64.4621582 C-15.15464844 64.969646 -15.57101562 65.47713379 -16 66 C-16.66 66 -17.32 66 -18 66 C-19.85875949 59.52422539 -21.7093257 53.04615039 -23.55419922 46.56640625 C-24.18284456 44.36209075 -24.8133675 42.15830983 -25.44580078 39.95507812 C-26.35422351 36.78914649 -27.25588903 33.62135737 -28.15625 30.453125 C-28.44060913 29.46757629 -28.72496826 28.48202759 -29.01794434 27.46661377 C-29.27821411 26.5459613 -29.53848389 25.62530884 -29.80664062 24.67675781 C-30.03758423 23.8684552 -30.26852783 23.06015259 -30.50646973 22.22735596 C-31 20 -31 20 -31 16 C-27.19170765 13.88153763 -23.38310715 11.76363066 -19.57421875 9.64624023 C-18.27823516 8.92569024 -16.98233625 8.20498793 -15.68652344 7.48413086 C-13.82509183 6.44865608 -11.96335747 5.41372752 -10.1015625 4.37890625 C-8.42054443 3.44413452 -8.42054443 3.44413452 -6.70556641 2.49047852 C-2.18476658 0 -2.18476658 0 0 0 Z " fill="#FCFCFD" transform="translate(495,250)"/>
<path d="M0 0 C0.66 0 1.32 0 2 0 C2 20.13 2 40.26 2 61 C-12.19 61 -26.38 61 -41 61 C-40.13423552 56.67117761 -39.74632719 55.18639768 -37.41015625 51.8125 C-36.87817627 51.03801514 -36.34619629 50.26353027 -35.7980957 49.46557617 C-35.22534912 48.65193604 -34.65260254 47.8382959 -34.0625 47 C-33.4749292 46.15348877 -32.8873584 45.30697754 -32.28198242 44.43481445 C-28.15273368 38.52779598 -23.8509843 32.78855302 -19.40625 27.1171875 C-16.79546759 23.73503756 -14.28960218 20.29300908 -11.8125 16.8125 C-11.39782471 16.23056885 -10.98314941 15.6486377 -10.5559082 15.04907227 C-8.63928045 12.34790029 -6.75019913 9.63291739 -4.88671875 6.89453125 C-4.26410156 5.98058594 -3.64148438 5.06664062 -3 4.125 C-2.46375 3.32320313 -1.9275 2.52140625 -1.375 1.6953125 C-0.92125 1.13585937 -0.4675 0.57640625 0 0 Z " fill="#415C90" transform="translate(224,290)"/>
<path d="M0 0 C12.21 0 24.42 0 37 0 C37 6.6 37 13.2 37 20 C26.44 20 15.88 20 5 20 C4.175 17.256875 3.35 14.51375 2.5 11.6875 C2.23896484 10.82729248 1.97792969 9.96708496 1.70898438 9.08081055 C1.50595703 8.39801025 1.30292969 7.71520996 1.09375 7.01171875 C0.88427734 6.31522217 0.67480469 5.61872559 0.45898438 4.90112305 C0 3 0 3 0 0 Z " fill="#FDFDFD" transform="translate(495,382)"/>
<path d="M0 0 C1.734375 0.140625 1.734375 0.140625 4 1 C6.140625 3.546875 6.140625 3.546875 8.25 6.75 C8.95640625 7.79671875 9.6628125 8.8434375 10.390625 9.921875 C12.0058851 13.01125597 12.37896029 14.58935737 12 18 C11.49823242 18.20753906 10.99646484 18.41507812 10.47949219 18.62890625 C3.47373033 21.62555427 -3.11201293 25.27051183 -9.75 29 C-10.94030535 29.66534293 -12.13073673 30.33046044 -13.32128906 30.99536133 C-22.46977451 36.11177258 -31.58244745 41.29116266 -40.671875 46.51171875 C-41.40712402 46.93163086 -42.14237305 47.35154297 -42.89990234 47.78417969 C-44.28492499 48.58601796 -45.66066555 49.40413815 -47.02587891 50.23925781 C-51.70093356 53.06501444 -51.70093356 53.06501444 -54.875 52.375 C-57 51 -57 51 -58 49 C-57.96230225 46.33505915 -57.85805428 43.71894125 -57.6875 41.0625 C-57.65205078 40.33353516 -57.61660156 39.60457031 -57.58007812 38.85351562 C-57.35111939 35.12524734 -57.11171227 33.16756841 -55 30 C-53.68 30.33 -52.36 30.66 -51 31 C-49.86267574 34.40401948 -50.16010043 36.77456664 -50.9375 40.25 C-51.13214844 41.14203125 -51.32679688 42.0340625 -51.52734375 42.953125 C-51.68332031 43.62859375 -51.83929688 44.3040625 -52 45 C-38.96312831 37.72466302 -25.93850111 30.43138385 -12.99145508 22.99707031 C-7.68581237 19.95230885 -2.35521703 16.95672601 3 14 C2.43099465 11.36137716 1.90524858 9.85787288 0.375 7.5625 C-1 5 -1 5 -0.6875 2.1875 C-0.460625 1.465625 -0.23375 0.74375 0 0 Z " fill="#415D90" transform="translate(387,287)"/>
<path d="M0 0 C0.33 0 0.66 0 1 0 C1 12.21 1 24.42 1 37 C-7.91 37 -16.82 37 -26 37 C-24.60661494 34.21322988 -23.36369658 31.95056261 -21.6015625 29.453125 C-21.12759033 28.78015381 -20.65361816 28.10718262 -20.1652832 27.41381836 C-19.65698975 26.6997583 -19.14869629 25.98569824 -18.625 25.25 C-18.10059326 24.51080322 -17.57618652 23.77160645 -17.03588867 23.01000977 C-13.1865725 17.6090579 -9.27602067 12.25515322 -5.3125 6.9375 C-4.79574707 6.24108398 -4.27899414 5.54466797 -3.74658203 4.82714844 C-2.52329206 3.19857395 -1.26531412 1.59614328 0 0 Z " fill="#C1D8F2" transform="translate(219,308)"/>
<path d="M0 0 C0.33 0 0.66 0 1 0 C1 12.87 1 25.74 1 39 C-0.65 39 -2.3 39 -4 39 C-5.27553655 35.30483878 -6.52534801 31.6065841 -7.71484375 27.8828125 C-8.4254798 25.6657127 -9.17081314 23.6205466 -10.12890625 21.4921875 C-11.06316438 19.11817893 -11.1636929 17.54219624 -11 15 C-10.13574219 13.15454102 -10.13574219 13.15454102 -8.921875 11.37890625 C-8.48625244 10.73961182 -8.05062988 10.10031738 -7.60180664 9.44165039 C-2.66744792 2.66744792 -2.66744792 2.66744792 0 0 Z " fill="#FBFBFC" transform="translate(531,306)"/>
<path d="M0 0 C2.28363378 2.28363378 2.7152849 3.74795468 3.625 6.8125 C3.88539063 7.66457031 4.14578125 8.51664062 4.4140625 9.39453125 C5 12 5 12 5 17 C-0.28 17 -5.56 17 -11 17 C-9.23010156 12.5752539 -7.24390865 9.37673721 -4.375 5.6875 C-3.95476562 5.13771484 -3.53453125 4.58792969 -3.1015625 4.02148438 C-2.07279961 2.67707832 -1.0370991 1.33798587 0 0 Z " fill="#D3E3F4" transform="translate(515,328)"/>
<path d="M0 0 C2.125 0.375 2.125 0.375 4 1 C4.05790353 4.29159316 4.09356261 7.58305603 4.125 10.875 C4.14175781 11.81214844 4.15851563 12.74929688 4.17578125 13.71484375 C4.18222656 14.61074219 4.18867188 15.50664062 4.1953125 16.4296875 C4.20578613 17.25710449 4.21625977 18.08452148 4.22705078 18.93701172 C4 21 4 21 2 23 C-0.125 22.625 -0.125 22.625 -2 22 C-2.05790353 18.70840684 -2.09356261 15.41694397 -2.125 12.125 C-2.14175781 11.18785156 -2.15851563 10.25070312 -2.17578125 9.28515625 C-2.18544922 7.94130859 -2.18544922 7.94130859 -2.1953125 6.5703125 C-2.20578613 5.74289551 -2.21625977 4.91547852 -2.22705078 4.06298828 C-2 2 -2 2 0 0 Z " fill="#435F92" transform="translate(298,324)"/>
<path d="M0 0 C2 0.25 2 0.25 4 1 C5 4 5 4 3.3828125 7.28515625 C2.64046274 8.55034375 1.88738428 9.80928303 1.125 11.0625 C0.37745994 12.32413331 -0.369942 13.58584846 -1.1171875 14.84765625 C-1.73851562 15.88792969 -2.35984375 16.92820312 -3 18 C-3.33 18.66 -3.66 19.32 -4 20 C-5.65 19.67 -7.3 19.34 -9 19 C-8.84123736 11.85568114 -5.04843024 5.04843024 0 0 Z " fill="#415D90" transform="translate(344,288)"/>
<path d="M0 0 C1.65 0.33 3.3 0.66 5 1 C4.88501733 3.20887757 4.75756495 5.41710787 4.625 7.625 C4.55539062 8.85476563 4.48578125 10.08453125 4.4140625 11.3515625 C4.01542898 14.86405029 3.36568278 17.74487796 2 21 C-0.0625 21.9375 -0.0625 21.9375 -2 22 C-3 21 -3 21 -3.25 17.75 C-3.20566275 11.67579714 -1.49816829 5.84999048 0 0 Z " fill="#456092" transform="translate(433,353)"/>
<path d="M0 0 C1.921875 0.05078125 1.921875 0.05078125 4 1 C5.265625 3.73046875 5.265625 3.73046875 6.25 7.1875 C6.58515625 8.31542969 6.9203125 9.44335938 7.265625 10.60546875 C7.96968962 13.85989508 8.14088637 16.68413855 8 20 C6.35 20.33 4.7 20.66 3 21 C2.13310822 18.42032203 1.28126211 15.83723873 0.4375 13.25 C0.19064453 12.52039063 -0.05621094 11.79078125 -0.31054688 11.0390625 C-0.53935547 10.33007812 -0.76816406 9.62109375 -1.00390625 8.890625 C-1.21861572 8.24125977 -1.4333252 7.59189453 -1.65454102 6.92285156 C-2.06436854 4.64171968 -1.74791365 3.17798066 -1 1 C-0.67 0.67 -0.34 0.34 0 0 Z " fill="#466192" transform="translate(429,292)"/>
<path d="M0 0 C1.65 0.33 3.3 0.66 5 1 C4.88573491 3.41760876 4.75900339 5.83347218 4.625 8.25 C4.5940625 8.93191406 4.563125 9.61382812 4.53125 10.31640625 C4.31740626 13.98739038 3.98922945 16.86251616 2 20 C0.35 19.67 -1.3 19.34 -3 19 C-2.88608368 16.39491364 -2.75934452 13.79154454 -2.625 11.1875 C-2.5940625 10.44951172 -2.563125 9.71152344 -2.53125 8.95117188 C-2.32653852 5.18106885 -2.13566173 3.20349259 0 0 Z " fill="#486394" transform="translate(401,346)"/>
<path d="M0 0 C1.9375 0.3125 1.9375 0.3125 4 1 C5 4 5 4 4.2590332 5.70166016 C2.95502736 7.68467651 1.64895988 9.66362991 0.3125 11.625 C-0.13544922 12.31851562 -0.58339844 13.01203125 -1.04492188 13.7265625 C-1.48771484 14.3865625 -1.93050781 15.0465625 -2.38671875 15.7265625 C-2.99326294 16.63269287 -2.99326294 16.63269287 -3.61206055 17.55712891 C-5.31237701 19.32474022 -6.61321244 19.61610887 -9 20 C-10.0715951 16.71972833 -10.19777746 15.41009738 -8.671875 12.24609375 C-8.03765625 11.31925781 -7.4034375 10.39242188 -6.75 9.4375 C-6.12609375 8.50808594 -5.5021875 7.57867187 -4.859375 6.62109375 C-3.27352063 4.38557215 -1.66160662 2.17957658 0 0 Z " fill="#3F5C8F" transform="translate(318,266)"/>
<path d="M0 0 C0.73669922 0.00064453 1.47339844 0.00128906 2.23242188 0.00195312 C7.67199096 0.04699096 7.67199096 0.04699096 8.8125 1.1875 C8.8125 2.8375 8.8125 4.4875 8.8125 6.1875 C2.2125 6.5175 -4.3875 6.8475 -11.1875 7.1875 C-11.5175 5.5375 -11.8475 3.8875 -12.1875 2.1875 C-8.36119529 -0.35332701 -4.41752166 -0.07460703 0 0 Z " fill="#446091" transform="translate(368.1875,277.8125)"/>
<path d="M0 0 C3.69230769 0.69230769 3.69230769 0.69230769 5 2 C5.37633296 3.69937853 5.70098348 5.41032714 6 7.125 C6.17273438 8.11371094 6.34546875 9.10242188 6.5234375 10.12109375 C7.06772112 13.40910216 7.55954594 16.69659457 8 20 C6.35 20.33 4.7 20.66 3 21 C-0.67603908 14.28723298 -1.25453957 8.50891718 -1 1 C-0.67 0.67 -0.34 0.34 0 0 Z " fill="#456092" transform="translate(331,348)"/>
<path d="M0 0 C2.125 0.375 2.125 0.375 4 1 C2.42105263 17.57894737 2.42105263 17.57894737 -1 21 C-2.32 21 -3.64 21 -5 21 C-5.38024149 14.2824004 -4.32445578 8.33360887 -2 2 C-1.34 1.34 -0.68 0.68 0 0 Z " fill="#405D90" transform="translate(304,294)"/>
<path d="M0 0 C2.2265625 0.07421875 2.2265625 0.07421875 5 1 C6.72217177 3.28735185 8.03762593 5.32057641 9.375 7.8125 C9.74238281 8.44220703 10.10976563 9.07191406 10.48828125 9.72070312 C13.07093669 14.36460997 13.07093669 14.36460997 12.7265625 17.44921875 C12.48679687 17.96097656 12.24703125 18.47273438 12 19 C9.7734375 18.92578125 9.7734375 18.92578125 7 18 C5.27782823 15.71264815 3.96237407 13.67942359 2.625 11.1875 C2.25761719 10.55779297 1.89023437 9.92808594 1.51171875 9.27929688 C-1.07093669 4.63539003 -1.07093669 4.63539003 -0.7265625 1.55078125 C-0.48679687 1.03902344 -0.24703125 0.52726562 0 0 Z " fill="#435F91" transform="translate(306,386)"/>
<path d="M0 0 C1.18613892 0.00785522 1.18613892 0.00785522 2.39624023 0.01586914 C3.67724609 0.02070313 3.67724609 0.02070313 4.98413086 0.02563477 C5.88196289 0.03401367 6.77979492 0.04239258 7.70483398 0.05102539 C8.6065332 0.05553711 9.50823242 0.06004883 10.43725586 0.06469727 C12.67234712 0.07652315 14.90730835 0.09300319 17.14233398 0.11352539 C17.52452166 1.76967196 17.856285 3.43809563 18.14233398 5.11352539 C17.14233398 6.11352539 17.14233398 6.11352539 15.28466797 6.22705078 C14.49390869 6.22181396 13.70314941 6.21657715 12.88842773 6.21118164 C12.03442383 6.20795898 11.18041992 6.20473633 10.30053711 6.20141602 C9.40270508 6.19303711 8.50487305 6.1846582 7.57983398 6.17602539 C6.67813477 6.17151367 5.77643555 6.16700195 4.84741211 6.16235352 C2.61232085 6.15052764 0.37735962 6.13404759 -1.85766602 6.11352539 C-2.23985369 4.45737882 -2.57161703 2.78895515 -2.85766602 1.11352539 C-1.85766602 0.11352539 -1.85766602 0.11352539 0 0 Z " fill="#425D90" transform="translate(358.857666015625,243.886474609375)"/>
<path d="M0 0 C0.33 1.32 0.66 2.64 1 4 C-0.60198888 5.46072532 -2.20667116 6.91849716 -3.8125 8.375 C-4.70582031 9.18710937 -5.59914063 9.99921875 -6.51953125 10.8359375 C-9 13 -9 13 -12 15 C-14.1875 14.625 -14.1875 14.625 -16 14 C-16 10 -16 10 -13.76953125 7.421875 C-12.79371094 6.54015625 -11.81789063 5.6584375 -10.8125 4.75 C-9.84957031 3.85796875 -8.88664062 2.9659375 -7.89453125 2.046875 C-4.8448523 -0.10971308 -3.62870455 -0.50417102 0 0 Z " fill="#405C8F" transform="translate(414,410)"/>
<path d="M0 0 C1.9375 0.0625 1.9375 0.0625 4 1 C5.1875 3.8125 5.1875 3.8125 6 7 C6.309375 7.928125 6.309375 7.928125 6.625 8.875 C7.23140503 12.31129517 7.16896426 15.50807189 7 19 C6.34 19.66 5.68 20.32 5 21 C2.875 20.625 2.875 20.625 1 20 C0.66225668 17.77149723 0.3299813 15.54216533 0 13.3125 C-0.185625 12.07113281 -0.37125 10.82976562 -0.5625 9.55078125 C-0.92187574 6.63406209 -1.17389939 3.92911786 -1 1 C-0.67 0.67 -0.34 0.34 0 0 Z " fill="#456092" transform="translate(399,315)"/>
<path d="M0 0 C1.32 0.66 2.64 1.32 4 2 C4 8.27 4 14.54 4 21 C2.35 21 0.7 21 -1 21 C-3.15732833 18.84267167 -2.18520919 14.05201247 -2.1875 11.0625 C-2.19974609 10.22525391 -2.21199219 9.38800781 -2.22460938 8.52539062 C-2.22654297 7.72423828 -2.22847656 6.92308594 -2.23046875 6.09765625 C-2.23457764 5.36039307 -2.23868652 4.62312988 -2.24291992 3.86352539 C-2 2 -2 2 0 0 Z " fill="#466192" transform="translate(435,322)"/>
<path d="M0 0 C1.32 0.33 2.64 0.66 4 1 C4.734375 2.68359375 4.734375 2.68359375 5 5 C3.453125 7.47265625 3.453125 7.47265625 1.25 10.0625 C0.17492187 11.34833984 0.17492187 11.34833984 -0.921875 12.66015625 C-4.60706036 16.8094533 -4.60706036 16.8094533 -6 18 C-8.1875 17.6875 -8.1875 17.6875 -10 17 C-9.51814387 12.2778099 -7.30336567 9.29945628 -4.4375 5.6875 C-4.01275391 5.13771484 -3.58800781 4.58792969 -3.15039062 4.02148438 C-2.10818741 2.6748173 -1.05516157 1.33653799 0 0 Z " fill="#3F5B8E" transform="translate(394,375)"/>
<path d="M0 0 C0 1.65 0 3.3 0 5 C-0.85464844 5.42152344 -1.70929688 5.84304687 -2.58984375 6.27734375 C-3.69457031 6.82519531 -4.79929687 7.37304688 -5.9375 7.9375 C-7.03964844 8.48277344 -8.14179688 9.02804687 -9.27734375 9.58984375 C-11.84794414 10.74704978 -11.84794414 10.74704978 -13 12 C-14.66617115 12.04063832 -16.33388095 12.042721 -18 12 C-18.33 10.68 -18.66 9.36 -19 8 C-17.58531689 7.03874097 -16.1681636 6.08111675 -14.75 5.125 C-13.96109375 4.59132812 -13.1721875 4.05765625 -12.359375 3.5078125 C-7.93825693 0.68239599 -5.32817686 -0.24218986 0 0 Z " fill="#415D90" transform="translate(346,249)"/>
<path d="M0 0 C4.22547291 0.347806 7.58565873 2.13764791 11.3125 4.0625 C12.38113281 4.61035156 13.44976562 5.15820312 14.55078125 5.72265625 C15.35902344 6.14417969 16.16726563 6.56570312 17 7 C17 8.65 17 10.3 17 12 C15.4140625 12.69921875 15.4140625 12.69921875 13 13 C9.8359375 11.70703125 9.8359375 11.70703125 6.375 9.8125 C5.22773438 9.20019531 4.08046875 8.58789062 2.8984375 7.95703125 C0.10027017 6.06770263 -0.93092293 5.13086855 -2 2 C-1.34 1.34 -0.68 0.68 0 0 Z " fill="#435F91" transform="translate(389,247)"/>
<path d="M0 0 C2.0625 0.4375 2.0625 0.4375 4 1 C5.93973795 7.59510904 7.13521494 13.10403791 7 20 C5.68 20.33 4.36 20.66 3 21 C-0.7019707 15.44704395 -1.5213514 7.60378438 -1 1 C-0.67 0.67 -0.34 0.34 0 0 Z " fill="#3F5C8F" transform="translate(299,356)"/>
<path d="M0 0 C3.59526603 0.17030208 4.96485701 0.96936382 7.7109375 3.36328125 C9.02964844 4.82314453 9.02964844 4.82314453 10.375 6.3125 C11.71691406 7.76076172 11.71691406 7.76076172 13.0859375 9.23828125 C15 12 15 12 14.7890625 14.35546875 C14.52867187 14.89816406 14.26828125 15.44085938 14 16 C9.46271101 15.51730968 7.42228774 13.96486879 4.25 10.75 C3.47140625 9.98171875 2.6928125 9.2134375 1.890625 8.421875 C-0.12510262 5.83974458 -0.75412739 4.24104809 -1 1 C-0.67 0.67 -0.34 0.34 0 0 Z " fill="#3D598D" transform="translate(340,378)"/>
<path d="M0 0 C4.54608655 0.37951344 7.23643138 2.34813466 10.8125 5.0625 C11.78832031 5.79597656 12.76414062 6.52945312 13.76953125 7.28515625 C14.50558594 7.85105469 15.24164063 8.41695313 16 9 C15.67 10.65 15.34 12.3 15 14 C10.61263833 13.47130714 8.16579094 11.94365467 4.75 9.1875 C3.87859375 8.50042969 3.0071875 7.81335938 2.109375 7.10546875 C-0.01882374 4.98121112 -0.76846401 3.96494703 -1 1 C-0.67 0.67 -0.34 0.34 0 0 Z " fill="#3F5C8F" transform="translate(324,412)"/>
<path d="M0 0 C0.33 0 0.66 0 1 0 C1 12.87 1 25.74 1 39 C-0.65 39 -2.3 39 -4 39 C-5.485 33.555 -5.485 33.555 -7 28 C-3.535 27.505 -3.535 27.505 0 27 C-0.33 19.41 -0.66 11.82 -1 4 C-1.99 4.495 -1.99 4.495 -3 5 C-1.125 1.125 -1.125 1.125 0 0 Z " fill="#D6E3F1" transform="translate(531,306)"/>
<path d="M0 0 C0.33 1.32 0.66 2.64 1 4 C-2.83968051 6.6571444 -5.66976147 7.43240448 -10.3125 7.6875 C-11.38113281 7.75324219 -12.44976562 7.81898438 -13.55078125 7.88671875 C-14.76314453 7.94279297 -14.76314453 7.94279297 -16 8 C-16.625 6.125 -16.625 6.125 -17 4 C-12.8310355 -0.1689645 -5.63804533 -0.28913053 0 0 Z " fill="#425E90" transform="translate(389,426)"/>
<path d="M0 0 C4.71403788 0.47939368 8.66579301 0.96834048 13 3 C12.67 4.65 12.34 6.3 12 8 C6.76824163 8.38281159 3.62197306 7.21854707 -1 5 C-0.67 3.35 -0.34 1.7 0 0 Z " fill="#466192" transform="translate(350,426)"/>
<path d="M0 0 C1.51400391 0.01740234 1.51400391 0.01740234 3.05859375 0.03515625 C4.07050781 0.04417969 5.08242188 0.05320312 6.125 0.0625 C7.29869141 0.07990234 7.29869141 0.07990234 8.49609375 0.09765625 C8.82609375 1.74765625 9.15609375 3.39765625 9.49609375 5.09765625 C6.97133913 6.36003356 5.18408909 6.19622029 2.37109375 6.16015625 C1.46101563 6.15113281 0.5509375 6.14210938 -0.38671875 6.1328125 C-1.08539063 6.12121094 -1.7840625 6.10960937 -2.50390625 6.09765625 C-2.88609392 4.44150968 -3.21785727 2.77308601 -3.50390625 1.09765625 C-2.50390625 0.09765625 -2.50390625 0.09765625 0 0 Z " fill="#425E90" transform="translate(366.50390625,392.90234375)"/>
<path d="M0 0 C2 2 2 2 2.125 5.125 C2.08375 6.07375 2.0425 7.0225 2 8 C-0.31 8.33 -2.62 8.66 -5 9 C-3.7508258 5.54074837 -2.32472205 2.85306797 0 0 Z " fill="#F5F7F9" transform="translate(515,328)"/>
<path d="M0 0 C0.99 0.66 1.98 1.32 3 2 C2.34 3.32 1.68 4.64 1 6 C-1.31 5.34 -3.62 4.68 -6 4 C-5.38125 3.71125 -4.7625 3.4225 -4.125 3.125 C-1.86674235 2.06279958 -1.86674235 2.06279958 0 0 Z " fill="#B7CDE6" transform="translate(416,406)"/>
<path d="M0 0 C0.99 0 1.98 0 3 0 C3 0.66 3 1.32 3 2 C2.34 2 1.68 2 1 2 C0.67 4.31 0.34 6.62 0 9 C-0.33 9 -0.66 9 -1 9 C-1.09765625 2.84765625 -1.09765625 2.84765625 -1 1 C-0.67 0.67 -0.34 0.34 0 0 Z " fill="#4E6896" transform="translate(331,348)"/>
<path d="M0 0 C0.33 1.32 0.66 2.64 1 4 C2.32 3.67 3.64 3.34 5 3 C3.71034824 4.37562854 2.37310707 5.70766393 1 7 C0.34 7 -0.32 7 -1 7 C-0.67 4.69 -0.34 2.38 0 0 Z " fill="#B6CEE7" transform="translate(336,325)"/>
</svg>
