<svg width="497" height="82" viewBox="0 0 497 82" fill="none" xmlns="http://www.w3.org/2000/svg">
<path d="M6.69318 74V18.7273H13.3864V68.0625H39.0795V74H6.69318ZM90.8872 46.3636C90.8872 52.1932 89.8346 57.2311 87.7295 61.4773C85.6244 65.7235 82.7366 68.9981 79.0662 71.3011C75.3957 73.6042 71.2035 74.7557 66.4895 74.7557C61.7755 74.7557 57.5832 73.6042 53.9128 71.3011C50.2423 68.9981 47.3545 65.7235 45.2494 61.4773C43.1443 57.2311 42.0917 52.1932 42.0917 46.3636C42.0917 40.5341 43.1443 35.4962 45.2494 31.25C47.3545 27.0038 50.2423 23.7292 53.9128 21.4261C57.5832 19.1231 61.7755 17.9716 66.4895 17.9716C71.2035 17.9716 75.3957 19.1231 79.0662 21.4261C82.7366 23.7292 85.6244 27.0038 87.7295 31.25C89.8346 35.4962 90.8872 40.5341 90.8872 46.3636ZM84.4099 46.3636C84.4099 41.5777 83.6093 37.5384 82.0079 34.2457C80.4246 30.9531 78.2745 28.4612 75.5577 26.7699C72.8588 25.0786 69.8361 24.233 66.4895 24.233C63.1429 24.233 60.1112 25.0786 57.3943 26.7699C54.6954 28.4612 52.5453 30.9531 50.944 34.2457C49.3607 37.5384 48.569 41.5777 48.569 46.3636C48.569 51.1496 49.3607 55.1889 50.944 58.4815C52.5453 61.7741 54.6954 64.2661 57.3943 65.9574C60.1112 67.6487 63.1429 68.4943 66.4895 68.4943C69.8361 68.4943 72.8588 67.6487 75.5577 65.9574C78.2745 64.2661 80.4246 61.7741 82.0079 58.4815C83.6093 55.1889 84.4099 51.1496 84.4099 46.3636ZM98.7709 18.7273L115.18 65.2557H115.828L132.237 18.7273H139.254L118.958 74H112.049L91.7538 18.7273H98.7709ZM144.823 74V18.7273H178.181V24.6648H151.516V43.3409H176.454V49.2784H151.516V68.0625H178.613V74H144.823ZM190.983 66.929C189.652 66.929 188.51 66.4522 187.556 65.4986C186.602 64.545 186.126 63.4025 186.126 62.071C186.126 60.7396 186.602 59.5971 187.556 58.6435C188.51 57.6899 189.652 57.2131 190.983 57.2131C192.315 57.2131 193.457 57.6899 194.411 58.6435C195.365 59.5971 195.841 60.7396 195.841 62.071C195.841 62.9527 195.617 63.7623 195.167 64.5C194.735 65.2377 194.15 65.8314 193.412 66.2812C192.693 66.7131 191.883 66.929 190.983 66.929ZM190.983 38.9688C189.652 38.9688 188.51 38.492 187.556 37.5384C186.602 36.5848 186.126 35.4422 186.126 34.1108C186.126 32.7794 186.602 31.6368 187.556 30.6832C188.51 29.7296 189.652 29.2528 190.983 29.2528C192.315 29.2528 193.457 29.7296 194.411 30.6832C195.365 31.6368 195.841 32.7794 195.841 34.1108C195.841 34.9924 195.617 35.8021 195.167 36.5398C194.735 37.2775 194.15 37.8712 193.412 38.321C192.693 38.7528 191.883 38.9688 190.983 38.9688ZM224.725 74V18.7273H241.755C245.246 18.7273 248.25 19.411 250.769 20.7784C253.288 22.1458 255.222 24.044 256.572 26.473C257.921 28.884 258.596 31.6908 258.596 34.8935C258.596 38.0601 257.921 40.849 256.572 43.2599C255.222 45.6529 253.288 47.5241 250.769 48.8736C248.268 50.223 245.273 50.8977 241.782 50.8977H226.533V47.7401H241.701C244.544 47.7401 246.973 47.2093 248.988 46.1477C251.003 45.0862 252.55 43.6018 253.63 41.6946C254.71 39.7694 255.249 37.5024 255.249 34.8935C255.249 32.2666 254.71 29.9815 253.63 28.0383C252.55 26.0772 250.994 24.5568 248.961 23.4773C246.946 22.3977 244.517 21.858 241.674 21.858H228.099V74H224.725ZM247.423 48.9545L261.025 74H257.139L243.617 48.9545H247.423ZM269.037 74V18.7273H299.804V21.858H272.41V44.7713H298.158V47.902H272.41V70.8693H300.452V74H269.037ZM307.08 21.858V18.7273H345.809V21.858H328.131V74H324.758V21.858H307.08ZM396.726 46.3636C396.726 52.0672 395.736 57.0511 393.757 61.3153C391.778 65.5616 389.025 68.8632 385.499 71.2202C381.99 73.5772 377.942 74.7557 373.354 74.7557C368.748 74.7557 364.681 73.5772 361.155 71.2202C357.646 68.8452 354.903 65.5346 352.923 61.2884C350.944 57.0241 349.955 52.0492 349.955 46.3636C349.955 40.66 350.944 35.6851 352.923 31.4389C354.921 27.1927 357.673 23.8911 361.182 21.5341C364.69 19.1591 368.748 17.9716 373.354 17.9716C377.942 17.9716 381.99 19.1501 385.499 21.5071C389.025 23.8641 391.778 27.1747 393.757 31.4389C395.736 35.6851 396.726 40.66 396.726 46.3636ZM393.433 46.3636C393.433 41.2358 392.57 36.7917 390.842 33.0312C389.133 29.2708 386.767 26.3651 383.744 24.3139C380.722 22.2448 377.258 21.2102 373.354 21.2102C369.449 21.2102 365.986 22.2358 362.963 24.2869C359.94 26.3201 357.565 29.2259 355.838 33.0043C354.129 36.7647 353.274 41.2178 353.274 46.3636C353.274 51.4555 354.12 55.8906 355.811 59.669C357.52 63.4295 359.886 66.3442 362.909 68.4134C365.932 70.4825 369.413 71.517 373.354 71.517C377.258 71.517 380.722 70.4915 383.744 68.4403C386.767 66.3712 389.133 63.4564 390.842 59.696C392.57 55.9356 393.433 51.4915 393.433 46.3636ZM406.87 74V18.7273H410.243V70.8693H437.232V74H406.87ZM461.909 74H446.58V18.7273H463.097C468.279 18.7273 472.714 19.8248 476.402 22.0199C480.091 24.215 482.916 27.3636 484.877 31.4659C486.856 35.5502 487.837 40.4531 487.819 46.1747C487.801 52.0223 486.775 57.0241 484.742 61.1804C482.709 65.3187 479.767 68.4943 475.917 70.7074C472.066 72.9025 467.397 74 461.909 74ZM449.953 70.8693H461.774C466.704 70.8693 470.861 69.8887 474.243 67.9276C477.626 65.9484 480.181 63.1146 481.908 59.4261C483.653 55.7377 484.517 51.3205 484.499 46.1747C484.499 41.1009 483.662 36.7557 481.989 33.1392C480.316 29.5047 477.878 26.7159 474.675 24.7727C471.49 22.8295 467.586 21.858 462.962 21.858H449.953V70.8693Z" fill="#2C2F48"/>
</svg>
