<svg width="975" height="975" viewBox="0 0 975 975" fill="none" xmlns="http://www.w3.org/2000/svg">
<rect x="1" y="1" width="973" height="973" fill="url(#paint0_linear_2594_1706)" stroke="#F9F6F0" stroke-width="2"/>
<path d="M71.8153 420V256.364H91.6307V402.422H167.696V420H71.8153ZM330.074 338.182C330.074 355.44 326.958 370.355 320.726 382.926C314.493 395.497 305.944 405.192 295.078 412.01C284.211 418.828 271.8 422.237 257.844 422.237C243.888 422.237 231.477 418.828 220.61 412.01C209.744 405.192 201.194 395.497 194.962 382.926C188.73 370.355 185.614 355.44 185.614 338.182C185.614 320.923 188.73 306.009 194.962 293.438C201.194 280.866 209.744 271.172 220.61 264.354C231.477 257.536 243.888 254.126 257.844 254.126C271.8 254.126 284.211 257.536 295.078 264.354C305.944 271.172 314.493 280.866 320.726 293.438C326.958 306.009 330.074 320.923 330.074 338.182ZM310.898 338.182C310.898 324.013 308.527 312.054 303.787 302.306C299.099 292.559 292.734 285.181 284.69 280.174C276.7 275.167 267.752 272.663 257.844 272.663C247.936 272.663 238.961 275.167 230.917 280.174C222.927 285.181 216.562 292.559 211.821 302.306C207.134 312.054 204.79 324.013 204.79 338.182C204.79 352.351 207.134 364.309 211.821 374.057C216.562 383.805 222.927 391.183 230.917 396.19C238.961 401.197 247.936 403.7 257.844 403.7C267.752 403.7 276.7 401.197 284.69 396.19C292.734 391.183 299.099 383.805 303.787 374.057C308.527 364.309 310.898 352.351 310.898 338.182ZM362.414 256.364L410.993 394.112H412.911L461.49 256.364H482.265L422.179 420H401.725L341.64 256.364H362.414ZM507.753 420V256.364H606.51V273.942H527.568V329.233H601.396V346.811H527.568V402.422H607.788V420H507.753ZM653.412 399.066C649.47 399.066 646.087 397.654 643.264 394.831C640.441 392.008 639.029 388.626 639.029 384.684C639.029 380.742 640.441 377.36 643.264 374.537C646.087 371.713 649.47 370.302 653.412 370.302C657.353 370.302 660.736 371.713 663.559 374.537C666.382 377.36 667.794 380.742 667.794 384.684C667.794 387.294 667.128 389.691 665.796 391.875C664.518 394.059 662.787 395.817 660.603 397.148C658.472 398.427 656.075 399.066 653.412 399.066ZM653.412 316.289C649.47 316.289 646.087 314.877 643.264 312.054C640.441 309.231 639.029 305.849 639.029 301.907C639.029 297.965 640.441 294.583 643.264 291.76C646.087 288.936 649.47 287.525 653.412 287.525C657.353 287.525 660.736 288.936 663.559 291.76C666.382 294.583 667.794 297.965 667.794 301.907C667.794 304.517 667.128 306.914 665.796 309.098C664.518 311.282 662.787 313.04 660.603 314.371C658.472 315.65 656.075 316.289 653.412 316.289ZM73.733 692V528.364H126.547C138.159 528.364 147.854 530.468 155.631 534.676C163.461 538.831 169.347 544.61 173.289 552.014C177.284 559.365 179.282 567.808 179.282 577.343C179.282 586.877 177.284 595.294 173.289 602.591C169.347 609.889 163.488 615.588 155.711 619.69C147.934 623.792 138.293 625.842 126.787 625.842H81.8029V612.179H126.387C134.91 612.179 141.995 610.768 147.641 607.945C153.341 605.121 157.575 601.1 160.345 595.88C163.168 590.659 164.58 584.48 164.58 577.343C164.58 570.205 163.168 563.973 160.345 558.646C157.522 553.266 153.261 549.111 147.561 546.181C141.915 543.252 134.777 541.787 126.148 541.787H88.6744V692H73.733ZM145.883 618.172L186.153 692H168.895L129.024 618.172H145.883ZM215.676 692V528.364H310.598V541.787H230.618V603.39H305.564V616.814H230.618V678.577H312.196V692H215.676ZM339.362 541.787V528.364H458.015V541.787H406.159V692H391.218V541.787H339.362ZM618.994 610.182C618.994 627.227 615.958 642.062 609.886 654.686C603.813 667.257 595.45 677.005 584.797 683.93C574.197 690.801 561.999 694.237 548.203 694.237C534.406 694.237 522.182 690.801 511.528 683.93C500.928 677.005 492.592 667.257 486.519 654.686C480.5 642.062 477.491 627.227 477.491 610.182C477.491 593.136 480.5 578.328 486.519 565.757C492.592 553.133 500.955 543.385 511.608 536.513C522.261 529.589 534.46 526.126 548.203 526.126C561.999 526.126 574.197 529.589 584.797 536.513C595.45 543.385 603.813 553.133 609.886 565.757C615.958 578.328 618.994 593.136 618.994 610.182ZM604.453 610.182C604.453 595.533 602.002 582.989 597.102 572.549C592.201 562.055 585.516 554.038 577.047 548.499C568.577 542.959 558.962 540.189 548.203 540.189C537.496 540.189 527.908 542.959 519.438 548.499C510.969 554.038 504.257 562.028 499.303 572.469C494.403 582.909 491.953 595.48 491.953 610.182C491.953 624.83 494.403 637.375 499.303 647.815C504.204 658.255 510.889 666.272 519.358 671.865C527.828 677.405 537.443 680.175 548.203 680.175C558.962 680.175 568.577 677.405 577.047 671.865C585.569 666.325 592.281 658.335 597.182 647.895C602.082 637.401 604.506 624.83 604.453 610.182ZM655.129 692V528.364H670.071V678.577H748.054V692H655.129ZM829.632 692H781.692V528.364H832.509C848.116 528.364 861.459 531.613 872.539 538.112C883.672 544.61 892.194 553.932 898.107 566.077C904.02 578.222 906.976 592.79 906.976 609.782C906.976 626.934 903.94 641.663 897.867 653.967C891.848 666.219 883.059 675.62 871.5 682.172C859.994 688.724 846.039 692 829.632 692ZM796.633 678.577H828.753C842.816 678.577 854.588 675.807 864.069 670.267C873.551 664.727 880.662 656.817 885.403 646.537C890.144 636.256 892.514 624.005 892.514 609.782C892.461 595.667 890.117 583.522 885.483 573.348C880.902 563.174 874.084 555.37 865.028 549.937C856.026 544.504 844.893 541.787 831.63 541.787H796.633V678.577Z" fill="#F0EFEA"/>
<defs>
<linearGradient id="paint0_linear_2594_1706" x1="442.081" y1="0.000100372" x2="533.18" y2="974.975" gradientUnits="userSpaceOnUse">
<stop offset="0.326923" stop-color="#2C2F48"/>
<stop offset="0.586538" stop-color="#403852"/>
<stop offset="0.894231" stop-color="#4A4C6B"/>
</linearGradient>
</defs>
</svg>
