<?xml version="1.0" encoding="UTF-8"?>
<svg version="1.1" xmlns="http://www.w3.org/2000/svg" width="1536" height="1024">
<path d="M0 0 C506.88 0 1013.76 0 1536 0 C1536 337.92 1536 675.84 1536 1024 C1029.12 1024 522.24 1024 0 1024 C0 686.08 0 348.16 0 0 Z " fill="#FEFEFE" transform="translate(0,0)"/>
<path d="M0 0 C1.08873413 -0.00591408 1.08873413 -0.00591408 2.19946289 -0.01194763 C4.58868369 -0.01863796 6.97597527 0.01045752 9.36499023 0.04077148 C11.0297763 0.04502383 12.69456831 0.04735041 14.35935974 0.0478363 C17.84385151 0.05399519 21.32769881 0.07666405 24.81201172 0.11230469 C29.27655322 0.15761189 33.74051201 0.17233293 38.20526218 0.1760416 C41.64110552 0.18047179 45.07682679 0.19577786 48.51261711 0.21491814 C50.15883316 0.22379144 51.80506219 0.23052576 53.45129585 0.23507881 C55.75160698 0.24413017 58.05139377 0.26652727 60.3515625 0.29296875 C61.65996597 0.30360855 62.96836945 0.31424835 64.31642151 0.32521057 C67.40725686 0.58240442 69.09821715 0.84268252 71.61108398 2.59936523 C73.85707731 5.96835523 74.14171588 7.9668229 73.58764648 11.95483398 C71.62081211 17.28102147 67.13854389 21.08040996 63.18139648 25.0168457 C60.64170993 27.57627485 58.2282202 30.24853199 55.79858398 32.91186523 C51.36329811 37.7251336 46.89533702 42.5075027 42.42358398 47.28686523 C37.91458676 52.10770989 33.45128854 56.96235092 29.05566406 61.88720703 C26.17495502 65.08323187 23.25911138 68.24532042 20.33764648 71.40405273 C19.7850415 72.00209717 19.23243652 72.6001416 18.66308594 73.21630859 C17.31272871 74.67761409 15.96194971 76.1385298 14.61108398 77.59936523 C15.58255623 77.58484818 15.58255623 77.58484818 16.57365417 77.57003784 C23.3724405 77.47843236 30.16890559 77.45805682 36.96826172 77.47729492 C39.49861233 77.47535954 42.02901765 77.45583244 44.55908203 77.41772461 C69.99520218 77.05657283 69.99520218 77.05657283 79.14550781 85.88549805 C79.95914795 86.78107422 80.77278809 87.67665039 81.61108398 88.59936523 C83.16449294 90.03976185 84.72151142 91.47628049 86.28295898 92.90795898 C87.65163526 94.27501168 89.01111904 95.65133196 90.36108398 97.03686523 C91.08569824 97.77130859 91.8103125 98.50575195 92.55688477 99.26245117 C97.15506331 103.97126725 101.47052661 108.77500132 105.52905273 113.95874023 C107.43262343 116.37302502 109.41223713 118.70023419 111.42993164 121.01928711 C127.9431601 140.08343527 141.93978614 161.2675192 153.61108398 183.59936523 C154.00038086 184.34379883 154.38967773 185.08823242 154.79077148 185.85522461 C177.6909352 230.31074378 184.37626275 284.21660894 169.29858398 332.28686523 C166.38481898 341.05387682 162.92802919 349.42839459 158.61108398 357.59936523 C158.26287598 358.26162109 157.91466797 358.92387695 157.5559082 359.60620117 C152.86285542 368.4365232 147.76409486 376.69476732 141.61108398 384.59936523 C141.21727539 385.11112305 140.8234668 385.62288086 140.41772461 386.15014648 C135.55622705 392.46632471 130.5713607 398.6652118 125.45581055 404.77734375 C86.88375184 450.97398886 82.41634611 493.91277318 84.11108398 552.22436523 C86.1343423 621.92552455 86.1343423 621.92552455 78.61108398 646.59936523 C78.4103125 647.27 78.20954102 647.94063477 78.00268555 648.6315918 C72.87941203 665.35919824 64.95441378 681.22052765 53.61108398 694.59936523 C53.17070801 695.12191895 52.73033203 695.64447266 52.27661133 696.18286133 C33.86855688 717.77951094 9.84095195 731.19284115 -17.38891602 738.59936523 C-18.25258789 738.86233398 -19.11625977 739.12530273 -20.00610352 739.39624023 C-66.22351202 752.52466352 -117.65906263 742.85505002 -163.15844727 731.51831055 C-185.83428981 725.99355241 -209.158091 721.80131692 -232.38891602 719.59936523 C-233.1062793 719.53023926 -233.82364258 719.46111328 -234.56274414 719.38989258 C-279.34695777 715.3058654 -323.74791216 724.15790684 -367.50317383 732.65209961 C-395.05172022 737.9979441 -422.55584952 742.97388637 -450.38891602 746.59936523 C-451.68909668 746.77612793 -452.98927734 746.95289063 -454.32885742 747.13500977 C-463.99886571 748.42862955 -473.64709582 749.22185876 -483.38891602 749.72436523 C-484.57797043 749.78690491 -484.57797043 749.78690491 -485.79104614 749.85070801 C-542.49997394 752.74422707 -599.61714647 750.11304388 -655.09301758 737.35375977 C-658.5380555 736.56522886 -661.98935818 735.81131643 -665.44360352 735.06420898 C-683.9455978 731.04643548 -702.32678045 726.63415451 -720.52758789 721.4128418 C-722.60995608 720.82082381 -724.69496687 720.23807713 -726.78149414 719.66088867 C-761.86725674 709.94328428 -796.24245709 697.68081156 -829.38891602 682.59936523 C-830.62966969 682.03950287 -831.87055956 681.47994226 -833.11157227 680.9206543 C-849.58106267 673.4825546 -865.70235088 665.59551584 -881.38891602 656.59936523 C-882.3007666 656.08019531 -883.21261719 655.56102539 -884.15209961 655.02612305 C-902.07957231 644.78096321 -919.31532148 633.58503003 -935.38891602 620.59936523 C-935.90099609 620.19024902 -936.41307617 619.78113281 -936.94067383 619.35961914 C-975.05560158 588.6958184 -1005.71720085 548.00172794 -1011.95922852 498.27514648 C-1013.46453451 483.69211066 -1012.43300279 469.07584454 -1010.38891602 454.59936523 C-1010.2174707 453.38506836 -1010.04602539 452.17077148 -1009.86938477 450.91967773 C-1004.25082808 418.3682977 -987.91312103 389.03781652 -967.38891602 363.59936523 C-966.70853271 362.74858398 -966.70853271 362.74858398 -966.0144043 361.88061523 C-960.04666777 354.43600412 -960.04666777 354.43600412 -957.38891602 351.59936523 C-956.72891602 351.59936523 -956.06891602 351.59936523 -955.38891602 351.59936523 C-955.14141602 351.02186523 -954.89391602 350.44436523 -954.63891602 349.84936523 C-953.20591613 347.26996544 -951.60466925 345.53814932 -949.38891602 343.59936523 C-948.72891602 343.59936523 -948.06891602 343.59936523 -947.38891602 343.59936523 C-947.38891602 342.93936523 -947.38891602 342.27936523 -947.38891602 341.59936523 C-946.13110352 340.29467773 -946.13110352 340.29467773 -944.26391602 338.72436523 C-943.5252832 338.09916992 -942.78665039 337.47397461 -942.02563477 336.82983398 C-941.15551758 336.0937793 -940.28540039 335.35772461 -939.38891602 334.59936523 C-937.91358398 333.29418945 -937.91358398 333.29418945 -936.40844727 331.96264648 C-915.74978802 313.73478344 -892.63167814 298.67056071 -868.37963867 285.67700195 C-866.57098305 284.69792347 -864.78145178 283.68372105 -862.99438477 282.66577148 C-831.16691357 264.84386969 -793.81602817 250.63168151 -757.38891602 247.59936523 C-757.51266602 246.69186523 -757.63641602 245.78436523 -757.76391602 244.84936523 C-757.73264361 237.14071612 -752.73083054 229.62635887 -747.63891602 224.16186523 C-739.99757208 217.09472633 -731.68132073 214.44614567 -721.48196411 214.47238159 C-720.56004583 214.4708216 -719.63812755 214.46926161 -718.68827236 214.46765435 C-715.58602945 214.4636523 -712.48383511 214.46683097 -709.3815918 214.4699707 C-707.16268892 214.46861629 -704.94378626 214.46683613 -702.72488403 214.46466064 C-696.68772283 214.46009053 -690.65057866 214.46187429 -684.61341715 214.46503973 C-678.30297708 214.46756612 -671.99253851 214.46522495 -665.68209839 214.46365356 C-654.40160746 214.46171566 -643.1211252 214.46482999 -631.840636 214.4699129 C-621.61339866 214.47437861 -611.38617268 214.47360662 -601.15893555 214.46899414 C-589.28555413 214.46364176 -577.41217821 214.46165124 -565.53879535 214.4646064 C-559.25257715 214.46616682 -552.96636678 214.4663694 -546.68014908 214.46306992 C-540.76885829 214.46018419 -534.85758897 214.46217988 -528.94630051 214.46796417 C-526.77467128 214.46928811 -524.60304026 214.46890384 -522.43141174 214.46670151 C-519.47086172 214.46397562 -516.5103808 214.46738891 -513.54983521 214.47238159 C-512.25571958 214.46903551 -512.25571958 214.46903551 -510.93546021 214.46562183 C-506.93164902 214.47874925 -503.30822042 214.69448279 -499.38891602 215.59936523 C-496.55882746 215.70503845 -493.75413528 215.76290875 -490.92407227 215.76733398 C-489.6922673 215.77375412 -489.6922673 215.77375412 -488.43557739 215.78030396 C-485.77413494 215.79030431 -483.11287374 215.79035417 -480.45141602 215.78686523 C-479.54332184 215.78592865 -478.63522766 215.78499207 -477.69961548 215.7840271 C-445.9016261 215.71267047 -415.81560854 211.05976543 -385.38891602 201.59936523 C-384.53313965 201.33430176 -383.67736328 201.06923828 -382.7956543 200.79614258 C-336.52094531 186.17777046 -296.25198619 158.90450676 -257.38891602 130.59936523 C-245.69537338 122.09942634 -233.92422334 113.72305073 -222.05883789 105.46459961 C-219.28169127 103.52445694 -216.5144304 101.57078899 -213.74829102 99.61499023 C-195.60057342 86.82135573 -176.98798468 75.04608193 -157.38891602 64.59936523 C-156.74212891 64.25067383 -156.0953418 63.90198242 -155.42895508 63.54272461 C-138.68358848 54.57413605 -120.68560752 47.67339618 -102.38891602 42.59936523 C-101.74921875 42.42066895 -101.10952148 42.24197266 -100.45043945 42.05786133 C-63.07657225 31.83223825 -24.04859834 33.82252757 12.57543945 46.0246582 C15.39649798 46.95962501 17.61364551 47.59936523 20.61108398 47.59936523 C22.50350016 46.11220017 22.50350016 46.11220017 24.36108398 44.09936523 C25.41875977 43.00301758 25.41875977 43.00301758 26.49780273 41.88452148 C29.02296596 39.15398454 31.46504508 36.36161098 33.88842773 33.54077148 C36.09492297 31.05408638 38.44137187 28.73806419 40.83764648 26.43530273 C42.38493646 24.83348272 43.80271789 23.19851407 45.22192383 21.48461914 C46.01034668 20.53248535 46.79876953 19.58035156 47.61108398 18.59936523 C46.94789154 18.59794022 46.2846991 18.5965152 45.60140991 18.595047 C38.69031571 18.57533989 31.78010353 18.52104362 24.86938477 18.44677734 C22.29132416 18.42359976 19.71316891 18.40920223 17.13500977 18.40380859 C13.42591375 18.39451799 9.71830617 18.35352011 6.00952148 18.30639648 C4.85930511 18.31032913 3.70908875 18.31426178 2.52401733 18.3183136 C-6.41904028 18.15575725 -6.41904028 18.15575725 -10.12084961 15.27392578 C-12.38891602 12.59936523 -12.38891602 12.59936523 -13.07641602 9.09936523 C-11.61400806 1.65437928 -7.05691219 -0.02733207 0 0 Z " fill="#C2DBF3" transform="translate(1160.388916015625,128.400634765625)"/>
<path d="M0 0 C2.5298402 0.19724103 4.95125061 0.28025018 7.48144531 0.27124023 C8.24117142 0.27646698 9.00089752 0.28169373 9.78364563 0.28707886 C11.43364648 0.29732021 13.08367966 0.3030995 14.73371124 0.30496025 C17.34881149 0.30862272 19.96353208 0.32534755 22.57855225 0.34571838 C30.01372196 0.401131 37.4489485 0.43176352 44.88427734 0.45629883 C49.43308576 0.4722139 53.98162678 0.50247861 58.53029633 0.54106331 C60.26053773 0.55268326 61.99082706 0.5586434 63.72110748 0.55874443 C66.1480125 0.55893746 68.57418576 0.57727583 71.00097656 0.59936523 C71.70980484 0.59478806 72.41863312 0.59021088 73.14894104 0.585495 C79.46608222 0.67645947 83.98973032 2.21817005 88.75 6.4375 C92.97680368 11.25135975 95.11542057 14.36886229 95.14717102 20.90055847 C95.15790398 22.4165715 95.15790398 22.4165715 95.16885376 23.96321106 C95.17288712 25.62533882 95.17288712 25.62533882 95.17700195 27.32104492 C95.18685875 29.07269958 95.18685875 29.07269958 95.19691467 30.85974121 C95.21666267 34.73331768 95.22831398 38.60685534 95.23828125 42.48046875 C95.24233001 43.81602817 95.24644697 45.15158738 95.25063133 46.48714638 C95.26968026 52.76410008 95.28391039 59.04104205 95.2922433 65.31801909 C95.30200689 72.5524821 95.3283043 79.78663841 95.36874419 87.02099341 C95.39896001 92.61943666 95.41371744 98.2177923 95.41702431 103.81631547 C95.41936918 107.15680233 95.4302429 110.49670193 95.45348549 113.83714867 C95.47783637 117.56900788 95.47691857 121.30006805 95.4699707 125.03198242 C95.48278076 126.12994644 95.49559082 127.22791046 95.50878906 128.35914612 C95.46079046 135.44282129 94.50276313 141.13442225 89.62341785 146.5191679 C83.58468472 151.98327005 77.27622173 152.29366589 69.56956673 152.26006222 C68.62292792 152.26386789 67.67628911 152.26767356 66.70096427 152.27159455 C63.51674374 152.28193238 60.33270074 152.27800009 57.14846802 152.27415466 C54.84735085 152.27860585 52.54623521 152.2839195 50.24512184 152.29002339 C43.91203289 152.30422773 37.57899297 152.30586622 31.24589038 152.30542648 C25.12036173 152.30593565 18.99484915 152.31770859 12.869331 152.32811778 C-1.98394632 152.35285661 -16.83721248 152.36164023 -31.69050758 152.36665427 C-32.45968382 152.36691544 -33.22886005 152.36717662 -34.02134466 152.36744571 C-35.17741146 152.36783612 -35.17741146 152.36783612 -36.35683313 152.36823442 C-44.89632887 152.37131631 -53.4358215 152.37782085 -61.97531509 152.3844471 C-87.76380449 152.40409373 -113.55229053 152.42049923 -139.34078789 152.42332363 C-140.57804516 152.42346472 -140.57804516 152.42346472 -141.84029753 152.42360866 C-145.18304151 152.42398715 -148.52578549 152.42435114 -151.86852947 152.42471164 C-154.38452095 152.42498336 -156.90051243 152.42526004 -159.41650391 152.42553711 C-160.24788274 152.42562513 -161.07926157 152.42571315 -161.9358337 152.42580384 C-188.06484036 152.42871002 -214.19377308 152.45081296 -240.32275391 152.48706055 C-269.67215116 152.52777456 -299.02149803 152.5514821 -328.37092507 152.55178314 C-331.49963451 152.55187997 -334.62834394 152.55204669 -337.75705338 152.55226326 C-338.91262275 152.55232943 -338.91262275 152.55232943 -340.09153696 152.55239694 C-352.49549351 152.55351736 -364.89937604 152.57093421 -377.30330874 152.59408258 C-389.76617203 152.61690976 -402.22893516 152.62116025 -414.69181167 152.60653328 C-421.44518231 152.59909284 -428.19828074 152.60030722 -434.95162582 152.62294388 C-441.13113751 152.64345915 -447.31019375 152.64100288 -453.48970009 152.62006903 C-455.72787507 152.61655992 -457.96608242 152.62154378 -460.20421492 152.63577347 C-463.24266024 152.65384987 -466.27948886 152.64120368 -469.31788445 152.62082577 C-470.19037801 152.63338914 -471.06287157 152.64595251 -471.96180433 152.6588966 C-478.82531009 152.56010943 -483.59264321 150.29574718 -488.5280972 145.52195635 C-492.52234578 141.00858537 -494.24461361 136.83200883 -494.26742554 130.85220337 C-494.27595551 129.83733353 -494.28448547 128.82246368 -494.29327393 127.77684021 C-494.29236755 126.67437454 -494.29146118 125.57190887 -494.29052734 124.43603516 C-494.29724457 123.26636703 -494.30396179 122.09669891 -494.31088257 120.8915863 C-494.32988423 117.02403519 -494.33378783 113.15665739 -494.3359375 109.2890625 C-494.33878511 107.95409443 -494.34197705 106.61912705 -494.34550858 105.28416061 C-494.36399756 98.29293853 -494.37218058 91.30179259 -494.37060547 84.31054688 C-494.36940426 77.80471281 -494.3905051 71.2992106 -494.4220928 64.79346049 C-494.44828598 59.19837632 -494.4589715 53.60340034 -494.45769465 48.00825536 C-494.45718591 44.67065076 -494.46467101 41.33357592 -494.48405075 37.99599075 C-494.50365395 34.27129857 -494.49789396 30.54745994 -494.48583984 26.82275391 C-494.49707886 25.7243367 -494.50831787 24.62591949 -494.51989746 23.49421692 C-494.46043571 16.2607631 -493.43677517 11.75467688 -488.4375 6.29296875 C-483.0263489 2.13167592 -480.01642098 0.75072934 -473.12309742 0.74108028 C-472.4282368 0.73738382 -471.73337618 0.73368735 -471.01745918 0.72987887 C-468.67772705 0.71987393 -466.3382362 0.72413105 -463.99848938 0.72825623 C-462.30870412 0.72397124 -460.6189209 0.7188087 -458.92914075 0.71284157 C-454.27684922 0.69894619 -449.62462298 0.69748587 -444.97231376 0.69798481 C-439.95867006 0.69635063 -434.94505528 0.68323026 -429.931427 0.67144775 C-421.24178997 0.652563 -412.55216702 0.64086559 -403.86251259 0.63390923 C-391.29756567 0.62375322 -378.73266145 0.6016999 -366.16773667 0.57652331 C-345.78167389 0.53590683 -325.39560704 0.50345172 -305.00952148 0.47680664 C-303.1785658 0.47441069 -303.1785658 0.47441069 -301.31062111 0.47196633 C-300.08842097 0.47036743 -298.86622083 0.46876853 -297.60698432 0.46712118 C-280.27110786 0.44442409 -262.93523559 0.41979356 -245.59936523 0.39282227 C-244.37930034 0.39092612 -243.15923545 0.38902997 -241.90219889 0.38707637 C-221.5900883 0.35534493 -201.27798593 0.31959919 -180.96588582 0.28178078 C-168.4254157 0.25869314 -155.88495121 0.23975615 -143.34446719 0.22611404 C-134.76030674 0.21661506 -126.17615571 0.20379032 -117.59200398 0.18830519 C-112.63197318 0.17950491 -107.67195411 0.17242321 -102.71191597 0.16966438 C-98.17908964 0.16712821 -93.64629416 0.16010462 -89.11347999 0.14939214 C-87.46621948 0.14633142 -85.81895475 0.14499592 -84.17169145 0.14548045 C-81.94755012 0.14590498 -79.72350676 0.14030344 -77.49937916 0.13307858 C-75.63953379 0.13071773 -75.63953379 0.13071773 -73.7421158 0.12830919 C-71.08807038 0.3124981 -71.08807038 0.3124981 -70 -1 C-68.14712498 -1.07226502 -66.29166122 -1.0838122 -64.4375 -1.0625 C-63.42558594 -1.05347656 -62.41367187 -1.04445313 -61.37109375 -1.03515625 C-60.58863281 -1.02355469 -59.80617188 -1.01195312 -59 -1 C-58.99589111 -0.32533691 -58.99178223 0.34932617 -58.98754883 1.04443359 C-58.95428292 4.15546161 -58.88360492 7.26461565 -58.8125 10.375 C-58.80669922 11.43589844 -58.80089844 12.49679687 -58.79492188 13.58984375 C-58.56839447 21.7951697 -56.919288 28.78135144 -51.19726562 34.94042969 C-45.84703852 39.856605 -40.9434544 41.56172828 -33.69140625 41.3671875 C-27.8925919 40.57605753 -23.05262469 38.26891366 -19.109375 33.91015625 C-13.61353738 26.1066004 -12.68072368 18.38070305 -12.375 9.0625 C-12.33632812 8.09248047 -12.29765625 7.12246094 -12.2578125 6.12304688 C-12.16424924 3.74887924 -12.07850792 1.37470508 -12 -1 C-10.56465159 -1.2226746 -9.12654475 -1.42761906 -7.6875 -1.625 C-6.88699219 -1.74101563 -6.08648438 -1.85703125 -5.26171875 -1.9765625 C-3 -2 -3 -2 0 0 Z " fill="#FEFEFE" transform="translate(1062,642)"/>
<path d="M0 0 C0.89064103 0.00223072 1.78128205 0.00446144 2.6989122 0.00675976 C3.63757254 0.00519977 4.57623288 0.00363978 5.54333746 0.00203252 C8.71407218 -0.00198183 11.8847597 0.00121385 15.05549484 0.00434887 C17.31837864 0.00299502 19.58126221 0.00121517 21.84414536 -0.00096118 C28.00931853 -0.00553763 34.17447506 -0.00374503 40.33964854 -0.0005821 C46.77695932 0.00194073 53.21426861 -0.00039585 59.65157944 -0.00196826 C71.15894582 -0.0039072 82.66630365 -0.00078927 94.17366869 0.00429107 C104.61507545 0.00875805 115.0564711 0.00798408 125.49787766 0.00337231 C137.6103676 -0.00197501 149.7228488 -0.00397337 161.83534014 -0.00101542 C168.25171927 0.00054718 174.66809074 0.00074158 181.08446938 -0.00255191 C187.11637821 -0.00543147 193.14826596 -0.00345335 199.1801725 0.00234234 C201.39982432 0.00366954 203.6194779 0.0032765 205.83912903 0.00107968 C208.8577627 -0.00163342 211.87632787 0.00175133 214.89495713 0.00675976 C216.22757258 0.00341368 216.22757258 0.00341368 217.58710957 0 C223.63212667 0.0195935 223.63212667 0.0195935 225.86042649 1.13374341 C225.86042649 75.71374341 225.86042649 150.29374341 225.86042649 227.13374341 C200.45042649 227.46374341 175.04042649 227.79374341 148.86042649 228.13374341 C138.98836431 231.4244308 133.17831035 234.09673552 127.86823899 243.00874341 C124.90898596 249.2484087 124.5569119 254.66222775 124.54157883 261.45356762 C124.53142557 262.49507033 124.52127232 263.53657303 124.51081139 264.60963643 C124.48026131 267.96923122 124.46304349 271.32874163 124.44636399 274.68843091 C124.42942306 276.7672957 124.41160571 278.84615354 124.39289719 280.92500317 C124.32978808 288.61950348 124.28363059 296.31413528 124.23542649 304.00874341 C124.11167649 321.20999341 123.98792649 338.41124341 123.86042649 356.13374341 C80.63042649 356.13374341 37.40042649 356.13374341 -7.13957351 356.13374341 C-7.16159887 310.92586279 -7.18007073 265.71798722 -7.19063884 220.51010278 C-7.19188962 215.1788391 -7.19318394 209.84757543 -7.19450516 204.51631176 C-7.19476747 203.45490583 -7.19502978 202.3934999 -7.19530004 201.29993015 C-7.19965716 184.08994379 -7.20754494 166.87996075 -7.21672631 149.66997636 C-7.22606167 132.02482811 -7.23162887 114.37968161 -7.23366201 96.73453099 C-7.23503748 85.83727602 -7.23938938 74.94003044 -7.24748998 64.04277837 C-7.25275599 56.58084082 -7.25437814 49.11890817 -7.25307489 41.6569689 C-7.25243128 37.34504619 -7.25345159 33.03313995 -7.25877899 28.72122014 C-7.26361267 24.78037504 -7.26391238 20.83955763 -7.26047241 16.89871132 C-7.26004668 15.46667014 -7.26134269 14.03462729 -7.2644567 12.60258944 C-7.26842028 10.66871619 -7.26573005 8.73483261 -7.26262134 6.8009578 C-7.26300106 5.72293178 -7.26338078 4.64490576 -7.26377201 3.53421229 C-7.01756834 -1.22433375 -4.07569255 0.01325335 0 0 Z " fill="#FEFEFE" transform="translate(435.1395735144615,406.8662565946579)"/>
<path d="M0 0 C0.90703393 -0.00453111 1.81406786 -0.00906223 2.74858767 -0.01373065 C5.7707226 -0.02633372 8.79267638 -0.02475694 11.81483459 -0.02310181 C13.9885786 -0.0290895 16.16232047 -0.0358956 18.33605957 -0.04345703 C24.2285756 -0.06109694 30.12103352 -0.06581149 36.01357341 -0.0670886 C39.69689648 -0.06851158 43.38020484 -0.0727839 47.06352425 -0.07808304 C59.91846274 -0.09657471 72.7733598 -0.10475448 85.62831116 -0.10317993 C97.60375816 -0.10197787 109.5789517 -0.1230951 121.55435747 -0.15466726 C131.84417948 -0.18082717 142.13394266 -0.19154738 152.42379767 -0.19026911 C158.56593095 -0.18975952 164.70790409 -0.19544189 170.8500042 -0.21662521 C176.62603843 -0.23600331 182.40175961 -0.23613475 188.17780495 -0.22159195 C190.29454888 -0.21950244 192.41131239 -0.22421316 194.52802277 -0.23631287 C197.42375186 -0.25179058 200.31840476 -0.24244036 203.21411133 -0.22705078 C204.46228831 -0.24248147 204.46228831 -0.24248147 205.735681 -0.25822389 C213.35093991 -0.16914584 220.18834595 2.42954198 225.98304749 7.45492554 C226.5979303 7.96410522 227.21281311 8.47328491 227.84632874 8.99789429 C233.32916129 15.81914849 234.25103248 22.8220048 234.15156555 31.33421326 C234.15498325 32.41587735 234.15840095 33.49754145 234.16192222 34.61198324 C234.16848528 38.21884 234.14655003 41.82494454 234.12464905 45.43173218 C234.12352024 48.02415957 234.12415509 50.61658824 234.12641907 53.20901489 C234.12851095 58.781263 234.11601911 64.35332297 234.09346771 69.92552376 C234.0608841 77.98184099 234.05053422 86.03806775 234.04551575 94.09444373 C234.03677304 107.16704841 234.01018535 120.23955293 233.9723053 133.31210327 C233.93555864 146.00675965 233.9072599 158.70138878 233.89027405 171.39608765 C233.88922315 172.17930297 233.88817226 172.9625183 233.88708952 173.76946742 C233.88186916 177.69884228 233.87681438 181.62821733 233.87184191 185.55759251 C233.83041178 218.12761043 233.75969287 250.69750288 233.67054749 283.26742554 C228.39054749 283.26742554 223.11054749 283.26742554 217.67054749 283.26742554 C217.67054749 208.68742554 217.67054749 134.10742554 217.67054749 57.26742554 C141.11054749 57.26742554 64.55054749 57.26742554 -14.32945251 57.26742554 C-14.65945251 174.41742554 -14.98945251 291.56742554 -15.32945251 412.26742554 C27.90054749 412.26742554 71.13054749 412.26742554 115.67054749 412.26742554 C116.00054749 417.21742554 116.33054749 422.16742554 116.67054749 427.26742554 C119.44996149 436.5677724 123.78962991 443.40997133 132.42054749 448.20492554 C137.94726409 451.05524267 141.78212992 450.64120576 148.67054749 451.26742554 C149.00054749 459.51742554 149.33054749 467.76742554 149.67054749 476.26742554 C128.5734822 476.38326698 107.47649376 476.47244793 86.37917423 476.5264864 C76.58287783 476.55224652 66.78678291 476.58735512 56.99061584 476.6446228 C48.45031437 476.6945249 39.91015885 476.72673248 31.36971563 476.73786801 C26.84931105 476.74437526 22.32932394 476.75962322 17.80905342 476.79607582 C13.54986489 476.83014305 9.29126375 476.84045702 5.0319519 476.83296394 C3.47313171 476.83433372 1.91429084 476.84420251 0.35558891 476.86345291 C-9.76130571 476.98221671 -16.72759925 475.93880148 -24.63414001 469.34555054 C-25.4114447 468.44062866 -25.4114447 468.44062866 -26.20445251 467.51742554 C-26.73812439 466.92445679 -27.27179626 466.33148804 -27.82164001 465.72055054 C-33.36962535 456.69429461 -32.75335622 447.02502777 -32.71040344 436.83857727 C-32.71386246 435.05459465 -32.71862867 433.27061416 -32.72458518 431.48663813 C-32.73709111 426.59687886 -32.73092661 421.7072956 -32.72162652 416.81753576 C-32.71483479 411.53936096 -32.72531785 406.26121629 -32.73356628 400.98304749 C-32.74690417 390.64832141 -32.74402569 380.31366071 -32.73532836 369.97893208 C-32.72855282 361.58008645 -32.72763454 353.18125915 -32.73089981 344.78241158 C-32.73135951 343.58698471 -32.73181921 342.39155785 -32.73229284 341.15990593 C-32.73325201 338.73142158 -32.73422465 336.30293724 -32.73521061 333.8744529 C-32.74376458 311.1044233 -32.73393007 288.33442994 -32.71780951 265.56440628 C-32.70440462 246.02520901 -32.70673584 226.48606521 -32.7205658 206.9468689 C-32.73661852 184.25668268 -32.74294241 161.56652821 -32.733729 138.87633711 C-32.73277336 136.45709932 -32.73183024 134.03786153 -32.73089981 131.61862373 C-32.73043698 130.42830868 -32.72997416 129.23799364 -32.72949731 128.01160843 C-32.72690663 119.62200364 -32.73128007 111.23241898 -32.73833847 102.84281731 C-32.74675015 92.62000852 -32.74448019 82.39726884 -32.72849624 72.17446797 C-32.72060937 66.9583143 -32.71752911 61.74227588 -32.7274437 56.52612305 C-32.73638226 51.75127488 -32.73147145 46.97664882 -32.71551104 42.2018208 C-32.71215973 40.47450488 -32.71386518 38.7471702 -32.7211384 37.01986634 C-32.73027115 34.67076886 -32.72089425 32.32243051 -32.70697594 29.97337246 C-32.70648888 28.66897541 -32.70600182 27.36457837 -32.70550001 26.02065414 C-31.91591085 18.13997775 -28.55835724 11.17580203 -22.73179626 5.79086304 C-15.93811025 0.4982876 -8.32892146 -0.03091797 0 0 Z " fill="#D9E7F6" transform="translate(443.32945251464844,350.7325744628906)"/>
<path d="M0 0 C0.91839045 -0.00297112 1.8367809 -0.00594224 2.78300136 -0.0090034 C5.87356745 -0.0177045 8.96409486 -0.01919986 12.05467224 -0.02069092 C14.26546309 -0.0253182 16.47625313 -0.03034274 18.68704224 -0.03573608 C24.70387276 -0.04887332 30.72069213 -0.05530797 36.73753476 -0.05974674 C40.49671597 -0.06267618 44.25589411 -0.06678081 48.01507378 -0.07125092 C58.42844392 -0.08336308 68.84181191 -0.09374325 79.25518894 -0.09712601 C80.25502768 -0.09745536 80.25502768 -0.09745536 81.27506518 -0.09779136 C81.94320453 -0.09800964 82.61134388 -0.09822791 83.29972988 -0.09845281 C84.65359088 -0.09889627 86.00745187 -0.09934283 87.36131287 -0.09979248 C88.0328722 -0.10001391 88.70443153 -0.10023534 89.39634114 -0.10046348 C100.26612331 -0.10440734 111.13583827 -0.12184778 122.0055945 -0.145152 C133.17251921 -0.1688994 144.33941947 -0.1810718 155.50637192 -0.18249393 C161.77322413 -0.18354153 168.03998164 -0.18943959 174.30681038 -0.20731354 C180.20584748 -0.22381027 186.10471886 -0.22594182 192.00377083 -0.21717453 C194.16524195 -0.21640494 196.32672202 -0.22073655 198.48817062 -0.23063278 C201.44714361 -0.24338229 204.40553238 -0.23745893 207.36450195 -0.22705078 C208.21268149 -0.23510719 209.06086104 -0.24316359 209.93474299 -0.25146413 C220.45711231 -0.16535944 229.24835422 3.13444448 237.12669373 10.14044189 C244.94338823 19.03067384 247.7450384 29.78001957 247.60771179 41.37181091 C247.61112949 42.44701675 247.61454719 43.52222259 247.61806846 44.63001043 C247.62461354 48.20302059 247.60272638 51.77526559 247.58079529 55.34820557 C247.57966609 57.92122378 247.58030209 60.49424328 247.58256531 63.06726074 C247.58465463 68.59145594 247.5721898 74.115461 247.54961395 79.63960838 C247.51699528 87.62639547 247.5066769 95.61309136 247.50166199 103.59993783 C247.49292474 116.56051268 247.46635197 129.52098637 247.42845154 142.48150635 C247.39169067 155.0654856 247.36339891 167.64943731 247.34642029 180.23345947 C247.34536939 181.01017536 247.3443185 181.78689125 247.34323576 182.58714398 C247.33801531 186.48400943 247.33296055 190.38087507 247.32798815 194.27774084 C247.28657504 226.56538135 247.21616962 258.85289753 247.12669373 291.14044189 C248.08986715 291.13873315 248.08986715 291.13873315 249.07249862 291.13698989 C287.10062228 291.06990547 325.12873722 291.01840744 363.1569079 290.98724591 C367.71950914 290.98349363 372.28211025 290.97961068 376.8447113 290.97564697 C377.75307126 290.97486004 378.66143122 290.97407311 379.59731724 290.97326233 C394.31958989 290.96019623 409.04182752 290.93653579 423.76407937 290.90898351 C438.86218735 290.88096276 453.96027695 290.8642727 469.05840987 290.85817641 C478.38030251 290.85405304 487.70209617 290.84101384 497.02395835 290.81669249 C503.40991869 290.80087638 509.7958276 290.79603214 516.18180612 290.79993776 C519.87025607 290.80186577 523.55853267 290.79883971 527.24695206 290.78282547 C531.23967132 290.76561595 535.23216212 290.77145099 539.22491455 290.77967834 C540.39902431 290.77093982 541.57313407 290.7622013 542.78282291 290.75319797 C543.84774831 290.75917111 544.91267371 290.76514426 546.00986958 290.77129841 C547.3933806 290.76958967 547.3933806 290.76958967 548.80484134 290.76784641 C551.12669373 291.14044189 551.12669373 291.14044189 552.96212023 292.49945086 C554.12669373 294.14044189 554.12669373 294.14044189 553.87669373 296.76544189 C553.12669373 299.14044189 553.12669373 299.14044189 552.12669373 300.14044189 C549.96580544 300.23899939 547.80162252 300.26523197 545.63848782 300.26514053 C544.94918591 300.26648477 544.259884 300.267829 543.54969415 300.26921397 C541.21079115 300.27255634 538.87195225 300.26871851 536.53305054 300.26501465 C534.85084536 300.26599986 533.1686404 300.26743614 531.48643595 300.26928782 C527.81382165 300.27235836 524.14122546 300.2722307 520.46861076 300.26973152 C514.49412936 300.26568633 508.51966225 300.26843355 502.54518127 300.27207947 C494.996667 300.27617617 487.4481559 300.27840924 479.89964051 300.27849546 C465.06430479 300.27869786 450.2290019 300.29113862 435.39367676 300.30810547 C433.06042241 300.31071135 430.72716805 300.31331016 428.39391369 300.31590199 C424.85727747 300.3198406 421.32064126 300.32378709 417.78400509 300.32776321 C404.43835637 300.3427209 391.09270664 300.35633923 377.74705505 300.36846924 C376.5265576 300.3695828 375.30606014 300.37069636 374.04857791 300.37184367 C354.27617019 300.38941361 334.50378294 300.39228824 314.73136871 300.39061883 C294.44528062 300.38934026 274.1592688 300.40706507 253.87321001 300.4416368 C241.35362796 300.46230559 228.83422844 300.46760996 216.31463666 300.45330849 C207.73361608 300.44485588 199.15273752 300.45456409 190.57174694 300.478618 C185.61885797 300.4919397 180.6663095 300.49708953 175.71342278 300.48049736 C171.17865832 300.46547385 166.64453596 300.47344348 162.10982782 300.4996669 C160.46975878 300.50508941 158.82963549 300.50207559 157.1896038 300.48974994 C145.2018437 300.28108771 145.2018437 300.28108771 135.12669373 306.14044189 C131.23840147 310.32783356 130.00699854 313.3886782 129.97952271 319.04100037 C129.9723674 320.05167572 129.9652121 321.06235107 129.95783997 322.10365295 C129.95515106 323.21173813 129.95246216 324.3198233 129.94969177 325.46148682 C129.93983498 327.21314148 129.93983498 327.21314148 129.92977905 329.00018311 C129.91003105 332.87375957 129.89837974 336.74729724 129.88841248 340.62091064 C129.88436371 341.95647006 129.88024676 343.29202927 129.87606239 344.62758827 C129.85701347 350.90454197 129.84278333 357.18148395 129.83445042 363.45846099 C129.82468683 370.69292399 129.79838942 377.92708031 129.75794953 385.16143531 C129.72773371 390.75987856 129.71297629 396.35823419 129.70966941 401.95675737 C129.70732455 405.29724423 129.69645082 408.63714382 129.67320824 411.97759056 C129.64885735 415.70944978 129.64977516 419.44050995 129.65672302 423.17242432 C129.64391296 424.27038834 129.63110291 425.36835236 129.61790466 426.49958801 C129.66565927 433.54725325 130.55912551 439.39593516 135.57407665 444.65960979 C139.46343193 448.05601244 142.9829584 450.38906434 148.19104403 450.39344156 C149.40083895 450.40172079 149.40083895 450.40172079 150.63507417 450.41016728 C151.51721824 450.40605664 152.39936232 450.401946 153.30823803 450.3977108 C154.72428532 450.40296991 154.72428532 450.40296991 156.16893962 450.40833527 C159.35634661 450.41769541 162.54357273 450.41271406 165.73098755 450.40786743 C168.02966566 450.41160138 170.32834251 450.41620187 172.62701732 450.42159808 C178.96269704 450.4338753 185.29832414 450.43356206 191.63401306 450.43120933 C197.75926327 450.42987507 203.88450063 450.43981488 210.00974322 450.4484351 C224.09058375 450.46779721 238.17140975 450.47340417 252.25226202 450.47454922 C263.12594914 450.47546769 273.99963055 450.47958114 284.87331581 450.48595047 C288.00134509 450.48774552 291.12937438 450.48952515 294.25740367 450.49130023 C295.03500838 450.49174232 295.8126131 450.49218442 296.61378159 450.49263991 C318.4929894 450.50495207 340.37219524 450.51284067 362.25140667 450.51195335 C363.07665166 450.5119222 363.90189666 450.51189104 364.75214908 450.51185894 C368.93498861 450.51169272 373.11782814 450.51149464 377.30066767 450.51128952 C378.13141786 450.51124963 378.96216806 450.51120974 379.81809251 450.51116864 C381.49807337 450.51108777 383.17805424 450.51100417 384.8580351 450.51091786 C410.99342729 450.50969246 437.12876757 450.52470194 463.2641449 450.55206299 C492.61683215 450.58277945 521.96948529 450.59999571 551.32218963 450.59813654 C554.45179069 450.59798728 557.58139175 450.59788987 560.71099281 450.59782791 C561.48159797 450.5978046 562.25220313 450.59778129 563.04615996 450.59775728 C575.45187545 450.59769571 587.85754592 450.61047229 600.26324802 450.62769244 C612.73084481 450.64464059 625.19837569 450.64662923 637.66597762 450.6334738 C644.42144646 450.62673008 651.17674222 450.62688 657.93219757 450.6441803 C664.11487216 450.65985109 670.29725319 450.65710853 676.47992036 450.63961203 C678.71817083 450.63652891 680.95644288 450.6402236 683.1946679 450.65133218 C686.23544945 450.66542592 689.27519744 450.65488777 692.31594372 450.63821983 C693.62160108 450.65312437 693.62160108 450.65312437 694.95363536 450.66833001 C700.95616006 450.5986958 705.99781971 449.36577362 711.12669373 446.14044189 C715.37890479 441.69584215 717.24656668 437.32338639 717.26713562 431.22642517 C717.27284576 430.2128595 717.27855591 429.19929382 717.28443909 428.15501404 C717.28555695 427.04378677 717.2866748 425.93255951 717.28782654 424.78765869 C717.29279144 423.61667633 717.29775635 422.44569397 717.3028717 421.23922729 C717.31497989 418.02628873 717.32243845 414.81338655 717.32688236 411.6004293 C717.32981518 409.59208951 717.3339204 407.5837554 717.33838654 405.57541847 C717.35205885 399.28885445 717.36172661 393.00230346 717.36558843 386.7157256 C717.37006766 379.46431863 717.38761026 372.2131003 717.41658902 364.96175069 C717.43822299 359.35314636 717.44829363 353.74459503 717.44962955 348.13594943 C717.45067643 344.78779847 717.45800891 341.43996577 717.47444916 338.09183311 C717.49148892 334.35487932 717.48963412 330.61838549 717.48313904 326.88140869 C717.49235382 325.77625412 717.5015686 324.67109955 717.51106262 323.53245544 C717.47231288 316.42128299 716.54767296 312.03216709 711.87669373 306.45294189 C706.34667117 301.80269566 701.19775431 300.69415157 694.11180115 300.73980713 C693.34345947 300.73282806 692.5751178 300.725849 691.78349304 300.71865845 C689.26626876 300.69880412 686.74945775 300.69918237 684.23216248 300.69903564 C682.4757477 300.68725698 680.71934291 300.67389156 678.96295166 300.65901184 C674.35571545 300.62292628 669.74856789 300.6026487 665.14122009 300.58746338 C657.74943953 300.56256771 650.35785453 300.52311005 642.9662571 300.46556282 C640.38363717 300.44920335 637.80120179 300.44545446 635.21853638 300.44255066 C633.64389216 300.43277975 632.0692509 300.42251736 630.49461365 300.41168213 C629.77409317 300.41423508 629.05357269 300.41678802 628.31121826 300.41941833 C623.35418071 300.36792888 623.35418071 300.36792888 621.12669373 298.14044189 C621.45640852 294.84329397 621.74937763 293.51775799 624.12669373 291.14044189 C626.54833356 290.93700029 628.85612085 290.85719148 631.27928162 290.86578369 C632.01614197 290.86067276 632.75300232 290.85556183 633.51219177 290.85029602 C635.95799302 290.83635332 638.4035136 290.83736154 640.84934998 290.83966064 C642.55129094 290.83577366 644.25323094 290.83143899 645.95516968 290.82667542 C649.53052403 290.81920127 653.10577969 290.81951118 656.68113708 290.82476807 C661.24507555 290.83053649 665.80860472 290.8137016 670.37247562 290.79042339 C673.89256117 290.77562253 677.4125499 290.77482343 680.93266106 290.77793312 C682.61383811 290.77742217 684.29502092 290.77222726 685.97616768 290.7621212 C698.33305029 290.69701047 708.65856153 291.25036409 718.12669373 300.14044189 C723.02019576 305.67411381 726.37009898 310.81966693 726.38739014 318.395401 C726.39447495 319.43406815 726.40155975 320.47273529 726.40885925 321.5428772 C726.40638184 322.67182404 726.40390442 323.80077087 726.40135193 324.96392822 C726.40646286 326.16125076 726.41157379 327.3585733 726.4168396 328.59217834 C726.42834674 331.86922181 726.43081077 335.14610818 726.4282763 338.42316651 C726.42720458 341.16398977 726.4320953 343.90478985 726.43688172 346.64560813 C726.44796948 353.11599036 726.44841899 359.58631453 726.44236755 366.05670166 C726.43633291 372.71810195 726.44862735 379.37929075 726.46993762 386.04065496 C726.48759065 391.77078333 726.49354901 397.50084463 726.49029988 403.23099917 C726.48849215 406.64843572 726.49107154 410.06572153 726.50501442 413.48313332 C726.51737143 417.29851105 726.51059048 421.11340184 726.49900818 424.92877197 C726.50665192 426.05164612 726.51429565 427.17452026 726.52217102 428.3314209 C726.45535527 438.30596189 724.21492738 444.7798782 717.32200623 452.15606689 C712.2835439 456.7104065 706.24648532 459.30159829 699.43919373 459.20294189 C698.63095154 459.19391846 697.82270935 459.18489502 696.98997498 459.17559814 C696.06765076 459.1581958 696.06765076 459.1581958 695.12669373 459.14044189 C695.14240417 459.77546631 695.15811462 460.41049072 695.17430115 461.0647583 C695.23697963 463.96489419 695.27578789 466.86488713 695.31419373 469.76544189 C695.3518988 471.26397705 695.3518988 471.26397705 695.3903656 472.79278564 C695.45372873 479.17134021 695.11972059 483.85902442 690.62669373 488.78497314 C686.03974811 492.35657923 683.10385126 493.26326202 677.3735199 493.31744385 C676.19186752 493.33027908 675.01021515 493.34311432 673.79275513 493.3563385 C671.87557426 493.3674189 671.87557426 493.3674189 669.91966248 493.37872314 C668.60637466 493.38679489 667.29308685 493.39486664 665.94000244 493.40318298 C663.15840281 493.41819639 660.37682859 493.42804082 657.59519958 493.43560791 C654.04089388 493.44666534 650.48721543 493.48106261 646.93313122 493.52077961 C643.53283383 493.55328849 640.13260324 493.55772793 636.73216248 493.56622314 C635.46011459 493.58373123 634.18806671 493.60123932 632.87747192 493.61927795 C621.55751603 493.5914742 621.55751603 493.5914742 617.12669373 489.14044189 C612.12669373 481.14044189 612.12669373 481.14044189 612.12669373 460.14044189 C487.71669373 460.14044189 363.30669373 460.14044189 235.12669373 460.14044189 C235.12669373 467.07044189 235.12669373 474.00044189 235.12669373 481.14044189 C230.50327475 490.38727985 230.50327475 490.38727985 226.12620807 492.49819684 C222.32784725 493.71823232 218.61044407 493.68202485 214.65174866 493.63491821 C213.71698429 493.63974704 212.78221991 493.64457587 211.81912935 493.64955103 C208.69691708 493.66079369 205.57552898 493.64352378 202.45335388 493.62628174 C200.21079283 493.62842833 197.96823287 493.63230711 195.72567749 493.63778687 C189.6408613 493.64747586 183.55633879 493.63218116 177.47155809 493.61188078 C171.10028962 493.59430048 164.72903009 493.59783508 158.35774231 493.59860229 C147.65632118 493.59672948 136.95502424 493.57947833 126.25364685 493.55206299 C115.25590457 493.52390318 104.25826162 493.50972097 93.26048279 493.51104736 C92.58338849 493.51112728 91.9062942 493.51120719 91.2086819 493.51128952 C90.53273126 493.51137023 89.85678062 493.51145094 89.16034663 493.51153409 C75.98932489 493.5129861 62.81834376 493.49899413 49.64733458 493.48064089 C45.85627911 493.47638279 42.06523138 493.47495913 38.27417374 493.47416306 C32.31024969 493.47214994 26.34642949 493.4599056 20.38253975 493.43983078 C18.19646783 493.43400238 16.01038396 493.43152566 13.82430458 493.43268585 C10.83462898 493.43367187 7.84524142 493.42231098 4.85560608 493.40786743 C3.99556933 493.41096464 3.13553258 493.41406184 2.24943411 493.4172529 C-8.68264974 493.33035555 -17.67812564 490.7563022 -25.92018127 483.28497314 C-33.07665059 475.62388099 -36.02680496 467.18194139 -36.01311398 456.841362 C-36.0160654 456.10083411 -36.01901682 455.36030621 -36.02205768 454.59733808 C-36.03075774 452.10221443 -36.03233015 449.6071371 -36.03393555 447.11199951 C-36.03866592 445.31043592 -36.04381674 443.5088734 -36.04935318 441.70731211 C-36.06327056 436.74562997 -36.07084607 431.78395517 -36.07732618 426.82225847 C-36.08369444 422.56915355 -36.09376493 418.31606071 -36.10388684 414.06296331 C-36.13722121 400.0493676 -36.15873422 386.03576454 -36.17708668 372.02214217 C-36.18188137 368.3733892 -36.18686473 364.72463653 -36.19189191 361.07588387 C-36.22286279 338.42037412 -36.24954981 315.76486183 -36.26631069 293.10933685 C-36.27026023 287.86091609 -36.27426322 282.61249537 -36.27833557 277.36407471 C-36.27934393 276.05959517 -36.28035229 274.75511563 -36.28139121 273.41110641 C-36.29839734 252.2803344 -36.33950557 231.14967953 -36.39035856 210.01896471 C-36.44213288 188.32706244 -36.47125272 166.6352204 -36.47850758 144.94325686 C-36.48317004 132.76300549 -36.4979238 120.58294593 -36.53825188 108.40275574 C-36.57255669 98.0291252 -36.58648926 87.65572108 -36.57382774 77.28203708 C-36.56800202 71.99034271 -36.57185923 66.69912717 -36.60199738 61.40750504 C-36.62938796 56.55866202 -36.62883978 51.71063738 -36.60648692 46.86177593 C-36.60326822 45.11201792 -36.61010761 43.36220484 -36.62828415 41.61253828 C-36.75215032 28.91468227 -34.92158754 19.53453886 -26.12330627 9.70294189 C-18.4962405 2.64900823 -10.1815731 -0.01021325 0 0 Z M-21.87330627 17.14044189 C-26.5575925 23.83560037 -27.99697735 29.22776031 -28.00473404 37.3541975 C-28.00678667 38.08549394 -28.00883931 38.81679038 -28.01095414 39.57024732 C-28.01663284 42.03394448 -28.01516582 44.49758589 -28.01374817 46.96128845 C-28.01633131 48.74024085 -28.01934432 50.51919267 -28.02275157 52.29814368 C-28.03083088 57.19721355 -28.03261166 62.09626878 -28.03334904 66.99534452 C-28.03519798 72.27498161 -28.04274452 77.55461108 -28.04948425 82.83424377 C-28.0630748 94.38382861 -28.06909344 105.93340997 -28.07349491 117.48300147 C-28.07625616 124.6927121 -28.08049331 131.90242139 -28.08499908 139.11213112 C-28.09719278 159.06811152 -28.10749184 179.02409084 -28.11087418 198.98007488 C-28.11109374 200.2576784 -28.11131331 201.53528192 -28.11153953 202.8516007 C-28.11175781 204.13228669 -28.11197608 205.41297269 -28.11220098 206.73246735 C-28.11264444 209.32768738 -28.11309101 211.92290741 -28.11354065 214.51812744 C-28.11376208 215.80545022 -28.11398351 217.092773 -28.11421165 218.41910557 C-28.11816 239.28026819 -28.13561472 260.14139589 -28.15890017 281.00254502 C-28.1826062 302.41306146 -28.19507569 323.82356037 -28.19624209 345.23409015 C-28.19715928 357.25824403 -28.20292268 369.2823524 -28.22106171 381.30649376 C-28.23645259 391.54512327 -28.24158913 401.78369322 -28.2333236 412.02233209 C-28.22941351 417.24668218 -28.23036432 422.47091228 -28.24438095 427.69524765 C-28.25709812 432.47897247 -28.2559415 437.2624869 -28.24379024 442.04621134 C-28.24182946 443.77571756 -28.24492924 445.50523858 -28.2536346 447.23472401 C-28.49871405 462.70060787 -28.49871405 462.70060787 -21.18580627 475.95294189 C-20.56318909 476.66063721 -19.9405719 477.36833252 -19.29908752 478.09747314 C-11.14050356 484.96855111 -3.15250499 484.69458349 6.99778748 484.59454346 C8.60485811 484.59341391 10.21193081 484.59405093 11.81900024 484.59631348 C16.16361198 484.59745739 20.50777865 484.57400069 24.85228729 484.54601765 C29.39929933 484.52094995 33.94632247 484.51865777 38.49339294 484.51391602 C47.09576298 484.50150198 55.69792879 484.46870172 64.30020905 484.42851806 C74.0970354 484.38375133 83.89387169 484.36180099 93.69077492 484.34173632 C113.8361981 484.29996765 133.98142583 484.22883701 154.12669373 484.14044189 C153.79669373 475.89044189 153.46669373 467.64044189 153.12669373 459.14044189 C149.49669373 458.81044189 145.86669373 458.48044189 142.12669373 458.14044189 C134.16115021 455.30444193 127.92373997 450.52739146 124.01964569 443.0083313 C121.09721706 436.2724143 120.55397576 430.43782321 120.6091156 423.14825439 C120.60210632 421.99242859 120.59509705 420.83660278 120.58787537 419.64575195 C120.57037234 415.85206573 120.58189164 412.05913477 120.59544373 408.26544189 C120.59274662 405.6132516 120.58886761 402.96108363 120.58384705 400.30889893 C120.57659406 394.761128 120.58609612 389.21357089 120.60520935 383.66583252 C120.62697383 377.27522963 120.61992077 370.88513742 120.59790373 364.49454689 C120.57968222 358.98251322 120.57722414 353.47063221 120.58765841 347.95857811 C120.59385655 344.67748689 120.59323336 341.39668476 120.58151245 338.11560059 C120.57130208 334.45426396 120.58691258 330.79389439 120.6091156 327.13262939 C120.60101868 326.06220398 120.59292175 324.99177856 120.58457947 323.88891602 C120.67565277 315.74192165 122.3942334 308.43763899 127.37669373 301.82794189 C135.34018672 294.04543738 143.59200684 291.8493917 154.45848083 291.82159424 C155.36658508 291.81154861 156.27468933 291.80150299 157.21031189 291.79115295 C160.19154772 291.76043025 163.17269418 291.74331622 166.15403748 291.72637939 C168.22912356 291.70765897 170.30420211 291.68808491 172.37927246 291.66769409 C177.82567388 291.61645935 183.27209996 291.57678729 188.71861267 291.53955078 C194.28243567 291.49945683 199.84615687 291.44838909 205.40989685 291.39825439 C216.3154242 291.30159762 227.22100915 291.21716007 238.12669373 291.14044189 C238.24120144 257.80604865 238.32927419 224.47170443 238.38202037 191.1371581 C238.38827372 187.1994503 238.39474535 183.26174287 238.40135193 179.32403564 C238.40266348 178.54012706 238.40397503 177.75621848 238.40532633 176.9485551 C238.42706786 164.26469227 238.46648245 151.58094304 238.51245771 138.89714755 C238.55925728 125.87710347 238.58699651 112.85711879 238.5971362 99.83699405 C238.60398814 91.8063579 238.62560917 83.77604289 238.66627606 75.74550562 C238.69589362 69.58197583 238.69895903 63.41868957 238.69223213 57.25509834 C238.69360622 54.73078881 238.70353252 52.20646697 238.7227211 49.68223 C238.74767249 46.23020451 238.74158974 42.7795425 238.72796631 39.32748413 C238.74253052 38.33329314 238.75709472 37.33910216 238.77210027 36.31478417 C238.69068203 28.65941934 236.63813305 22.21155728 231.56947213 16.33502018 C224.66882108 9.93659731 216.92616954 7.532387 207.67698669 7.63923645 C206.76909834 7.63370205 205.86120998 7.62816766 204.92580986 7.62246555 C201.90654879 7.60893441 198.88812523 7.62378729 195.86888123 7.63873291 C193.69498851 7.634947 191.52109821 7.62944472 189.34721375 7.62236023 C183.45879741 7.60842397 177.57067388 7.61956278 171.68227386 7.63607144 C165.51254052 7.64994563 159.34282377 7.64345916 153.17308044 7.63993835 C142.8131693 7.63723811 132.45337414 7.65069593 122.0934906 7.67388916 C110.1254473 7.70049763 98.15759789 7.70224524 86.18953514 7.6905008 C74.66451417 7.679712 63.13956315 7.68591877 51.61454773 7.70005608 C46.71523886 7.70580628 41.81598135 7.70574077 36.91667175 7.70099068 C31.14474485 7.69620938 25.37302956 7.70637055 19.60114288 7.72794533 C17.48602258 7.73349762 15.37088187 7.73399284 13.25576019 7.72899246 C10.36240756 7.72301137 7.46969579 7.73559899 4.57640076 7.75276184 C3.74496489 7.7467518 2.91352901 7.74074175 2.05689812 7.73454958 C-7.09102039 7.83281809 -15.35250461 10.54860753 -21.87330627 17.14044189 Z " fill="#3F699B" transform="translate(438.87330627441406,342.85955810546875)"/>
<path d="M0 0 C4.17468818 2.59036629 7.07704708 5.45685527 9 10 C9.251849 12.24037397 9.251849 12.24037397 9.25447559 14.73897362 C9.26030779 15.69420461 9.26613998 16.6494356 9.27214891 17.63361299 C9.26836958 18.68009779 9.26459026 19.72658259 9.26069641 20.80477905 C9.26452196 21.91877315 9.26834751 23.03276725 9.27228898 24.18051875 C9.28263762 27.9268712 9.27862323 31.67307092 9.2746582 35.41943359 C9.27900366 38.09991467 9.2841215 40.7803844 9.29014587 43.46086121 C9.30290505 49.99423128 9.30468503 56.52756029 9.30234561 63.06094073 C9.30056353 68.37115371 9.30230972 73.68135421 9.30657005 78.9915657 C9.30746284 80.12466469 9.30746284 80.12466469 9.30837366 81.28065456 C9.30958539 82.81519504 9.31079953 84.34973551 9.31201603 85.88427599 C9.32289641 100.28045194 9.32072681 114.67660448 9.31463119 129.07278176 C9.30946243 142.24405125 9.32071549 155.41524678 9.33972941 168.58650164 C9.35909995 182.10839264 9.36736513 195.63024864 9.36360615 209.15215361 C9.36169281 216.74459175 9.36419457 224.33696694 9.37832069 231.92939377 C9.39022554 238.39342846 9.39164956 244.85736146 9.37953053 251.32139753 C9.37363526 254.6193793 9.37418287 257.91713627 9.38453293 261.21511269 C9.39494634 264.79066671 9.38694264 268.36571803 9.3742218 271.94125366 C9.38159609 272.98327702 9.38897037 274.02530038 9.39656812 275.0989002 C9.35049004 281.2399212 8.85112833 285.94573785 4.46484375 290.64453125 C-0.43370608 294.39048112 -2.73566582 295.51347001 -9 295 C-13.25126991 293.32209593 -16.6751971 291.00382722 -19 287 C-19.95568033 284.132959 -20.12778885 282.34687095 -20.13422108 279.37125015 C-20.13867892 278.41514351 -20.14313676 277.45903687 -20.14772969 276.4739573 C-20.14754533 275.42135083 -20.14736097 274.36874436 -20.14717102 273.28424072 C-20.15084771 272.16772306 -20.1545244 271.0512054 -20.1583125 269.90085387 C-20.16937174 266.13995268 -20.17319697 262.3790791 -20.17700195 258.61816406 C-20.18326485 255.92960444 -20.18989852 253.24104778 -20.19691467 250.55249023 C-20.2166772 242.47058644 -20.22674476 234.38868139 -20.23564246 226.30675948 C-20.24002548 222.50119484 -20.24539223 218.69563159 -20.25063133 214.89006805 C-20.26764296 202.24031488 -20.28213748 189.59056257 -20.28938007 176.94079971 C-20.29128998 173.65812428 -20.29321031 170.37544885 -20.29516602 167.09277344 C-20.29589163 165.86892978 -20.29589163 165.86892978 -20.2966319 164.62036201 C-20.30493353 151.40119178 -20.33027296 138.18211199 -20.36274669 124.96298125 C-20.39581183 111.39253173 -20.41382831 97.82212819 -20.41702431 84.25163817 C-20.41918986 76.63173422 -20.42794499 69.01196218 -20.45348549 61.39209747 C-20.47518502 54.90317013 -20.48324663 48.41440676 -20.47351871 41.92544726 C-20.46897181 38.61512665 -20.47306147 35.30521531 -20.49028015 31.99492645 C-20.50791386 28.40422859 -20.50093383 24.8143916 -20.48774719 21.22369385 C-20.49871644 20.18001026 -20.50968568 19.13632668 -20.52098733 18.06101632 C-20.45983859 11.17332306 -19.45788309 6.43264307 -14.39453125 1.40625 C-9.54962659 -1.36910279 -5.33412737 -1.79685772 0 0 Z " fill="#D9E7F6" transform="translate(1032,381)"/>
<path d="M0 0 C5.38760905 3.58176231 9.0026142 8.32699963 11.109375 14.40234375 C11.364676 16.79437369 11.364676 16.79437369 11.37223053 19.3312788 C11.37991282 20.30345102 11.38759511 21.27562325 11.3955102 22.27725524 C11.39377723 23.33755346 11.39204427 24.39785168 11.39025879 25.49028015 C11.39620103 26.62272417 11.40214328 27.7551682 11.40826559 28.9219287 C11.42563923 32.7249191 11.42865603 36.52778359 11.43164062 40.33081055 C11.43982226 43.05421185 11.45090527 45.77759992 11.46173096 48.50099182 C11.48887263 55.90608311 11.50094321 63.31115271 11.50975227 70.71628547 C11.51528154 75.34217585 11.52375707 79.9680579 11.53276062 84.59394264 C11.55714305 97.40761509 11.57774202 110.22128087 11.5845108 123.03497601 C11.58494994 123.85478071 11.58538907 124.67458541 11.58584151 125.51923268 C11.58627806 126.34097313 11.58671462 127.16271357 11.5871644 128.00935525 C11.58805133 129.67444973 11.58894445 131.3395442 11.58984375 133.00463867 C11.59028661 133.83057897 11.59072947 134.65651926 11.59118575 135.50748805 C11.59907929 148.88622503 11.63398103 162.26474398 11.68056279 175.64339676 C11.72802742 189.38682283 11.75291622 203.13013959 11.75524664 216.87364894 C11.75707811 224.5870211 11.76853071 232.30010918 11.80488586 240.01340294 C11.83573901 246.58240565 11.84589923 253.1510365 11.82940966 259.72009792 C11.82161357 263.06958634 11.82665272 266.4177199 11.85152435 269.76721573 C11.87695147 273.40528126 11.86521942 277.0414362 11.84436035 280.67948914 C11.86047316 281.72863375 11.87658597 282.77777836 11.89318705 283.85871524 C11.77775105 292.48781247 8.77668604 298.73503271 2.671875 304.83984375 C-3.91422876 308.85576068 -9.15608136 310.46037095 -16.890625 309.40234375 C-23.50046422 307.51211994 -28.11069324 303.01960943 -31.890625 297.40234375 C-35.14803699 291.29709871 -35.31802824 286.10241101 -35.27830505 279.25698853 C-35.28369059 278.14254785 -35.28907613 277.02810717 -35.29462487 275.87989557 C-35.30891939 272.14979815 -35.30179677 268.42005486 -35.29467773 264.68994141 C-35.30038053 262.01387918 -35.30724393 259.33784227 -35.31547546 256.66178894 C-35.33265466 250.14986519 -35.33350526 243.63803798 -35.32826256 237.12609746 C-35.32421774 231.83170898 -35.32566812 226.537349 -35.33101082 221.24296188 C-35.33175924 220.4888352 -35.33250766 219.73470852 -35.33327876 218.95772951 C-35.33481028 217.42561082 -35.33634862 215.89349214 -35.33789373 214.36137347 C-35.35161576 199.99941844 -35.34618333 185.6375179 -35.33470852 171.27556412 C-35.32477794 158.1452865 -35.33771427 145.01514984 -35.36164271 131.88489397 C-35.38604367 118.39339618 -35.39563904 104.90196402 -35.38898998 91.41044462 C-35.38549978 83.83973617 -35.38771657 76.2691361 -35.40524101 68.69844437 C-35.41997555 62.25320375 -35.42058228 55.80814781 -35.4031701 49.36291076 C-35.39466755 46.07663062 -35.39466686 42.79074742 -35.40782166 39.50447273 C-35.4210125 35.9365599 -35.40949931 32.36954076 -35.39183044 28.80166626 C-35.40143545 27.77042779 -35.41104046 26.73918931 -35.42093652 25.67670119 C-35.32986214 16.72571502 -32.7282738 9.52156621 -26.578125 2.91015625 C-18.81089112 -4.03001106 -9.20200655 -4.58468766 0 0 Z M-21.890625 9.40234375 C-26.2151389 15.46244698 -26.45935458 20.28303835 -26.39183044 27.60585022 C-26.39736484 28.72649115 -26.40289924 29.84713207 -26.40860134 31.00173181 C-26.42220281 34.75276432 -26.40724052 38.5031309 -26.39233398 42.25415039 C-26.39611732 44.94493942 -26.40146498 47.6356841 -26.40870667 50.32646179 C-26.42262629 56.87351489 -26.4150927 63.42037487 -26.40003108 69.96741874 C-26.38315616 77.5934072 -26.38638307 85.21934776 -26.39012516 92.84534913 C-26.3960013 106.45235833 -26.38184134 120.05927495 -26.35717773 133.66625977 C-26.33325295 146.86714142 -26.32617562 160.06789939 -26.33666992 173.26879883 C-26.34808077 187.64837698 -26.35000749 202.02789795 -26.33557183 216.40747541 C-26.334046 217.94091029 -26.33252565 219.47434518 -26.33101082 221.00778008 C-26.330253 221.7622371 -26.32949519 222.51669413 -26.32871441 223.29401349 C-26.32397325 228.60876343 -26.3258218 233.92348783 -26.33007622 239.23823738 C-26.33500426 245.71502303 -26.32901231 252.19169178 -26.30918192 258.66845066 C-26.29931459 261.97251898 -26.29580879 265.27637307 -26.30207443 268.58045578 C-26.30801596 272.16243542 -26.29554298 275.74388874 -26.27830505 279.32582092 C-26.2843151 280.36968887 -26.29032514 281.41355682 -26.29651731 282.48905712 C-26.24927015 287.87482217 -25.97010645 291.77516148 -22.890625 296.40234375 C-19.21359923 299.80359258 -16.60439937 301.24066692 -11.578125 301.71484375 C-6.05465313 301.24675291 -3.22243384 298.87813192 0.421875 294.83984375 C2.79182111 291.41658826 3.23479599 288.84516228 3.24359608 284.78641796 C3.24805392 283.83317802 3.25251176 282.87993807 3.25710469 281.89781207 C3.25692033 280.84841443 3.25673597 279.79901678 3.25654602 278.71781921 C3.26022271 277.60467954 3.2638994 276.49153987 3.2676875 275.34466869 C3.27874654 271.59525304 3.28257192 267.84586508 3.28637695 264.09643555 C3.29263983 261.41610549 3.29927348 258.73577841 3.30628967 256.05545044 C3.3260513 247.99876542 3.33611927 239.94207914 3.34501746 231.88537595 C3.34940029 228.09213489 3.35476706 224.29889524 3.36000633 220.50565529 C3.37701724 207.89793405 3.39151222 195.29021368 3.39875507 182.68248272 C3.40066499 179.41079902 3.40258532 176.13911532 3.40454102 172.86743164 C3.40502476 172.05426418 3.4055085 171.24109671 3.4060069 170.40328781 C3.41431026 157.22547431 3.43965293 144.0477515 3.47212169 130.86997762 C3.505178 117.3436034 3.52320248 103.8172753 3.52639931 90.29086047 C3.52856559 82.69502152 3.53733146 75.09931486 3.56286049 67.50351524 C3.5845479 61.0357859 3.59262759 54.568221 3.58289371 48.10045942 C3.57834339 44.80038851 3.58245127 41.5007285 3.59965515 38.20068932 C3.61726672 34.62277719 3.61031992 31.04573092 3.59712219 27.46781921 C3.60809144 26.42511374 3.61906068 25.38240826 3.63036233 24.30810565 C3.56329278 16.79629043 2.09380045 13.5573078 -3.078125 8.08984375 C-9.30219637 4.35540093 -16.51695319 4.06789582 -21.890625 9.40234375 Z " fill="#3E689A" transform="translate(1037.890625,374.59765625)"/>
<path d="M0 0 C1.08873413 -0.00591408 1.08873413 -0.00591408 2.19946289 -0.01194763 C4.58868369 -0.01863796 6.97597527 0.01045752 9.36499023 0.04077148 C11.0297763 0.04502383 12.69456831 0.04735041 14.35935974 0.0478363 C17.84385151 0.05399519 21.32769881 0.07666405 24.81201172 0.11230469 C29.27655322 0.15761189 33.74051201 0.17233293 38.20526218 0.1760416 C41.64110552 0.18047179 45.07682679 0.19577786 48.51261711 0.21491814 C50.15883316 0.22379144 51.80506219 0.23052576 53.45129585 0.23507881 C55.75160698 0.24413017 58.05139377 0.26652727 60.3515625 0.29296875 C61.65996597 0.30360855 62.96836945 0.31424835 64.31642151 0.32521057 C67.40725686 0.58240442 69.09821715 0.84268252 71.61108398 2.59936523 C73.85707731 5.96835523 74.14171588 7.9668229 73.58764648 11.95483398 C71.62081211 17.28102147 67.13854389 21.08040996 63.18139648 25.0168457 C60.64170993 27.57627485 58.2282202 30.24853199 55.79858398 32.91186523 C51.36329811 37.7251336 46.89533702 42.5075027 42.42358398 47.28686523 C37.91458676 52.10770989 33.45128854 56.96235092 29.05566406 61.88720703 C26.17495502 65.08323187 23.25911138 68.24532042 20.33764648 71.40405273 C19.7850415 72.00209717 19.23243652 72.6001416 18.66308594 73.21630859 C17.31272871 74.67761409 15.96194971 76.1385298 14.61108398 77.59936523 C15.27649704 77.60301086 15.9419101 77.60665649 16.62748718 77.6104126 C23.55458474 77.65223 30.48101926 77.72157088 37.40771484 77.80688477 C39.99260832 77.83510661 42.57758829 77.85631503 45.16259766 77.87036133 C48.87895022 77.891773 52.59426145 77.93841759 56.31030273 77.98999023 C57.46568039 77.99121887 58.62105804 77.99244751 59.81144714 77.99371338 C67.79346206 78.13934873 67.79346206 78.13934873 71.84472656 80.41870117 C73.61108398 82.59936523 73.61108398 82.59936523 74.17358398 86.09936523 C73.53431935 90.07701185 72.79896904 91.23122205 69.61108398 93.59936523 C66.1408737 94.756102 63.40255337 94.74769513 59.74047852 94.77636719 C59.04581482 94.78293839 58.35115112 94.78950958 57.63543701 94.79627991 C55.3382557 94.81597917 53.0411396 94.82766684 50.74389648 94.83764648 C49.56586771 94.84375978 49.56586771 94.84375978 48.36404037 94.84999657 C44.20859796 94.87084118 40.05318843 94.88515082 35.89770508 94.89453125 C31.60797219 94.90560297 27.31875698 94.94001575 23.02920723 94.97970295 C19.72804809 95.00585359 16.42701274 95.01422158 13.12575912 95.01781273 C11.54451875 95.02268137 9.96328401 95.03430336 8.38214493 95.05285072 C6.16783862 95.07721452 3.95487798 95.07628329 1.74047852 95.06933594 C-0.14790237 95.0781353 -0.14790237 95.0781353 -2.07443237 95.08711243 C-5.97647715 94.5129019 -7.61671345 93.34872383 -10.38891602 90.59936523 C-11.82633136 87.41651698 -11.46824044 84.87658666 -10.38891602 81.59936523 C-7.583343 77.765796 -4.35302845 74.50196906 -0.97094727 71.17749023 C1.56272277 68.65007617 3.95264629 65.99535193 6.36108398 63.34936523 C10.97459893 58.33977505 15.63411467 53.37396768 20.29858398 48.41186523 C25.01116455 43.39677197 29.68362164 38.35416085 34.26220703 33.21582031 C36.94658997 30.22563926 39.65881137 27.26217775 42.37670898 24.30249023 C42.88218262 23.75157715 43.38765625 23.20066406 43.90844727 22.63305664 C45.14239885 21.28825362 46.37670472 19.9437757 47.61108398 18.59936523 C46.94789154 18.59794022 46.2846991 18.5965152 45.60140991 18.595047 C38.69031571 18.57533989 31.78010353 18.52104362 24.86938477 18.44677734 C22.29132416 18.42359976 19.71316891 18.40920223 17.13500977 18.40380859 C13.42591375 18.39451799 9.71830617 18.35352011 6.00952148 18.30639648 C4.85930511 18.31032913 3.70908875 18.31426178 2.52401733 18.3183136 C-6.41904028 18.15575725 -6.41904028 18.15575725 -10.12084961 15.27392578 C-12.38891602 12.59936523 -12.38891602 12.59936523 -13.07641602 9.09936523 C-11.61400806 1.65437928 -7.05691219 -0.02733207 0 0 Z " fill="#426C9F" transform="translate(1160.388916015625,128.400634765625)"/>
<path d="M0 0 C21.45 0 42.9 0 65 0 C65 7.26 65 14.52 65 22 C62.31418563 24.68581437 60.95998348 24.25853766 57.20507812 24.2746582 C55.38308899 24.28895622 55.38308899 24.28895622 53.52429199 24.30354309 C51.54773621 24.30217598 51.54773621 24.30217598 49.53125 24.30078125 C48.17126331 24.30466664 46.81127784 24.30900098 45.45129395 24.31376648 C42.59981351 24.32123311 39.74845688 24.32093402 36.89697266 24.31567383 C33.23807726 24.30987462 29.57968732 24.32681825 25.92087555 24.3500185 C23.11221338 24.36473022 20.30367372 24.36563116 17.49497986 24.36250877 C15.48853328 24.36327371 13.48210573 24.37716638 11.47570801 24.39118958 C10.26104858 24.38496078 9.04638916 24.37873199 7.79492188 24.37231445 C6.72173706 24.37294388 5.64855225 24.3735733 4.54284668 24.3742218 C3.70370728 24.25072861 2.86456787 24.12723541 2 24 C-2.45298325 17.32052512 0 8.02772972 0 0 Z " fill="#DAE8F6" transform="translate(1060,803)"/>
<path d="M0 0 C21.45 0 42.9 0 65 0 C65 7.26 65 14.52 65 22 C62.31418563 24.68581437 60.95998348 24.25853766 57.20507812 24.2746582 C55.38308899 24.28895622 55.38308899 24.28895622 53.52429199 24.30354309 C51.54773621 24.30217598 51.54773621 24.30217598 49.53125 24.30078125 C48.17126331 24.30466664 46.81127784 24.30900098 45.45129395 24.31376648 C42.59981351 24.32123311 39.74845688 24.32093402 36.89697266 24.31567383 C33.23807726 24.30987462 29.57968732 24.32681825 25.92087555 24.3500185 C23.11221338 24.36473022 20.30367372 24.36563116 17.49497986 24.36250877 C15.48853328 24.36327371 13.48210573 24.37716638 11.47570801 24.39118958 C10.26104858 24.38496078 9.04638916 24.37873199 7.79492188 24.37231445 C6.72173706 24.37294388 5.64855225 24.3735733 4.54284668 24.3742218 C3.70370728 24.25072861 2.86456787 24.12723541 2 24 C-2.45298325 17.32052512 0 8.02772972 0 0 Z " fill="#DAE8F6" transform="translate(600,803)"/>
<path d="M0 0 C0.85098267 -0.00945648 1.70196533 -0.01891296 2.57873535 -0.02865601 C3.49441284 -0.02258331 4.41009033 -0.01651062 5.35351562 -0.01025391 C6.29658569 -0.01312408 7.23965576 -0.01599426 8.21130371 -0.01895142 C10.20516561 -0.02099287 12.1990475 -0.01545734 14.19287109 -0.00292969 C17.24817607 0.0131227 20.30215814 -0.00277574 23.35742188 -0.02197266 C25.29362272 -0.01999024 27.22982273 -0.0161466 29.16601562 -0.01025391 C30.53953186 -0.01936295 30.53953186 -0.01936295 31.9407959 -0.02865601 C32.79177856 -0.01919952 33.64276123 -0.00974304 34.51953125 0 C35.64180115 0.00358017 35.64180115 0.00358017 36.78674316 0.00723267 C39.31769133 0.49590782 40.19676849 1.37168967 41.75976562 3.38818359 C42.38476562 6.07568359 42.38476562 6.07568359 41.75976562 9.38818359 C39.72119014 12.34682413 37.29085314 14.84718967 34.75976562 17.38818359 C34.17324219 17.97728516 33.58671875 18.56638672 32.98242188 19.17333984 C31.82157461 20.32892249 30.65743532 21.48120637 29.49023438 22.63037109 C27.16856187 24.98872917 25.02868708 27.48348346 22.86914062 29.98974609 C18.27170713 35.21719825 13.49586076 40.28657701 8.75976562 45.38818359 C9.65808105 45.40800293 10.55639648 45.42782227 11.48193359 45.44824219 C14.81066641 45.5262762 18.13893818 45.61296473 21.46728516 45.70556641 C22.90860303 45.74388033 24.35001731 45.77872902 25.79150391 45.81005859 C27.86200448 45.85565806 29.93183995 45.91365803 32.00195312 45.97412109 C33.24831543 46.00554199 34.49467773 46.03696289 35.77880859 46.06933594 C38.75976562 46.38818359 38.75976562 46.38818359 40.75976562 48.38818359 C41.00976562 50.88818359 41.00976562 50.88818359 40.75976562 53.38818359 C38.35350342 55.7944458 37.80869385 55.64019819 34.52539062 55.64697266 C33.65108398 55.65327698 32.77677734 55.6595813 31.87597656 55.66607666 C30.45720215 55.66000397 30.45720215 55.66000397 29.00976562 55.65380859 C28.04071289 55.65572205 27.07166016 55.6576355 26.07324219 55.65960693 C24.02213278 55.66096939 21.97101477 55.65726877 19.91992188 55.64892578 C16.77259023 55.63822719 13.62582942 55.64881913 10.47851562 55.66162109 C8.48893103 55.66029951 6.49934678 55.65773714 4.50976562 55.65380859 C3.09099121 55.65988129 3.09099121 55.65988129 1.64355469 55.66607666 C0.76924805 55.65977234 -0.10505859 55.65346802 -1.00585938 55.64697266 C-1.77704102 55.64538147 -2.54822266 55.64379028 -3.34277344 55.64215088 C-5.24023438 55.38818359 -5.24023438 55.38818359 -7.24023438 53.38818359 C-7.655731 49.98017759 -7.69641378 48.08790593 -5.79882812 45.17724609 C-4.74888672 44.10603516 -4.74888672 44.10603516 -3.67773438 43.01318359 C-2.86304688 42.16111328 -2.04835938 41.30904297 -1.20898438 40.43115234 C-0.74363281 39.95597168 -0.27828125 39.48079102 0.20117188 38.99121094 C2.62471263 36.49857801 4.99252146 33.95437201 7.36694336 31.41503906 C8.63420472 30.06090961 9.90437519 28.70949447 11.17797852 27.36132812 C15.80490073 22.45687673 20.30286831 17.44742361 24.75976562 12.38818359 C23.89697998 12.37360107 23.03419434 12.35901855 22.14526367 12.34399414 C18.94126915 12.28290606 15.73791937 12.2087481 12.53442383 12.12573242 C11.14847185 12.09249811 9.76238502 12.06446134 8.3762207 12.04174805 C6.38269719 12.00817743 4.38954822 11.95430359 2.39648438 11.89990234 C1.19725342 11.87371826 -0.00197754 11.84753418 -1.23754883 11.82055664 C-4.24023438 11.38818359 -4.24023438 11.38818359 -6.1315918 10.01245117 C-7.72905274 7.67201786 -7.6555644 6.15705042 -7.24023438 3.38818359 C-5.03978997 0.53453229 -3.55095978 0.01132797 0 0 Z " fill="#335D8E" transform="translate(1086.240234375,238.61181640625)"/>
<path d="M0 0 C4.63747873 4.20608536 7.91343977 8.51928125 8.3125 14.9375 C7.99837078 19.98974498 5.96702892 23.6527695 2.6875 27.4375 C-2.85529321 31.84911092 -7.25869742 33.14288026 -14.3125 32.4375 C-19.88345433 30.02168429 -23.39025279 26.81443486 -26.3125 21.4375 C-27.90817253 16.65048241 -28.30997294 12.6827343 -26.25390625 8.0546875 C-23.45352139 3.45568146 -20.55211442 0.06103629 -15.5234375 -2.0390625 C-9.98047944 -3.35135292 -5.08037627 -2.3964039 0 0 Z " fill="#416A9B" transform="translate(948.3125,737.5625)"/>
<path d="M0 0 C4.75178615 2.833308 8.32785808 6.03462241 10.83984375 11.05859375 C11.3965934 17.01153228 11.38125493 22.03207466 7.83984375 27.05859375 C3.48794295 31.43107091 0.38051542 33.89199233 -5.97265625 34.30859375 C-10.87655239 34.20997792 -14.27851549 32.9226079 -17.828125 29.40625 C-22.40761148 24.26112623 -23.52747674 20.43681542 -23.4375 13.55859375 C-22.87228738 8.46371941 -19.77795938 5.47668403 -16.09765625 2.24609375 C-11.2314616 -1.37766823 -5.65385671 -2.46397734 0 0 Z " fill="#40699A" transform="translate(705.16015625,735.94140625)"/>
<path d="M0 0 C4.52049994 2.45774754 7.55699234 5.73898468 9.875 10.375 C10.43174965 16.32793853 10.41641118 21.34848091 6.875 26.375 C3.40464072 30.47195193 0.25559917 32.68405232 -5.125 33.4375 C-9.83048268 33.61573798 -13.0500539 32.88265914 -17.125 30.375 C-21.67629607 25.91637737 -24.2696173 22.59290203 -24.4375 16.125 C-24.37746549 11.01539616 -23.64213938 8.26236458 -20.125 4.375 C-14.06567484 -1.43119408 -8.00285213 -3.64591184 0 0 Z " fill="#3F6899" transform="translate(807.125,736.625)"/>
<path d="M0 0 C5.77344644 2.5659762 10.14271229 6.28542459 13 12 C13.55674965 17.95293853 13.54141118 22.97348091 10 28 C5.43265439 32.6887002 2.20093137 34.76289397 -4.375 35.25 C-10.2459147 34.84510933 -13.51226624 32.78062429 -17.3125 28.4375 C-21.00635636 23.92925011 -21.46722005 20.70955012 -21.40625 14.89453125 C-20.63500335 9.39939887 -17.4957902 6.05364555 -13.32421875 2.62109375 C-9.14262908 -0.13779415 -4.86298699 -1.07448855 0 0 Z " fill="#3F689A" transform="translate(1043,735)"/>
<path d="M0 0 C5.07876391 3.02827231 8.92199981 6.30506194 10.83984375 12.05859375 C11.37833411 18.41278002 10.47957173 22.75801902 6.83984375 28.05859375 C4.33984375 30.43359375 4.33984375 30.43359375 1.83984375 32.05859375 C1.24171875 32.47109375 0.64359375 32.88359375 0.02734375 33.30859375 C-4.97351777 35.02317484 -9.57075191 34.59938842 -14.34765625 32.55859375 C-18.80296479 30.03655519 -21.42113869 26.87495114 -23.16015625 22.05859375 C-24.01072997 16.75191698 -23.87968132 12.55299198 -21.53515625 7.68359375 C-15.73929125 1.2776377 -8.89525128 -3.87659233 0 0 Z " fill="#40699A" transform="translate(995.16015625,735.94140625)"/>
<path d="M0 0 C3.66741457 3.76145084 4.30288212 6.8442283 4.5 11.9375 C4.29263817 17.5155333 3.46544756 20.62259255 0 25 C-4.33498621 29.0177921 -8.57770669 29.84090702 -14.31640625 30.16015625 C-19.18321509 29.86970623 -22.03363713 27.96636287 -25.5 24.5 C-29.46925687 19.98948083 -30.41973066 16.24557803 -30.34375 10.4140625 C-29.53974136 4.76772912 -26.27950901 1.01838472 -21.9375 -2.4375 C-14.11276604 -6.59959253 -7.00648138 -4.98538098 0 0 Z " fill="#3F689A" transform="translate(762,740)"/>
<path d="M0 0 C22.79296875 15.1953125 22.79296875 15.1953125 24.96240234 16.64941406 C26.26041815 17.50978111 27.56729064 18.35703606 28.88525391 19.18652344 C30.28864821 20.07603926 31.65012524 21.03119036 33 22 C33 22.66 33 23.32 33 24 C15.18 24 -2.64 24 -21 24 C-16.7358125 19.02511458 -12.42675973 14.15564171 -7.96875 9.36328125 C-5.17441841 6.34003549 -2.53237051 3.24571432 0 0 Z " fill="#C2DCF3" transform="translate(1195,183)"/>
<path d="M0 0 C1.26650391 -0.01224609 2.53300781 -0.02449219 3.83789062 -0.03710938 C5.04509766 -0.03904297 6.25230469 -0.04097656 7.49609375 -0.04296875 C9.1675647 -0.04913208 9.1675647 -0.04913208 10.87280273 -0.05541992 C13.5625 0.1875 13.5625 0.1875 15.5625 2.1875 C15.72184069 5.53365444 15.1325446 7.51783596 12.953125 10.078125 C11.57499599 11.43488767 10.17807462 12.77275395 8.765625 14.09375 C5.9780272 16.74295642 3.50727798 19.60545686 1.0078125 22.5234375 C-0.09152798 23.78916464 -1.2520434 25.0020434 -2.4375 26.1875 C-1.29410156 26.24808594 -0.15070313 26.30867188 1.02734375 26.37109375 C2.51824305 26.45548428 4.00912775 26.54013302 5.5 26.625 C6.25474609 26.66431641 7.00949219 26.70363281 7.78710938 26.74414062 C13.44921875 27.07421875 13.44921875 27.07421875 14.5625 28.1875 C14.60313832 29.85367115 14.605221 31.52138095 14.5625 33.1875 C10.08334672 33.21636338 5.60421709 33.23425187 1.125 33.25 C-0.15439453 33.25837891 -1.43378906 33.26675781 -2.75195312 33.27539062 C-3.96689453 33.27861328 -5.18183594 33.28183594 -6.43359375 33.28515625 C-7.55950928 33.29039307 -8.6854248 33.29562988 -9.84545898 33.30102539 C-12.4375 33.1875 -12.4375 33.1875 -13.4375 32.1875 C-13.78125 29.91796875 -13.78125 29.91796875 -13.4375 27.1875 C-11.53125 24.86328125 -11.53125 24.86328125 -8.9375 22.5 C-3.91428242 17.7415389 0.37486018 12.68523943 4.5625 7.1875 C2.64824219 7.22230469 2.64824219 7.22230469 0.6953125 7.2578125 C-0.9739525 7.27656829 -2.6432238 7.29476869 -4.3125 7.3125 C-5.57513672 7.33763672 -5.57513672 7.33763672 -6.86328125 7.36328125 C-7.66894531 7.36972656 -8.47460938 7.37617188 -9.3046875 7.3828125 C-10.04831543 7.39328613 -10.79194336 7.40375977 -11.55810547 7.41455078 C-13.4375 7.1875 -13.4375 7.1875 -15.4375 5.1875 C-14.25681537 -2.60501855 -6.40295156 0.00324858 0 0 Z " fill="#325C8D" transform="translate(1043.4375,306.8125)"/>
<path d="M0 0 C0.99773438 -0.00315216 1.99546875 -0.00630432 3.0234375 -0.009552 C4.65152344 -0.00651566 4.65152344 -0.00651566 6.3125 -0.00341797 C7.41851563 -0.00437469 8.52453125 -0.00533142 9.6640625 -0.00631714 C12.00781308 -0.00699913 14.35156553 -0.00514351 16.6953125 -0.00097656 C20.29691788 0.00437139 23.89839853 -0.00092093 27.5 -0.00732422 C29.77083361 -0.00666344 32.04166714 -0.00538229 34.3125 -0.00341797 C35.94058594 -0.00645432 35.94058594 -0.00645432 37.6015625 -0.009552 C38.59929688 -0.00639984 39.59703125 -0.00324768 40.625 0 C41.50800781 0.00079559 42.39101563 0.00159119 43.30078125 0.00241089 C45.3125 0.12939453 45.3125 0.12939453 46.3125 1.12939453 C46.5 3.56689453 46.5 3.56689453 46.3125 6.12939453 C43.83684965 8.60504488 43.11944267 8.38174415 39.7109375 8.38818359 C38.27935303 8.39764008 38.27935303 8.39764008 36.81884766 8.4072876 C35.78550293 8.40323914 34.7521582 8.39919067 33.6875 8.39501953 C32.62966309 8.39693298 31.57182617 8.39884644 30.48193359 8.40081787 C28.24251061 8.40218055 26.00307974 8.39847835 23.76367188 8.39013672 C20.32664323 8.37943855 16.8901373 8.39002941 13.453125 8.40283203 C11.28124884 8.40151045 9.10937301 8.39894809 6.9375 8.39501953 C5.90415527 8.39906799 4.87081055 8.40311646 3.80615234 8.4072876 C2.8517627 8.40098328 1.89737305 8.39467896 0.9140625 8.38818359 C0.07182129 8.38659241 -0.77041992 8.38500122 -1.63818359 8.38336182 C-3.6875 8.12939453 -3.6875 8.12939453 -5.6875 6.12939453 C-5.875 3.56689453 -5.875 3.56689453 -5.6875 1.12939453 C-4.05995356 -0.49815191 -2.24611677 0.00202376 0 0 Z " fill="#3D6799" transform="translate(514.6875,791.87060546875)"/>
<path d="M0 0 C3.49406769 1.66762322 4.82670681 2.74006022 7 6 C7.45971784 10.96495273 7.15065843 14.06167696 4 18 C0.78477863 20.32826375 -2.10830425 20.39711181 -6 20 C-8.80915461 18.72311154 -10.50106764 17.68900183 -12.3125 15.1875 C-13.25846855 12.17760008 -13.44072275 10.14801964 -13 7 C-9.53450596 1.44747981 -6.52922476 -0.51209606 0 0 Z " fill="#40699A" transform="translate(1260,203)"/>
<path d="M0 0 C2.5 1.5 2.5 1.5 4 4 C4.83777912 8.66887321 4.659793 11.9443312 2.125 16 C-0.61737122 18.58105526 -1.51262207 18.95402095 -5.3125 19.3125 C-9.57536111 18.95124058 -11.01992054 17.98007946 -14 15 C-15.60847182 11.78305636 -15.61309149 8.47862778 -15 5 C-10.39496092 -0.69570623 -7.05502052 -1.74284104 0 0 Z " fill="#3F689A" transform="translate(1298,204)"/>
<path d="M0 0 C3.24875254 2.22283069 3.89631231 3.61981182 4.9375 7.4375 C5.00779003 11.44403151 4.53249114 12.94354518 2 16 C-0.6740203 18.10101595 -2.04284685 17.99846976 -5.5 17.875 C-9.39257014 16.90185747 -10.74897767 16.28995572 -13 13 C-14.0625 9.625 -14.0625 9.625 -14 6 C-10.39063396 -0.36612592 -6.96286712 -1.56064263 0 0 Z " fill="#D8E5F3" transform="translate(943,744)"/>
<path d="M0 0 C3.51233245 0.39762254 5.55423177 1.2601795 8.1640625 3.68359375 C10.05014431 6.46139451 10.12912528 8.9247966 9.8984375 12.21484375 C8.81493928 16.20934051 6.87206846 17.33154403 3.3125 19.375 C-0.44958644 20.06599547 -2.10358557 19.67344515 -5.5 17.9375 C-8.18033966 14.79767354 -8.70113911 12.62740158 -8.96875 8.56640625 C-8.6875 6.375 -8.6875 6.375 -6.3125 3.375 C-5.44625 2.715 -4.58 2.055 -3.6875 1.375 C-2.6875 0.375 -2.6875 0.375 0 0 Z " fill="#D7E4F2" transform="translate(748.6875,742.625)"/>
<path d="M0 0 C7.09729188 0.23269809 7.09729188 0.23269809 10.5 3.125 C12.40479372 6.77585464 12.5814173 8.93007892 12 13 C10.20437595 15.75329021 8.94745078 17.52627461 6 19 C2.12785818 19.43023798 0.47503629 19.31669086 -2.8125 17.125 C-5.59649199 14.42055063 -5.93464155 13.57733296 -6.375 9.6875 C-5.90786625 5.09401813 -4.47959782 3.88552015 -1 1 C-0.67 0.67 -0.34 0.34 0 0 Z " fill="#D7E5F2" transform="translate(1036,743)"/>
<path d="M0 0 C3.66182182 2.64897749 4.84097547 4.01051403 5.5625 8.5 C4.91877781 12.50538252 3.84054174 14.15945826 1 17 C-1.85324437 18.42662219 -3.83454549 18.31033868 -7 18 C-9.69990662 16.20006226 -11.5418865 14.916227 -13 12 C-13.39447548 7.81855989 -13.45035186 5.69053952 -11.125 2.125 C-7.3595398 -1.6404602 -5.11205791 -1.21303069 0 0 Z " fill="#D8E5F2" transform="translate(804,744)"/>
<path d="M0 0 C4.19189408 0.1612267 6.51099943 0.64625491 9.9375 3.125 C12.55920183 6.77949346 12.70908329 8.58792617 12 13 C10.20437595 15.75329021 8.94745078 17.52627461 6 19 C2.12785818 19.43023798 0.47503629 19.31669086 -2.8125 17.125 C-5.59649199 14.42055063 -5.93464155 13.57733296 -6.375 9.6875 C-5.90786625 5.09401813 -4.47959782 3.88552015 -1 1 C-0.67 0.67 -0.34 0.34 0 0 Z " fill="#D8E6F3" transform="translate(986,743)"/>
<path d="M0 0 C3.5060303 0.86943897 4.94966563 2.56083702 6.9375 5.48046875 C7.62901325 9.78321784 7.45307405 11.68992187 5.0625 15.35546875 C2.55083682 17.86713193 1.64365837 18.40200671 -1.875 18.79296875 C-5.7932645 18.40882517 -7.27543267 17.18790558 -10.0625 14.48046875 C-11.63185594 11.34175687 -11.41451103 8.94191053 -11.0625 5.48046875 C-8.01136975 0.99912119 -5.26455839 -0.36891792 0 0 Z " fill="#DAE7F4" transform="translate(701.0625,743.51953125)"/>
<path d="M0 0 C2.5 0.25 2.5 0.25 4.5 2.25 C4.75 5.25 4.75 5.25 4.5 8.25 C2.5 10.25 2.5 10.25 -0.5 10.5625 C-1.49 10.459375 -2.48 10.35625 -3.5 10.25 C-5.5 7.25 -5.5 7.25 -5.25 4.6875 C-4.24098289 1.40819438 -3.4742892 0.34742892 0 0 Z " fill="#396294" transform="translate(1166.5,283.75)"/>
<path d="M0 0 C2.5 0.25 2.5 0.25 4.5 2.25 C4.75 5.25 4.75 5.25 4.5 8.25 C2.5 10.25 2.5 10.25 -0.5 10.5625 C-1.49 10.459375 -2.48 10.35625 -3.5 10.25 C-5.5 7.25 -5.5 7.25 -5.25 4.6875 C-4.24098289 1.40819438 -3.4742892 0.34742892 0 0 Z " fill="#386293" transform="translate(1144.5,283.75)"/>
<path d="M0 0 C0.33 0.66 0.66 1.32 1 2 C-0.85625 2.680625 -0.85625 2.680625 -2.75 3.375 C-5.59245495 4.4384007 -8.32663046 5.55192483 -11 7 C-11 9.31 -11 11.62 -11 14 C-11.66 13.67 -12.32 13.34 -13 13 C-13.34751969 10.08083462 -13.53280018 7.86804524 -11.95703125 5.30078125 C-8.00083025 0.50925335 -6.06199248 -0.13178245 0 0 Z " fill="#4B709D" transform="translate(1260,203)"/>
<path d="M0 0 C1.65 0.33 3.3 0.66 5 1 C4.67 2.65 4.34 4.3 4 6 C2.35 5.67 0.7 5.34 -1 5 C-0.67 3.35 -0.34 1.7 0 0 Z " fill="#3A6191" transform="translate(1066,334)"/>
<path d="M0 0 C2.0625 0.4375 2.0625 0.4375 4 1 C4.5625 2.9375 4.5625 2.9375 5 5 C4 6 4 6 1.4375 6.0625 C0.2309375 6.0315625 0.2309375 6.0315625 -1 6 C-1.042721 4.33388095 -1.04063832 2.66617115 -1 1 C-0.67 0.67 -0.34 0.34 0 0 Z " fill="#386191" transform="translate(1079,334)"/>
<path d="M0 0 C1.45922693 0.11409593 2.91740598 0.24165544 4.375 0.375 C5.59316406 0.47941406 5.59316406 0.47941406 6.8359375 0.5859375 C9 1 9 1 11 3 C10.01 3.33 9.02 3.66 8 4 C7.67 3.67 7.34 3.34 7 3 C4.67182036 2.63239269 2.3381615 2.29758419 0 2 C0 1.34 0 0.68 0 0 Z " fill="#C7D8EB" transform="translate(1023,380)"/>
</svg>
